<?xml version="1.0" encoding="utf-8"?>
<!-- Generator: Adobe Illustrator 15.0.0, SVG Export Plug-In . SVG Version: 6.00 Build 0)  -->
<!DOCTYPE svg PUBLIC "-//W3C//DTD SVG 1.1//EN" "http://www.w3.org/Graphics/SVG/1.1/DTD/svg11.dtd">
<svg version="1.1" id="Layer_1" xmlns="http://www.w3.org/2000/svg" xmlns:xlink="http://www.w3.org/1999/xlink" x="0px" y="0px"
	 width="1024px" height="1024px" viewBox="0 0 1024 1024" enable-background="new 0 0 1024 1024" xml:space="preserve">
<path d="M448.213,748.75v64h128v-64H448.213z M448.213,364.75v320h128v-320H448.213z M476.213,238.75l-316,580c-16,28,2,58,35,58
	h634c33,0,51-30,35-58l-316-580C531.214,207.75,493.213,207.75,476.213,238.75z M955.214,940.75h-886c-34,0-52-31-35-60l443-775
	c17-30,53-30,70,0l443,775C1006.214,909.75,989.214,940.75,955.214,940.75z"/>
</svg>
