<?xml version="1.0" encoding="utf-8"?>
<!-- Generator: Adobe Illustrator 15.0.0, SVG Export Plug-In . SVG Version: 6.00 Build 0)  -->
<!DOCTYPE svg PUBLIC "-//W3C//DTD SVG 1.1//EN" "http://www.w3.org/Graphics/SVG/1.1/DTD/svg11.dtd">
<svg version="1.1" id="Layer_1" xmlns="http://www.w3.org/2000/svg" xmlns:xlink="http://www.w3.org/1999/xlink" x="0px" y="0px"
	 width="896px" height="1024px" viewBox="0 0 896 1024" enable-background="new 0 0 896 1024" xml:space="preserve">
<path d="M557,877l320-320c13-12,19-27,19-45s-6-33-19-45L557,147c-12-13-27-19-45-19s-33,6-45,19c-13,10-19,25-19,45s6,35,19,45
	l210,211H64c-17,0-33,6-46,18C6,479,0,495,0,512c0,36,28,64,64,64h613L467,787c-13,12-19,27-19,45c0,36,28,64,64,64
	C530,896,545,890,557,877z"/>
</svg>
