<?xml version="1.0" encoding="utf-8"?>
<!-- Generator: Adobe Illustrator 15.0.0, SVG Export Plug-In . SVG Version: 6.00 Build 0)  -->
<!DOCTYPE svg PUBLIC "-//W3C//DTD SVG 1.1//EN" "http://www.w3.org/Graphics/SVG/1.1/DTD/svg11.dtd">
<svg version="1.1" id="Layer_1" xmlns="http://www.w3.org/2000/svg" xmlns:xlink="http://www.w3.org/1999/xlink" x="0px" y="0px"
	 width="768px" height="1024px" viewBox="0 0 768 1024" enable-background="new 0 0 768 1024" xml:space="preserve">
<path d="M749,557c13-12,19-27,19-45s-6-33-19-45L429,147c-12-13-27-19-45-19s-33,6-45,19L19,467C6,479,0,494,0,512s6,33,19,45
	c9,13,24,19,45,19s36-6,45-19l211-210v485c0,36,28,64,64,64c19,0,34-6,45-19c13-11,19-26,19-45V347l211,210c12,13,27,19,45,19
	S737,570,749,557z"/>
</svg>
