<?xml version="1.0" encoding="utf-8"?>
<!-- Generator: Adobe Illustrator 15.0.0, SVG Export Plug-In . SVG Version: 6.00 Build 0)  -->
<!DOCTYPE svg PUBLIC "-//W3C//DTD SVG 1.1//EN" "http://www.w3.org/Graphics/SVG/1.1/DTD/svg11.dtd">
<svg version="1.1" id="Layer_1" xmlns="http://www.w3.org/2000/svg" xmlns:xlink="http://www.w3.org/1999/xlink" x="0px" y="0px"
	 width="768px" height="1024px" viewBox="0 0 768 1024" enable-background="new 0 0 768 1024" xml:space="preserve">
<path d="M19,531C6,543,0,558,0,576s6,33,19,45l320,320c12,13,27,19,45,19s33-6,45-19l320-320c13-12,19-27,19-45s-6-33-19-45
	c-9-13-24-19-45-19s-36,6-45,19L448,741V128c0-36-28-64-64-64c-19,0-34,6-45,19c-13,11-19,26-19,45v613L109,531c-12-13-27-19-45-19
	S31,518,19,531z"/>
</svg>
