<?xml version="1.0" encoding="utf-8"?>
<!-- Generator: Adobe Illustrator 15.0.0, SVG Export Plug-In . SVG Version: 6.00 Build 0)  -->
<!DOCTYPE svg PUBLIC "-//W3C//DTD SVG 1.1//EN" "http://www.w3.org/Graphics/SVG/1.1/DTD/svg11.dtd">
<svg version="1.1" id="Layer_1" xmlns="http://www.w3.org/2000/svg" xmlns:xlink="http://www.w3.org/1999/xlink" x="0px" y="0px"
	 width="960px" height="1024px" viewBox="0 0 960 1024" enable-background="new 0 0 960 1024" xml:space="preserve">
<path d="M370.545,948.795c88-88,166-166,242-242s148-147,225-223c24-25,46-53,62-78c15-25,28-52,33-76c13-49,8-93-5-134
	s-39-77-70-110c-32-29-62-53-94-67c-33-14-65-21-101-18c-33,1-70,12-103,28c-33,17-69,44-101,76l-430,432l71,68l429-429
	c23-21,45-41,73-56c27-15,53-21,84-20c45,7,90,37,118,77s45,87,33,127c-12,35-29,61-47,83s-42,45-66,69c-39,39-75,75-110,109
	c-35,35-69,69-103,103c-35,35-69,69-103,102c-34,34-70,70-108,109c-27,24-51,41-73,44c-22,4-46-2-71-29c-15-12-23-27-29-40
	c-6-12-8-26-7-38c3-16,6-27,14-40c4-6,8-11,13-16c4-5,9-10,14-16l391-391c11-11,24-22,40-32c15-10,28-13,37-6c5,17,1,29-8,43
	s-21,25-30,34l-359,359l68,72l363-361c29-31,58-68,68-105c10-36,4-75-32-110c-37-35-79-38-115-29c-37,9-74,36-101,63l-394,394
	c-19,19-36,42-47,62c-11,21-20,45-21,68c-3,35,4,63,16,90c11,28,30,50,49,71c20,17,39,34,61,43s43,16,70,15c29,0,60-13,87-26
	S354.545,964.795,370.545,948.795z"/>
</svg>
