<?xml version="1.0" encoding="utf-8"?>
<!-- Generator: Adobe Illustrator 15.0.0, SVG Export Plug-In . SVG Version: 6.00 Build 0)  -->
<!DOCTYPE svg PUBLIC "-//W3C//DTD SVG 1.1//EN" "http://www.w3.org/Graphics/SVG/1.1/DTD/svg11.dtd">
<svg version="1.1" id="Layer_1" xmlns="http://www.w3.org/2000/svg" xmlns:xlink="http://www.w3.org/1999/xlink" x="0px" y="0px"
	 width="960px" height="1024px" viewBox="0 0 960 1024" enable-background="new 0 0 960 1024" xml:space="preserve">
<path d="M832,384v256H704V384H832z M352,192c-63-1-116-7-158-19c-43-12-65-27-66-45c1-18,23-33,66-45c42-12,95-18,158-18
	s116,6,159,18c42,12,64,27,65,45c-1,18-23,33-65,45C468,185,415,191,352,192z M576,320v512h-64V320H576z M384,384v512h-64V384H384z
	 M192,320v512h-64V320H192z M896,256c-21,0-57,0-108,0h-84V128c-3-37-37-67-103-91C534,13,451,1,352,0c-99,1-182,13-248,37
	C37,61,3,91,0,128v768c3,37,37,67,104,91c66,24,149,36,248,37c99-1,182-13,249-37c66-24,100-54,103-91V768h192c33-1,63-29,64-64V320
	C959,285,932,257,896,256z"/>
</svg>
