<?xml version="1.0" encoding="utf-8"?>
<!-- Generator: Adobe Illustrator 15.0.0, SVG Export Plug-In . SVG Version: 6.00 Build 0)  -->
<!DOCTYPE svg PUBLIC "-//W3C//DTD SVG 1.1//EN" "http://www.w3.org/Graphics/SVG/1.1/DTD/svg11.dtd">
<svg version="1.1" id="Layer_1" xmlns="http://www.w3.org/2000/svg" xmlns:xlink="http://www.w3.org/1999/xlink" x="0px" y="0px"
	 width="960px" height="1024px" viewBox="0 0 960 1024" enable-background="new 0 0 960 1024" xml:space="preserve">
<path d="M512,874c-21,0-40,9-53,22s-22,33-22,53c0,21,9,40,22,53s32,22,53,22c20,0,40-9,53-22s22-32,22-53c0-20-9-40-22-53
	S532,874,512,874z M445,0v63c-69,16-131,55-174,108c-44,53-71,121-71,196v272L-2,814v47h1028v-47L824,639V367c0-75-27-143-70-196
	c-44-53-106-92-175-108V0H445z"/>
</svg>
