<?xml version="1.0" encoding="utf-8"?>
<!-- Generator: Adobe Illustrator 15.0.0, SVG Export Plug-In . SVG Version: 6.00 Build 0)  -->
<!DOCTYPE svg PUBLIC "-//W3C//DTD SVG 1.1//EN" "http://www.w3.org/Graphics/SVG/1.1/DTD/svg11.dtd">
<svg version="1.1" id="Layer_1" xmlns="http://www.w3.org/2000/svg" xmlns:xlink="http://www.w3.org/1999/xlink" x="0px" y="0px"
	 width="512px" height="1024px" viewBox="0 0 512 1024" enable-background="new 0 0 512 1024" xml:space="preserve">
<path d="M444,346l-107,78l42,124c3,14-2,17-12,11l-108-78l-108,78c-11,6-15,3-12-11l42-124L73,346c-10-9-7-14,6-14l132-1l40-124
	c5-14,11-14,15,0l41,124l131,1C452,332,455,337,444,346z M512,64H0v896l256-224l256,224V64z"/>
</svg>
