<?xml version="1.0" encoding="utf-8"?>
<!-- Generator: Adobe Illustrator 15.0.0, SVG Export Plug-In . SVG Version: 6.00 Build 0)  -->
<!DOCTYPE svg PUBLIC "-//W3C//DTD SVG 1.1//EN" "http://www.w3.org/Graphics/SVG/1.1/DTD/svg11.dtd">
<svg version="1.1" id="Layer_1" xmlns="http://www.w3.org/2000/svg" xmlns:xlink="http://www.w3.org/1999/xlink" x="0px" y="0px"
	 width="384px" height="1024px" viewBox="0 0 384 1024" enable-background="new 0 0 384 1024" xml:space="preserve">
<path d="M316,325l-72,52l28,83c2,9-1,11-8,7l-72-52l-72,52c-7,4-10,2-8-7l28-83l-72-52c-7-6-5-9,4-9l88-1l27-83c3-9,7-9,10,0l27,83
	l88,1C321,316,323,319,316,325z M384,128H0v768l192-128l192,128V128z"/>
</svg>
