<?xml version="1.0" encoding="utf-8"?>
<!-- Generator: Adobe Illustrator 15.0.0, SVG Export Plug-In . SVG Version: 6.00 Build 0)  -->
<!DOCTYPE svg PUBLIC "-//W3C//DTD SVG 1.1//EN" "http://www.w3.org/Graphics/SVG/1.1/DTD/svg11.dtd">
<svg version="1.1" id="Layer_1" xmlns="http://www.w3.org/2000/svg" xmlns:xlink="http://www.w3.org/1999/xlink" x="0px" y="0px"
	 width="1024px" height="1024px" viewBox="0 0 1024 1024" enable-background="new 0 0 1024 1024" xml:space="preserve">
<path d="M768,576H640c-34,0-64,32-64,64h256C832,606,800,576,768,576z M713,160c-167,0-209,32-233,56c-24-24-66-56-233-56
	S0,206,0,238v586c29-16,119-48,214-56c115-9,234,9,234,32c0,16,8,31,31,32c0,0,0,0,1,0c0,0,0,0,1,0c23-1,31-16,31-32
	c0-23,119-41,234-32c94,7,185,40,214,56V238C960,206,880,160,713,160z M448,732c-30-16-103-28-192-28S86,716,64,731c0,0,0-411,0-443
	s64-59,192-59s192,27,192,59S448,732,448,732z M896,731c-22-15-103-27-192-27s-162,12-192,28c0,0,0-412,0-444s64-59,192-59
	s192,27,192,59S896,731,896,731z M768,448H640c-34,0-64,32-64,64h256C832,478,800,448,768,448z M768,320H640c-34,0-64,32-64,64h256
	C832,350,800,320,768,320z M320,448H192c-32,0-64,30-64,64h256C384,480,354,448,320,448z M320,576H192c-32,0-64,30-64,64h256
	C384,608,354,576,320,576z M320,320H192c-32,0-64,30-64,64h256C384,352,354,320,320,320z"/>
</svg>
