<?xml version="1.0" encoding="utf-8"?>
<!-- Generator: Adobe Illustrator 16.0.0, SVG Export Plug-In . SVG Version: 6.00 Build 0)  -->
<!DOCTYPE svg PUBLIC "-//W3C//DTD SVG 1.1//EN" "http://www.w3.org/Graphics/SVG/1.1/DTD/svg11.dtd">
<svg version="1.1" id="Layer_1" xmlns="http://www.w3.org/2000/svg" xmlns:xlink="http://www.w3.org/1999/xlink" x="0px" y="0px"
	 width="1536px" height="1792px" viewBox="0 0 1536 1792" enable-background="new 0 0 1536 1792" xml:space="preserve">
<path d="M1229,1023h-205c-56,2-101,50-102,103h409C1330,1070,1282,1025,1229,1023z M1141,358c-130,1-221,11-272,30s-85,39-101,59
	c-16-20-50-40-101-59s-142-29-272-30c-133,1-232,16-297,43c-66,27-98,54-98,82v937c51-27,187-75,342-89c96-7,181-5,256,6
	c76,11,114,26,119,45c0,25,13,49,49,51c0,0,0,0,2,0c0,0,0,0,2,0c36-2,49-26,49-51c5-19,43-34,119-45c75-11,160-13,256-6
	c153,14,291,62,342,89V483c0-28-32-55-98-82C1373,374,1274,359,1141,358z M717,563v710c-50-26-162-45-307-45c-146,0-269,18-308,43
	V563c0-28,26-50,77-68c51-17,128-25,231-25c102,0,179,8,230,25C691,513,717,535,717,563z M1434,563v708c-39-25-162-43-308-43
	c-145,0-257,19-307,45V563c0-28,26-50,77-68c51-17,128-25,230-25c103,0,180,8,231,25C1408,513,1434,535,1434,563z M1229,819h-205
	c-56,1-101,49-102,102h409C1330,865,1282,820,1229,819z M1229,614h-205c-56,1-101,49-102,102h409C1330,660,1282,615,1229,614z
	 M512,819H307c-53,1-101,46-102,102h409C613,868,568,820,512,819z M512,1023H307c-53,2-101,47-102,103h409
	C613,1073,568,1025,512,1023z M512,614H307c-53,1-101,46-102,102h409C613,663,568,615,512,614z"/>
</svg>
