<?xml version="1.0" encoding="utf-8"?>
<!-- Generator: Adobe Illustrator 16.0.0, SVG Export Plug-In . SVG Version: 6.00 Build 0)  -->
<!DOCTYPE svg PUBLIC "-//W3C//DTD SVG 1.1//EN" "http://www.w3.org/Graphics/SVG/1.1/DTD/svg11.dtd">
<svg version="1.1" id="Layer_1" xmlns="http://www.w3.org/2000/svg" xmlns:xlink="http://www.w3.org/1999/xlink" x="0px" y="0px"
	 width="1536px" height="1792px" viewBox="0 0 1536 1792" enable-background="new 0 0 1536 1792" xml:space="preserve">
<path d="M384,896v128h384V896H384z M384,640v128h512V640H384z M384,384v128h640V384H384z M256,128v1152h896V128H256z M0,1536V131
	C0,55,55,0,131,0h1149v1408H320c-83,0-128,45-128,128s45,128,128,128h1088V128h128v1664H256C90,1792,0,1702,0,1536z"/>
</svg>
