<?xml version="1.0" encoding="utf-8"?>
<!-- Generator: Adobe Illustrator 16.0.0, SVG Export Plug-In . SVG Version: 6.00 Build 0)  -->
<!DOCTYPE svg PUBLIC "-//W3C//DTD SVG 1.1//EN" "http://www.w3.org/Graphics/SVG/1.1/DTD/svg11.dtd">
<svg version="1.1" id="Layer_1" xmlns="http://www.w3.org/2000/svg" xmlns:xlink="http://www.w3.org/1999/xlink" x="0px" y="0px"
	 width="1664px" height="1792px" viewBox="0 0 1664 1792" enable-background="new 0 0 1664 1792" xml:space="preserve">
<path d="M320,512H192c-42,0-64-22-64-64V320c0-42,22-64,64-64h128c42,0,64,22,64,64v128C384,490,362,512,320,512z M384,1152V640
	c83,0,128-45,128-128V256c0-83-45-128-128-128H128C45,128,0,173,0,256v256c0,83,45,128,128,128v768c0,83,45,128,128,128h384v256
	l512-384l-512-384v256H512C429,1280,384,1235,384,1152z M1280,640v512c-83,0-128,45-128,128v256c0,83,45,128,128,128h256
	c83,0,128-45,128-128v-256c0-83-45-128-128-128V384c0-83-45-128-128-128h-384V0L512,384l512,384V512h128C1235,512,1280,557,1280,640
	z M1344,1280h128c42,0,64,22,64,64v128c0,42-22,64-64,64h-128c-42,0-64-22-64-64v-128C1280,1302,1302,1280,1344,1280z"/>
</svg>
