<?xml version="1.0" encoding="utf-8"?>
<!-- Generator: Adobe Illustrator 15.0.0, SVG Export Plug-In . SVG Version: 6.00 Build 0)  -->
<!DOCTYPE svg PUBLIC "-//W3C//DTD SVG 1.1//EN" "http://www.w3.org/Graphics/SVG/1.1/DTD/svg11.dtd">
<svg version="1.1" id="Layer_1" xmlns="http://www.w3.org/2000/svg" xmlns:xlink="http://www.w3.org/1999/xlink" x="0px" y="0px"
	 width="896px" height="1024px" viewBox="0 0 896 1024" enable-background="new 0 0 896 1024" xml:space="preserve">
<path d="M81.556,895v-62c0-19,14-33,33-33h62c19,0,33,14,33,33v62c0,19-14,33-33,33h-62C95.556,928,81.556,914,81.556,895z
	 M81.556,255v-62c0-19,14-33,33-33h62c19,0,33,14,33,33v62c0,19-14,33-33,33h-62C95.556,288,81.556,274,81.556,255z M17.556,801v126
	c0,39,26,65,65,65h126c39,0,65-26,65-65V801c0-37-27-65-64-65v-64h202c15,0,27-5,38-16l48-48l-96-96l-32,32h-160V352
	c37,0,64-28,64-65V161c0-39-26-65-65-65h-126c-39,0-65,26-65,65v126c0,37,27,65,64,65v384C44.556,736,17.556,764,17.556,801z
	 M420.556,239l89,52l-89,51c-21,12-28,39-16,59l21,37c12,21,39,28,59,16l89-52v104c0,23,20,43,44,43h43c23,0,43-20,43-43V402l89,52
	c20,12,47,5,59-16l21-37c12-20,5-47-15-59l-90-51l90-52c20-12,27-39,15-59l-21-37c-12-21-39-28-59-16l-89,52V75c0-23-20-43-43-43
	h-43c-24,0-44,20-44,43v104l-89-52c-20-12-47-5-59,16l-21,37C392.556,200,399.556,227,420.556,239z"/>
</svg>
