<?xml version="1.0" encoding="utf-8"?>
<!-- Generator: Adobe Illustrator 16.0.0, SVG Export Plug-In . SVG Version: 6.00 Build 0)  -->
<!DOCTYPE svg PUBLIC "-//W3C//DTD SVG 1.1//EN" "http://www.w3.org/Graphics/SVG/1.1/DTD/svg11.dtd">
<svg version="1.1" id="Layer_1" xmlns="http://www.w3.org/2000/svg" xmlns:xlink="http://www.w3.org/1999/xlink" x="0px" y="0px"
	 width="1536px" height="1792px" viewBox="0 0 1536 1792" enable-background="new 0 0 1536 1792" xml:space="preserve">
<path d="M384,1024l384,192h256c0,83,45,128,128,128h256c83,0,128-45,128-128V960c0-83-45-128-128-128h-256c-83,0-128,45-128,128H768
	L384,768V640c83,0,128-45,128-128V256c0-83-45-128-128-128H128C45,128,0,173,0,256v256c0,83,45,128,128,128v512
	c-83,0-128,45-128,128v256c0,83,45,128,128,128h256c83,0,128-45,128-128v-256c0-83-45-128-128-128V1024z M1216,960h128
	c42,0,64,22,64,64v128c0,42-22,64-64,64h-128c-42,0-64-22-64-64v-128C1152,982,1174,960,1216,960z M192,1280h128c42,0,64,22,64,64
	v128c0,42-22,64-64,64H192c-42,0-64-22-64-64v-128C128,1302,150,1280,192,1280z M192,256h128c42,0,64,22,64,64v128c0,42-22,64-64,64
	H192c-42,0-64-22-64-64V320C128,278,150,256,192,256z"/>
</svg>
