<?xml version="1.0" encoding="utf-8"?>
<!-- Generator: Adobe Illustrator 15.0.0, SVG Export Plug-In . SVG Version: 6.00 Build 0)  -->
<!DOCTYPE svg PUBLIC "-//W3C//DTD SVG 1.1//EN" "http://www.w3.org/Graphics/SVG/1.1/DTD/svg11.dtd">
<svg version="1.1" id="Layer_1" xmlns="http://www.w3.org/2000/svg" xmlns:xlink="http://www.w3.org/1999/xlink" x="0px" y="0px"
	 width="768px" height="1024px" viewBox="0 0 768 1024" enable-background="new 0 0 768 1024" xml:space="preserve">
<path d="M64,895v-62c0-19,14-33,33-33h62c19,0,33,14,33,33v62c0,19-14,33-33,33H97C78,928,64,914,64,895z M64,255v-62
	c0-19,14-33,33-33h62c19,0,33,14,33,33v62c0,19-14,33-33,33H97C78,288,64,274,64,255z M0,801v126c0,39,26,65,65,65h126
	c39,0,65-26,65-65V801c0-37-27-65-64-65v-64h202c15,0,27-5,38-16l80-80l-96-96l-64,64H192V352c37,0,64-28,64-65V161
	c0-39-26-65-65-65H65c-39,0-65,26-65,65v126c0,37,27,65,64,65v384C27,736,0,764,0,801z M480,416l-96-96l96-96l-96-96l96-96l96,96
	l96-96l96,96l-96,96l96,96l-96,96l-96-96L480,416z"/>
</svg>
