<?xml version="1.0" encoding="utf-8"?>
<!-- Generator: Adobe Illustrator 15.0.0, SVG Export Plug-In . SVG Version: 6.00 Build 0)  -->
<!DOCTYPE svg PUBLIC "-//W3C//DTD SVG 1.1//EN" "http://www.w3.org/Graphics/SVG/1.1/DTD/svg11.dtd">
<svg version="1.1" id="Layer_1" xmlns="http://www.w3.org/2000/svg" xmlns:xlink="http://www.w3.org/1999/xlink" x="0px" y="0px"
	 width="768px" height="1024px" viewBox="0 0 768 1024" enable-background="new 0 0 768 1024" xml:space="preserve">
<path d="M64,863v-62c0-19,14-33,33-33h62c19,0,33,14,33,33v62c0,19-14,33-33,33H97C78,896,64,882,64,863z M576,607v-62
	c0-19,14-33,33-33h62c19,0,33,14,33,33v62c0,19-14,33-33,33h-62C590,640,576,626,576,607z M64,223v-62c0-19,14-33,33-33h62
	c19,0,33,14,33,33v62c0,19-14,33-33,33H97C78,256,64,242,64,223z M0,769v126c0,39,26,65,65,65h126c39,0,65-26,65-65V769
	c0-37-27-65-64-65V560l116,72c9,5,18,8,27,8h177c0,37,28,64,65,64h126c39,0,65-26,65-65V513c0-39-26-65-65-65H577c-37,0-65,27-65,64
	H352l-160-96v-96c37,0,64-28,64-65V129c0-39-26-65-65-65H65C26,64,0,90,0,129v126c0,37,27,65,64,65v384C27,704,0,732,0,769z"/>
</svg>
