<?xml version="1.0" encoding="utf-8"?>
<!-- Generator: Adobe Illustrator 16.0.0, SVG Export Plug-In . SVG Version: 6.00 Build 0)  -->
<!DOCTYPE svg PUBLIC "-//W3C//DTD SVG 1.1//EN" "http://www.w3.org/Graphics/SVG/1.1/DTD/svg11.dtd">
<svg version="1.1" id="Layer_1" xmlns="http://www.w3.org/2000/svg" xmlns:xlink="http://www.w3.org/1999/xlink" x="0px" y="0px"
	 width="1664px" height="1792px" viewBox="0 0 1664 1792" enable-background="new 0 0 1664 1792" xml:space="preserve">
<path d="M1621,602l-155-90l155-90c36-20,48-66,28-102l-38-64c-20-36-66-48-102-27l-155,89V139c0-41-34-75-75-75h-74
	c-41,0-75,34-75,75v179l-155-89c-36-21-82-9-102,27l-38,64c-20,36-8,82,28,102l155,90l-155,90c-36,20-48,66-28,102l38,64
	c20,36,66,48,102,28l155-90v179c0,41,34,75,75,75h74c41,0,75-34,75-75V706l155,90c36,20,82,8,102-28l38-64
	C1669,668,1657,622,1621,602z M763,960L635,832H379V704c83,0,128-45,128-128V320c0-83-45-128-128-128H123C40,192-5,237-5,320v256
	c0,83,45,128,128,128v512c-83,0-128,45-128,128v256c0,83,45,128,128,128h256c83,0,128-45,128-128v-256c0-83-45-128-128-128v-128h256
	L763,960z M187,1344h128c42,0,64,22,64,64v128c0,42-22,64-64,64H187c-42,0-64-22-64-64v-128C123,1366,145,1344,187,1344z M187,320
	h128c42,0,64,22,64,64v128c0,42-22,64-64,64H187c-42,0-64-22-64-64V384C123,342,145,320,187,320z"/>
</svg>
