<?xml version="1.0" encoding="utf-8"?>
<!-- Generator: Adobe Illustrator 16.0.0, SVG Export Plug-In . SVG Version: 6.00 Build 0)  -->
<!DOCTYPE svg PUBLIC "-//W3C//DTD SVG 1.1//EN" "http://www.w3.org/Graphics/SVG/1.1/DTD/svg11.dtd">
<svg version="1.1" id="Layer_1" xmlns="http://www.w3.org/2000/svg" xmlns:xlink="http://www.w3.org/1999/xlink" x="0px" y="0px"
	 width="1664px" height="1792px" viewBox="0 0 1664 1792" enable-background="new 0 0 1664 1792" xml:space="preserve">
<path d="M1152,448V320c0-71,57-128,128-128s128,57,128,128v128H1152z M1536,448V320c0-141-115-256-256-256s-256,115-256,256v128H896
	l1,512h767V448H1536z M769,1088L641,960V832H385V704c83,0,128-45,128-128V320c0-83-45-128-128-128H129C46,192,1,237,1,320v256
	c0,83,45,128,128,128v512c-83,0-128,45-128,128v256c0,83,45,128,128,128h256c83,0,128-45,128-128v-256c0-83-45-128-128-128v-128H769
	z M193,1344h128c42,0,64,22,64,64v128c0,42-22,64-64,64H193c-42,0-64-22-64-64v-128C129,1366,151,1344,193,1344z M193,320h128
	c42,0,64,22,64,64v128c0,42-22,64-64,64H193c-42,0-64-22-64-64V384C129,342,151,320,193,320z"/>
</svg>
