<?xml version="1.0" encoding="utf-8"?>
<!-- Generator: Adobe Illustrator 15.0.0, SVG Export Plug-In . SVG Version: 6.00 Build 0)  -->
<!DOCTYPE svg PUBLIC "-//W3C//DTD SVG 1.1//EN" "http://www.w3.org/Graphics/SVG/1.1/DTD/svg11.dtd">
<svg version="1.1" id="Layer_1" xmlns="http://www.w3.org/2000/svg" xmlns:xlink="http://www.w3.org/1999/xlink" x="0px" y="0px"
	 width="960px" height="1024px" viewBox="0 0 960 1024" enable-background="new 0 0 960 1024" xml:space="preserve">
<path d="M64,863v-62c0-19,14-33,33-33h62c19,0,33,14,33,33v62c0,19-14,33-33,33H97C78,896,64,882,64,863z M768,223v-62
	c0-19,14-33,33-33h62c19,0,33,14,33,33v62c0,19-14,33-33,33h-62C782,256,768,242,768,223z M576,640L320,832l256,192V896h255
	c39,0,65-28,65-65V320c37,0,64-28,64-65V129c0-37-26-65-65-65H769c-39,0-65,28-65,65v126c0,37,27,65,64,65v448H576V640z M0,769v126
	c0,37,26,65,65,65h126c39,0,65-28,65-65V769c0-37-27-65-64-65V256h192v128l256-192L384,0v128H129c-39,0-65,28-65,65v511
	C27,704,0,732,0,769z"/>
</svg>
