<?xml version="1.0" encoding="utf-8"?>
<!-- Generator: Adobe Illustrator 15.0.0, SVG Export Plug-In . SVG Version: 6.00 Build 0)  -->
<!DOCTYPE svg PUBLIC "-//W3C//DTD SVG 1.1//EN" "http://www.w3.org/Graphics/SVG/1.1/DTD/svg11.dtd">
<svg version="1.1" id="Layer_1" xmlns="http://www.w3.org/2000/svg" xmlns:xlink="http://www.w3.org/1999/xlink" x="0px" y="0px"
	 width="896px" height="1024px" viewBox="0 0 896 1024" enable-background="new 0 0 896 1024" xml:space="preserve">
<path d="M896,832V192c-1-36-28-63-64-64H64c-36,1-63,28-64,64v640c1,36,28,63,64,64h768C868,895,895,868,896,832z M832,192v64H448
	v-64H832z M832,320v512H64V320H832z M64,256v-64h64v64H64z M192,256v-64h64v64H192z M320,256v-64h64v64H320z"/>
</svg>
