<?xml version="1.0" encoding="utf-8"?>
<!-- Generator: Adobe Illustrator 15.0.0, SVG Export Plug-In . SVG Version: 6.00 Build 0)  -->
<!DOCTYPE svg PUBLIC "-//W3C//DTD SVG 1.1//EN" "http://www.w3.org/Graphics/SVG/1.1/DTD/svg11.dtd">
<svg version="1.1" id="Layer_1" xmlns="http://www.w3.org/2000/svg" xmlns:xlink="http://www.w3.org/1999/xlink" x="0px" y="0px"
	 width="768px" height="1024px" viewBox="0 0 768 1024" enable-background="new 0 0 768 1024" xml:space="preserve">
<path d="M662.361,602.019c-9-2-17-3-24-4v-6c0-33-4-65-12-96c35,3,84-20,105-46s10-49-23-50s-79,19-100,43c-7-19-16-36-26-52
	c-31,27-88,62-168,71v322c1,1-1,7-4,16s-13,15-28,16c-15-1-24-7-27-16c-4-9-6-15-5-16v-322c-80-9-136-44-167-71c-9,15-18,32-26,50
	c-20-23-64-42-97-41s-44,26-23,51s69,46,102,45c-8,31-12,63-13,96l1,7c-7,1-14,2-21,3c-53,11-91,36-88,59c1,12,12,20,31,23
	c19,4,41,3,68-2c7-1,13-3,20-5c9,41,23,78,44,111c-25,13-58,44-69,76c-11,33,9,52,41,41s60-41,72-61c44,43,98,68,158,68
	c60,0,115-26,159-70c12,21,40,52,73,63c32,11,52-8,41-41c-11-32-46-64-71-77c20-33,35-70,44-111c7,3,14,5,22,6c27,5,49,6,68,2
	c37-8,41-34,8-57C710.361,616.019,689.361,607.019,662.361,602.019z M261.362,189.019c-25,31-38,62-39,94c-3,65-13,48,41,85
	c27,19,66,29,119,32c53-3,93-13,120-32s40-29,40-32c2-3,2-20,1-52s-14-63-38-94c33-19,51-43,44-62c-11-20-48-21-89-4
	c-15,7-27,15-37,24c-12-3-25-4-40-4c-15,0-28,1-39,3c-20-17-59-36-92-35s-42,23-26,46
	C233.362,169.019,245.362,180.019,261.362,189.019z"/>
</svg>
