<?xml version="1.0" encoding="utf-8"?>
<!-- Generator: Adobe Illustrator 15.0.0, SVG Export Plug-In . SVG Version: 6.00 Build 0)  -->
<!DOCTYPE svg PUBLIC "-//W3C//DTD SVG 1.1//EN" "http://www.w3.org/Graphics/SVG/1.1/DTD/svg11.dtd">
<svg version="1.1" id="Layer_1" xmlns="http://www.w3.org/2000/svg" xmlns:xlink="http://www.w3.org/1999/xlink" x="0px" y="0px"
	 width="1024px" height="1024px" viewBox="0 0 1024 1024" enable-background="new 0 0 1024 1024" xml:space="preserve">
<path d="M308,904l85-116c38,16,77,24,118,24c42,0,81-8,118-24l85,116c-63,33-131,50-203,50S371,937,308,904z M904,715l-116-85
	c15-39,23-78,23-118s-8-79-23-118l116-86c33,65,49,133,49,204S937,650,904,715z M69,512c0-71,16-139,49-204l117,86
	c-16,38-24,77-24,118s8,80,24,118l-117,85C85,650,69,583,69,512z M348,675c-59-59-81-143-60-223c24-95,112-171,223-171
	c128,0,231,103,231,231S639,742,511,742C447,742,393,720,348,675z M393,236l-85-117c65-33,133-50,203-50c72,0,140,17,203,50l-85,117
	c-37-16-76-24-118-24C470,212,431,220,393,236z M0,512c0,132,55,267,150,362c100,100,220,150,361,150c137,0,266-54,362-150
	s151-230,151-362s-55-266-151-362C777,53,648,0,511,0C369,0,249,50,150,150C54,246,0,379,0,512z"/>
</svg>
