<?xml version="1.0" encoding="utf-8"?>
<!-- Generator: Adobe Illustrator 15.0.0, SVG Export Plug-In . SVG Version: 6.00 Build 0)  -->
<!DOCTYPE svg PUBLIC "-//W3C//DTD SVG 1.1//EN" "http://www.w3.org/Graphics/SVG/1.1/DTD/svg11.dtd">
<svg version="1.1" id="Layer_1" xmlns="http://www.w3.org/2000/svg" xmlns:xlink="http://www.w3.org/1999/xlink" x="0px" y="0px"
	 width="960px" height="1024px" viewBox="0 0 960 1024" enable-background="new 0 0 960 1024" xml:space="preserve">
<path d="M480,512L480,512L480,512L480,512L480,512z M480,512L480,512L480,512L480,512L480,512L480,512L480,512L480,512L480,512
	L480,512z M480,512L480,512L480,512L480,512L480,512L480,512L480,512L480,512L480,512z M480,512L480,512L480,512L480,512L480,512
	L480,512L480,512L480,512L480,512L480,512L480,512L480,512L480,512L480,512L480,512L480,512L480,512z M480,512L480,512L480,512
	L480,512L480,512L480,512L480,512L480,512L480,512L480,512L480,512L480,512L480,512z"/>
<path d="M512,768v128h128V768H512z M320,768v128h128V768H320z M128,768v128h128V768H128z M704,576v128h128V576H704z M512,576v128
	h128V576H512z M320,576v128h128V576H320z M128,576v128h128V576H128z M704,384v128h128V384H704z M512,384v128h128V384H512z M320,384
	v128h128V384H320z M896,960H64V320h832V960z M704,256h-64V64h64V256z M320,256h-64V64h64V256z M0,129v830c0,39,26,65,65,65h830
	c39,0,65-26,65-65V129c0-39-26-65-65-65H768V33c0-19-14-33-33-33H609c-19,0-33,14-33,33v31H384V33c0-19-14-33-33-33H225
	c-19,0-33,14-33,33v31H65C26,64,0,90,0,129z"/>
</svg>
