<?xml version="1.0" encoding="utf-8"?>
<!-- Generator: Adobe Illustrator 15.0.0, SVG Export Plug-In . SVG Version: 6.00 Build 0)  -->
<!DOCTYPE svg PUBLIC "-//W3C//DTD SVG 1.1//EN" "http://www.w3.org/Graphics/SVG/1.1/DTD/svg11.dtd">
<svg version="1.1" id="Layer_1" xmlns="http://www.w3.org/2000/svg" xmlns:xlink="http://www.w3.org/1999/xlink" x="0px" y="0px"
	 width="960px" height="1024px" viewBox="0 0 960 1024" enable-background="new 0 0 960 1024" xml:space="preserve">
<path d="M480,512L480,512L480,512L480,512L480,512z M480,512L480,512L480,512L480,512L480,512L480,512L480,512L480,512L480,512
	L480,512z M480,512L480,512L480,512L480,512L480,512L480,512L480,512L480,512L480,512z M480,512L480,512L480,512L480,512L480,512
	L480,512L480,512L480,512L480,512L480,512L480,512L480,512L480,512L480,512L480,512L480,512L480,512z M480,512L480,512L480,512
	L480,512L480,512L480,512L480,512L480,512L480,512L480,512L480,512L480,512L480,512z"/>
<path d="M704,480h-64v-64h128v448h-64V480z M512,864H192v-64h256V672H192v-64h256V480H192v-64h320V864z M896,960H64V320h832V960z
	 M704,256h-64V64h64V256z M320,256h-64V64h64V256z M0,129v830c0,39,26,65,65,65h830c39,0,65-26,65-65V129c0-39-26-65-65-65H768V33
	c0-19-14-33-33-33H609c-19,0-33,14-33,33v31H384V33c0-19-14-33-33-33H225c-19,0-33,14-33,33v31H65C26,64,0,90,0,129z"/>
</svg>
