<?xml version="1.0" encoding="utf-8"?>
<!-- Generator: Adobe Illustrator 15.0.0, SVG Export Plug-In . SVG Version: 6.00 Build 0)  -->
<!DOCTYPE svg PUBLIC "-//W3C//DTD SVG 1.1//EN" "http://www.w3.org/Graphics/SVG/1.1/DTD/svg11.dtd">
<svg version="1.1" id="Layer_1" xmlns="http://www.w3.org/2000/svg" xmlns:xlink="http://www.w3.org/1999/xlink" x="0px" y="0px"
	 width="1024px" height="1024px" viewBox="0 0 1024 1024" enable-background="new 0 0 1024 1024" xml:space="preserve">
<path d="M220,801c-19-19-28-41-28-68c0-53,43-96,96-96h8l104-172c-11-15-16-32-16-52c0-53,43-96,96-96s96,43,96,96c0,20-5,37-16,52
	l104,172h14l171-298c-11-17-17-35-17-54c0-53,43-96,96-96s96,43,96,96s-43,96-96,96h-6L751,679c11,17,17,35,17,54c0,53-43,96-96,96
	s-96-43-96-96c0-19,5-37,16-52L488,509h-16L368,681c11,15,16,33,16,52c0,53-43,96-96,96C261,829,239,820,220,801z M64,832V704H0v-64
	h64V512H0v-64h64V320H0v-64h64V128H0V64h64V0h64v960h896v64H64V896H0v-64H64z"/>
</svg>
