<?xml version="1.0" encoding="utf-8"?>
<!-- Generator: Adobe Illustrator 15.0.0, SVG Export Plug-In . SVG Version: 6.00 Build 0)  -->
<!DOCTYPE svg PUBLIC "-//W3C//DTD SVG 1.1//EN" "http://www.w3.org/Graphics/SVG/1.1/DTD/svg11.dtd">
<svg version="1.1" id="Layer_1" xmlns="http://www.w3.org/2000/svg" xmlns:xlink="http://www.w3.org/1999/xlink" x="0px" y="0px"
	 width="1024px" height="1024px" viewBox="0 0 1024 1024" enable-background="new 0 0 1024 1024" xml:space="preserve">
<path d="M0,459.5h442v-442C221,52.5,35,238.5,0,459.5z M520,564.5h-8H0c35,255,255,442,512,442c168,0,339-94,438-244
	c49-75,74-152,74-233c0-161-92-323-227-421c-68-49-140-79-215-91v512c0,20-16,35-53,35C527,564.5,524,564.5,520,564.5z"/>
</svg>
