<?xml version="1.0" encoding="utf-8"?>
<!-- Generator: Adobe Illustrator 15.0.0, SVG Export Plug-In . SVG Version: 6.00 Build 0)  -->
<!DOCTYPE svg PUBLIC "-//W3C//DTD SVG 1.1//EN" "http://www.w3.org/Graphics/SVG/1.1/DTD/svg11.dtd">
<svg version="1.1" id="Layer_1" xmlns="http://www.w3.org/2000/svg" xmlns:xlink="http://www.w3.org/1999/xlink" x="0px" y="0px"
	 width="1024px" height="1024px" viewBox="0 0 1024 1024" enable-background="new 0 0 1024 1024" xml:space="preserve">
<path d="M768,640v160c-1,16-16,31-32,32H160c-19,0-32-12-32-32V224c1-17,16-32,32-32h416V64H64C31,64,1,95,0,128v768
	c1,33,31,63,64,64h768c33-1,64-31,64-64V640H768z M1024,192L896,64L512,448L384,320L256,448l256,256L1024,192z"/>
</svg>
