<?xml version="1.0" encoding="utf-8"?>
<!-- Generator: Adobe Illustrator 15.0.0, SVG Export Plug-In . SVG Version: 6.00 Build 0)  -->
<!DOCTYPE svg PUBLIC "-//W3C//DTD SVG 1.1//EN" "http://www.w3.org/Graphics/SVG/1.1/DTD/svg11.dtd">
<svg version="1.1" id="Layer_1" xmlns="http://www.w3.org/2000/svg" xmlns:xlink="http://www.w3.org/1999/xlink" x="0px" y="0px"
	 width="896px" height="1024px" viewBox="0 0 896 1024" enable-background="new 0 0 896 1024" xml:space="preserve">
<path d="M256,320v384h384V320H256z M768,224v576c-1,16-16,31-32,32H160c-19,0-32-12-32-32V224c1-17,16-32,32-32h576
	C752,192,767,207,768,224z M832,64H64C31,65,1,95,0,128v768c1,33,31,63,64,64h768c33-1,63-31,64-64V128C895,95,865,65,832,64z"/>
</svg>
