<?xml version="1.0" encoding="utf-8"?>
<!-- Generator: Adobe Illustrator 16.0.0, SVG Export Plug-In . SVG Version: 6.00 Build 0)  -->
<!DOCTYPE svg PUBLIC "-//W3C//DTD SVG 1.1//EN" "http://www.w3.org/Graphics/SVG/1.1/DTD/svg11.dtd">
<svg version="1.1" id="Layer_1" xmlns="http://www.w3.org/2000/svg" xmlns:xlink="http://www.w3.org/1999/xlink" x="0px" y="0px"
	 width="1664px" height="1792px" viewBox="0 0 1664 1792" enable-background="new 0 0 1664 1792" xml:space="preserve">
<path d="M1627,1069l-486,486c-29,29-61,29-90,0l-294-294c-29-29-29-61,0-90l38-38c29-29,61-29,90,0l211,211l403-403
	c29-29,61-29,90,0l38,38C1656,1008,1656,1040,1627,1069z M392,832h128l1,128H392V832z M136,832h128v128H136V832z M392,576h768v128
	H392V576z M136,576h128v128H136V576z M392,320h768v128H392V320z M136,320h128v128H136V320z M840,1600l-203-203
	c-118-118-118-244,0-362l22-22c118-118,244-118,362,0l75,75l192-192V192H8v1408H840z"/>
</svg>
