<?xml version="1.0" encoding="utf-8"?>
<!-- Generator: Adobe Illustrator 15.0.0, SVG Export Plug-In . SVG Version: 6.00 Build 0)  -->
<!DOCTYPE svg PUBLIC "-//W3C//DTD SVG 1.1//EN" "http://www.w3.org/Graphics/SVG/1.1/DTD/svg11.dtd">
<svg version="1.1" id="Layer_1" xmlns="http://www.w3.org/2000/svg" xmlns:xlink="http://www.w3.org/1999/xlink" x="0px" y="0px"
	 width="640px" height="1024px" viewBox="0 0 640 1024" enable-background="new 0 0 640 1024" xml:space="preserve">
<path d="M320,704c-28-1-54-6-79-17l254-253c11,24,17,50,17,78C509,621,429,701,320,704z M320,320c28,0,54,6,77,17L145,589
	c-11-23-17-49-17-77C131,403,211,323,320,320z M320,192C139,196,4,331,0,512c4,181,139,316,320,320c181-4,316-139,320-320
	C636,331,501,196,320,192z"/>
</svg>
