<?xml version="1.0" encoding="utf-8"?>
<!-- Generator: Adobe Illustrator 15.0.0, SVG Export Plug-In . SVG Version: 6.00 Build 0)  -->
<!DOCTYPE svg PUBLIC "-//W3C//DTD SVG 1.1//EN" "http://www.w3.org/Graphics/SVG/1.1/DTD/svg11.dtd">
<svg version="1.1" id="Layer_1" xmlns="http://www.w3.org/2000/svg" xmlns:xlink="http://www.w3.org/1999/xlink" x="0px" y="0px"
	 width="896px" height="1024px" viewBox="0 0 896 1024" enable-background="new 0 0 896 1024" xml:space="preserve">
<path d="M256,608v-64H128v64H256z M448,480v-64H128v64H448z M128,800v64h192v-64H128z M896,608H576V480L320,672l256,192V736h320V608
	z M128,672v64h128v-64H128z M192,224c13,0,23,0,30,0h34c36-1,63-28,64-64s28-63,64-63s63,27,64,63s31,63,64,64h64c32,1,63,28,64,64
	H128C129,248,155,224,192,224z M704,800v128H64V352h640v192h64V224c-1-36-28-63-64-64H512c-1-73-55-127-128-128
	c-73,1-127,55-128,128H64c-36,1-63,28-64,64v704c1,36,28,63,64,64h640c36-1,63-28,64-64V800H704z"/>
</svg>
