<?xml version="1.0" encoding="utf-8"?>
<!-- Generator: Adobe Illustrator 15.0.0, SVG Export Plug-In . SVG Version: 6.00 Build 0)  -->
<!DOCTYPE svg PUBLIC "-//W3C//DTD SVG 1.1//EN" "http://www.w3.org/Graphics/SVG/1.1/DTD/svg11.dtd">
<svg version="1.1" id="Layer_1" xmlns="http://www.w3.org/2000/svg" xmlns:xlink="http://www.w3.org/1999/xlink" x="0px" y="0px"
	 width="896px" height="1024px" viewBox="0 0 896 1024" enable-background="new 0 0 896 1024" xml:space="preserve">
<path d="M448,832c-181-4-316-139-320-320c5-180,140-315,320-320c180,5,315,140,320,320C764,693,629,828,448,832z M448,64
	C195,71,7,259,0,512c7,253,195,441,448,448c253-7,441-195,448-448C889,259,701,71,448,64z M384,256v320h256l64-64l-64-64H512V256
	l-64-64L384,256z"/>
</svg>
