<?xml version="1.0" encoding="utf-8"?>
<!-- Generator: Adobe Illustrator 15.0.0, SVG Export Plug-In . SVG Version: 6.00 Build 0)  -->
<!DOCTYPE svg PUBLIC "-//W3C//DTD SVG 1.1//EN" "http://www.w3.org/Graphics/SVG/1.1/DTD/svg11.dtd">
<svg version="1.1" id="Layer_1" xmlns="http://www.w3.org/2000/svg" xmlns:xlink="http://www.w3.org/1999/xlink" x="0px" y="0px"
	 width="960px" height="1024px" viewBox="0 0 960 1024" enable-background="new 0 0 960 1024" xml:space="preserve">
<path d="M352,449v126c0,39,26,65,65,65h126c39,0,65-26,65-65V449c0-39-26-65-65-65H417C378,384,352,410,352,449z M0,576V448h256v-29
	c0-76,55-131,131-131h186c76,0,131,55,131,131v29h256v128H704v29c0,76-55,131-131,131H387c-76,0-131-55-131-131v-29H0z"/>
</svg>
