<?xml version="1.0" encoding="utf-8"?>
<!-- Generator: Adobe Illustrator 16.0.0, SVG Export Plug-In . SVG Version: 6.00 Build 0)  -->
<!DOCTYPE svg PUBLIC "-//W3C//DTD SVG 1.1//EN" "http://www.w3.org/Graphics/SVG/1.1/DTD/svg11.dtd">
<svg version="1.1" id="Layer_1" xmlns="http://www.w3.org/2000/svg" xmlns:xlink="http://www.w3.org/1999/xlink" x="0px" y="0px"
	 width="1792px" height="1792px" viewBox="0 0 1792 1792" enable-background="new 0 0 1792 1792" xml:space="preserve">
<path d="M768,640h256c83,0,128,45,128,128v256c0,83-45,128-128,128H768c-83,0-128-45-128-128V768C640,685,685,640,768,640z M384,768
	H0v256h384v128c0,166,90,256,256,256h512c166,0,256-90,256-256v-128h384V768h-384V640c0-166-90-256-256-256H640
	c-166,0-256,90-256,256V768z"/>
</svg>
