<?xml version="1.0" encoding="utf-8"?>
<!-- Generator: Adobe Illustrator 16.0.0, SVG Export Plug-In . SVG Version: 6.00 Build 0)  -->
<!DOCTYPE svg PUBLIC "-//W3C//DTD SVG 1.1//EN" "http://www.w3.org/Graphics/SVG/1.1/DTD/svg11.dtd">
<svg version="1.1" id="Layer_1" xmlns="http://www.w3.org/2000/svg" xmlns:xlink="http://www.w3.org/1999/xlink" x="0px" y="0px"
	 width="1664px" height="1792px" viewBox="0 0 1664 1792" enable-background="new 0 0 1664 1792" xml:space="preserve">
<path d="M1024,960v125c0,76-55,131-131,131H640l-384,384v-384H131c-76,0-131-55-131-131V707c0-76,55-131,131-131h381v188
	c0,114,82,196,196,196H1024z M1664,701V323c0-76-55-131-131-131H771c-76,0-131,55-131,131v378c0,76,55,131,131,131h253l384,384V832
	h125C1609,832,1664,777,1664,701z"/>
</svg>
