<?xml version="1.0" encoding="utf-8"?>
<!-- Generator: Adobe Illustrator 15.0.0, SVG Export Plug-In . SVG Version: 6.00 Build 0)  -->
<!DOCTYPE svg PUBLIC "-//W3C//DTD SVG 1.1//EN" "http://www.w3.org/Graphics/SVG/1.1/DTD/svg11.dtd">
<svg version="1.1" id="Layer_1" xmlns="http://www.w3.org/2000/svg" xmlns:xlink="http://www.w3.org/1999/xlink" x="0px" y="0px"
	 width="896px" height="1024px" viewBox="0 0 896 1024" enable-background="new 0 0 896 1024" xml:space="preserve">
<path d="M2,336l-2,16v320c0,31,23,58,48,62l16,2h64v192l194-192h192c5,0,11-1,18-3c21-4,44-33,44-61v-64H384c-72,0-123-46-128-121
	V288H64C33,288,6,311,2,336z M322,144l-2,16v320c0,31,21,58,46,62l16,2h192l194,192V544h64c4,0,6,0,7-1c29,0,57-27,57-63V160
	c0-31-23-58-48-62l-16-2H384C353,96,326,119,322,144z"/>
</svg>
