<?xml version="1.0" encoding="utf-8"?>
<!-- Generator: Adobe Illustrator 16.0.0, SVG Export Plug-In . SVG Version: 6.00 Build 0)  -->
<!DOCTYPE svg PUBLIC "-//W3C//DTD SVG 1.1//EN" "http://www.w3.org/Graphics/SVG/1.1/DTD/svg11.dtd">
<svg version="1.1" id="Layer_1" xmlns="http://www.w3.org/2000/svg" xmlns:xlink="http://www.w3.org/1999/xlink" x="0px" y="0px"
	 width="1536px" height="1792px" viewBox="0 0 1536 1792" enable-background="new 0 0 1536 1792" xml:space="preserve">
<g id="Icons_new_Arranged_Names">
	<g id="_x38_9_Compass">
		<path id="Oval_278" fill="#010101" d="M769,1664C344.848,1664,1,1320.179,1,896c0-424.152,343.848-768,768-768
			c424.179,0,768,343.848,768,768C1537,1320.179,1193.179,1664,769,1664z M924.143,1051.143
			c-96.964,96.965-581.839,271.554-581.839,271.554s174.562-484.875,271.527-581.839c96.991-96.991,581.866-271.553,581.866-271.553
			S1021.107,954.179,924.143,1051.143z M769,1554.286c363.536,0,658.286-294.75,658.286-658.286
			c0-363.562-294.75-658.286-658.286-658.286c-363.562,0-658.286,294.723-658.286,658.286
			C110.714,1259.536,405.438,1554.286,769,1554.286z M691.429,973.571c42.83,42.857,112.285,42.857,155.143,0
			s42.857-112.312,0-155.143c-42.857-42.857-112.312-42.857-155.143,0C648.571,861.259,648.571,930.714,691.429,973.571z"/>
	</g>
</g>
</svg>
