<?xml version="1.0" encoding="utf-8"?>
<!-- Generator: Adobe Illustrator 15.0.0, SVG Export Plug-In . SVG Version: 6.00 Build 0)  -->
<!DOCTYPE svg PUBLIC "-//W3C//DTD SVG 1.1//EN" "http://www.w3.org/Graphics/SVG/1.1/DTD/svg11.dtd">
<svg version="1.1" id="Layer_1" xmlns="http://www.w3.org/2000/svg" xmlns:xlink="http://www.w3.org/1999/xlink" x="0px" y="0px"
	 width="1024px" height="1024px" viewBox="0 0 1024 1024" enable-background="new 0 0 1024 1024" xml:space="preserve">
<path d="M512,149v726c-100,0-190-41-256-107S149,612,149,512s41-191,107-257S412,149,512,149z M512,0C371,0,242,57,150,149
	C57,242,0,371,0,512s57,270,150,362c92,93,221,150,362,150s270-57,363-150c92-92,149-221,149-362s-57-270-149-363
	C782,57,653,0,512,0z"/>
</svg>
