<?xml version="1.0" encoding="utf-8"?>
<!-- Generator: Adobe Illustrator 15.0.0, SVG Export Plug-In . SVG Version: 6.00 Build 0)  -->
<!DOCTYPE svg PUBLIC "-//W3C//DTD SVG 1.1//EN" "http://www.w3.org/Graphics/SVG/1.1/DTD/svg11.dtd">
<svg version="1.1" id="Layer_1" xmlns="http://www.w3.org/2000/svg" xmlns:xlink="http://www.w3.org/1999/xlink" x="0px" y="0px"
	 width="1024px" height="1024px" viewBox="0 0 1024 1024" enable-background="new 0 0 1024 1024" xml:space="preserve">
<path d="M448,448h512v288c1,1-1,7-4,16s-13,15-28,16H96c-15-1-25-7-28-16s-5-15-4-16V448h64l128-128H64v-32c-1-1,1-7,4-16
	s13-15,28-16h832c15,1,25,7,28,16s5,15,4,16v32H576L448,448z M960,192c-49,0-199,0-448,0H64c-33,1-63,31-64,64v512c1,33,31,63,64,64
	h896c33-1,63-31,64-64V256C1023,223,993,193,960,192z M448,512v64h192v-64H448z M384,320L256,448h64l128-128H384z M384,576v-64H128
	v64H384z M320,640v64h128v-64H320z M128,640v64h128v-64H128z"/>
</svg>
