<?xml version="1.0" encoding="utf-8"?>
<!-- Generator: Adobe Illustrator 15.0.0, SVG Export Plug-In . SVG Version: 6.00 Build 0)  -->
<!DOCTYPE svg PUBLIC "-//W3C//DTD SVG 1.1//EN" "http://www.w3.org/Graphics/SVG/1.1/DTD/svg11.dtd">
<svg version="1.1" id="Layer_1" xmlns="http://www.w3.org/2000/svg" xmlns:xlink="http://www.w3.org/1999/xlink" x="0px" y="0px"
	 width="1024px" height="1024px" viewBox="0 0 1024 1024" enable-background="new 0 0 1024 1024" xml:space="preserve">
<path d="M786,438c-9,9-13,19-13,31c0,24,20,44,44,44s43-20,43-44s-19-43-43-43C806,426,795,430,786,438z M179,438c-9,9-13,19-13,31
	c0,24,19,44,43,44s44-20,44-44s-20-43-44-43C197,426,187,430,179,438z M432,607c0,44,36,80,80,80s80-36,80-80c0-16-5-32-15-47
	l60-197c4-13-11-20-20-9L499,528C460,535,432,567,432,607z M743,308c-9,9-13,19-13,31c0,24,19,44,43,44s44-20,44-44s-20-43-44-43
	C761,296,751,300,743,308z M222,308c-9,9-13,19-13,31c0,24,20,44,44,44s43-20,43-44s-19-43-43-43C242,296,231,300,222,308z M612,222
	c-9,9-13,19-13,31c0,24,20,43,44,43s44-19,44-43s-20-44-44-44C631,209,621,213,612,222z M339,253c0,23,23,43,44,43c24,0,43-19,43-43
	s-19-44-43-44S339,229,339,253z M482,178c-9,9-13,19-13,31s5,22,14,30c8,9,18,14,30,14c24,0,43-20,43-44s-19-43-43-43
	C502,166,491,170,482,178z M143,666c-21-51-32-102-32-154c0-104,45-211,118-284s179-117,283-117c105,0,211,44,284,117
	s117,179,117,284c0,104-44,210-117,283S616,913,512,913c-53,0-104-11-154-32C257,838,185,766,143,666z M0,512c0,95,23,181,70,258
	c92,157,259,254,442,254c92,0,178-23,259-70c156-93,253-261,253-442S927,161,768,69C689,23,603,0,512,0C331,0,163,97,70,253
	C23,334,0,420,0,512z"/>
</svg>
