<?xml version="1.0" encoding="utf-8"?>
<!-- Generator: Adobe Illustrator 15.0.0, SVG Export Plug-In . SVG Version: 6.00 Build 0)  -->
<!DOCTYPE svg PUBLIC "-//W3C//DTD SVG 1.1//EN" "http://www.w3.org/Graphics/SVG/1.1/DTD/svg11.dtd">
<svg version="1.1" id="Layer_1" xmlns="http://www.w3.org/2000/svg" xmlns:xlink="http://www.w3.org/1999/xlink" x="0px" y="0px"
	 width="832px" height="1024px" viewBox="0 0 832 1024" enable-background="new 0 0 832 1024" xml:space="preserve">
<path d="M793,337.957l-69,90c8,27,12,55,12,85c-4,180.999-139,315.999-320,319.999c-181-4-316-139-320-319.999
	c4-181,139-316,320-320c67,0,127,19,178,54l79-61c-71-56-160-89-257-89c-236,5-411,180-416,416c5,235.999,180,410.999,416,415.999
	c236-5,411-180,416-415.999C831,449.957,818,390.957,793,337.957z M576,288.957c0-19-14-32-32-32s-32,13-32,31s14,33,32,33
	S576,305.957,576,288.957z M128,512.957c0,17,14,32,32,32s32-15,32-33s-14-31-32-31S128,493.957,128,512.957z M224,384.957
	c0-19-14-32-32-32s-32,13-32,31s14,33,32,33S224,401.957,224,384.957z M288,256.957c-19,0-32,13-32,31s14,33,32,33s32-15,32-33
	S305,256.957,288,256.957z M640,512.957c0,17,14,32,32,32s32-15,32-33s-14-31-32-31S640,493.957,640,512.957z M448,256.957
	c0-19-14-32-32-32s-32,13-32,31s14,33,32,33S448,273.957,448,256.957z M416,464.957c-63,3-110,49-111,111.999c1,63,48,110,111,111
	c63-1,109-48,112-111c-1-9-2-17-3-24.999c85-100,203-238,275-327c21-31,0-55-32-32c-45,37-98,81-160,133l-167,143
	C433,466.957,425,465.957,416,464.957z"/>
</svg>
