<?xml version="1.0" encoding="utf-8"?>
<!-- Generator: Adobe Illustrator 15.0.0, SVG Export Plug-In . SVG Version: 6.00 Build 0)  -->
<!DOCTYPE svg PUBLIC "-//W3C//DTD SVG 1.1//EN" "http://www.w3.org/Graphics/SVG/1.1/DTD/svg11.dtd">
<svg version="1.1" id="Layer_1" xmlns="http://www.w3.org/2000/svg" xmlns:xlink="http://www.w3.org/1999/xlink" x="0px" y="0px"
	 width="768px" height="1024px" viewBox="0 0 768 1024" enable-background="new 0 0 768 1024" xml:space="preserve">
<path d="M384,128.605c-73,1-133,7-181,19s-73,27-75,45c2,18,27,33,75,45s108,18,181,18s133-6,181-18s73-27,75-45c-2-18-27-33-75-45
	S457,129.605,384,128.605z M384,448.605c-109-1-199-13-271-38c-73-24-110-54-113-90v-128c3-36,40-66,113-91c72-24,162-36,271-37
	c109,1,199,13,272,37c72,25,109,55,112,91v128c-3,36-40,66-112,90C583,435.605,493,447.605,384,448.605z M384,704.605
	c-109-1-199-13-271-38c-73-24-110-54-113-90v-128c0-7,2-13,6-20c2-4,5-8,8-12c45,56,189,95,370,95s325-39,370-95c3,4,6,8,8,12
	c4,7,6,13,6,20v128c-3,36-40,66-112,90C583,691.605,493,703.605,384,704.605z M384,960.605c-109-1-199-13-271-38
	c-73-24-110-54-113-90v-128c1-11,5-22,14-32c45,56,189,95,370,95s325-39,370-95c9,10,13,21,14,32v128c-3,36-40,66-112,90
	C583,947.605,493,959.605,384,960.605z"/>
</svg>
