<?xml version="1.0" encoding="utf-8"?>
<!-- Generator: Adobe Illustrator 15.0.0, SVG Export Plug-In . SVG Version: 6.00 Build 0)  -->
<!DOCTYPE svg PUBLIC "-//W3C//DTD SVG 1.1//EN" "http://www.w3.org/Graphics/SVG/1.1/DTD/svg11.dtd">
<svg version="1.1" id="Layer_1" xmlns="http://www.w3.org/2000/svg" xmlns:xlink="http://www.w3.org/1999/xlink" x="0px" y="0px"
	 width="1024px" height="1024px" viewBox="0 0 1024 1024" enable-background="new 0 0 1024 1024" xml:space="preserve">
<path d="M896,640V192H704c-190,39-330,100-419,184c-90,85-142,151-157,200v64H896z M960,128v576H64V128H960z M960,64
	c-49,0-199,0-448,0H64C31,65,1,95,0,128v576c1,33,31,63,64,64h320c-16,3-176,61-192,128c1,33,31,63,64,64h512c33-1,63-31,64-64
	c-16-67-176-125-192-128h320c33-1,63-31,64-64V128C1023,95,993,65,960,64z"/>
</svg>
