<?xml version="1.0" encoding="utf-8"?>
<!-- Generator: Adobe Illustrator 15.0.0, SVG Export Plug-In . SVG Version: 6.00 Build 0)  -->
<!DOCTYPE svg PUBLIC "-//W3C//DTD SVG 1.1//EN" "http://www.w3.org/Graphics/SVG/1.1/DTD/svg11.dtd">
<svg version="1.1" id="Layer_1" xmlns="http://www.w3.org/2000/svg" xmlns:xlink="http://www.w3.org/1999/xlink" x="0px" y="0px"
	 width="640px" height="1024px" viewBox="0 0 640 1024" enable-background="new 0 0 640 1024" xml:space="preserve">
<path d="M576,192v640H64V192H576z M352,960h-64c-19,0-32-13-32-32s13-32,32-32h64c19,0,32,13,32,32S371,960,352,960z M288,64h64
	c19,0,32,13,32,32s-13,32-32,32h-64c-19,0-32-13-32-32S269,64,288,64z M576,0H64C28,1,1,28,0,64v896c1,36,28,63,64,64h512
	c36-1,63-28,64-64V64C639,28,612,1,576,0z"/>
</svg>
