<?xml version="1.0" encoding="utf-8"?>
<!-- Generator: Adobe Illustrator 15.0.0, SVG Export Plug-In . SVG Version: 6.00 Build 0)  -->
<!DOCTYPE svg PUBLIC "-//W3C//DTD SVG 1.1//EN" "http://www.w3.org/Graphics/SVG/1.1/DTD/svg11.dtd">
<svg version="1.1" id="Layer_1" xmlns="http://www.w3.org/2000/svg" xmlns:xlink="http://www.w3.org/1999/xlink" x="0px" y="0px"
	 width="1024px" height="1024px" viewBox="0 0 1024 1024" enable-background="new 0 0 1024 1024" xml:space="preserve">
<path d="M515,341c-56,0-107,23-143,59c-37,37-60,88-60,144s23,107,60,143c36,37,87,60,143,60s107-23,144-60c36-36,59-87,59-143
	s-23-107-59-144C622,364,571,341,515,341z M852,318h145v85H852V318z M515,256c79,0,151,32,203,84s85,124,85,204c0,79-33,151-85,203
	s-124,85-203,85c-80,0-152-33-204-85s-84-124-84-203c0-80,32-152,84-204S435,256,515,256z M333,126l-32,130H0v642h1024V256H737
	l-32-130H333z"/>
</svg>
