<?xml version="1.0" encoding="utf-8"?>
<!-- Generator: Adobe Illustrator 15.0.0, SVG Export Plug-In . SVG Version: 6.00 Build 0)  -->
<!DOCTYPE svg PUBLIC "-//W3C//DTD SVG 1.1//EN" "http://www.w3.org/Graphics/SVG/1.1/DTD/svg11.dtd">
<svg version="1.1" id="Layer_1" xmlns="http://www.w3.org/2000/svg" xmlns:xlink="http://www.w3.org/1999/xlink" x="0px" y="0px"
	 width="640px" height="1024px" viewBox="0 0 640 1024" enable-background="new 0 0 640 1024" xml:space="preserve">
<path d="M207.5,623.5c17.673,0,32-14.327,32-32s-14.327-32-32-32s-32,14.327-32,32S189.827,623.5,207.5,623.5z M207.5,671.5
	c-44.183,0-80-35.816-80-80s35.817-80,80-80s80,35.816,80,80S251.683,671.5,207.5,671.5z M-0.5,63.5v896h640v-896H-0.5z
	 M127.5,191.5h384v256h-384V191.5z M191.5,255.5v128h256v-128H191.5z"/>
</svg>
