<?xml version="1.0" encoding="utf-8"?>
<!-- Generator: Adobe Illustrator 15.0.0, SVG Export Plug-In . SVG Version: 6.00 Build 0)  -->
<!DOCTYPE svg PUBLIC "-//W3C//DTD SVG 1.1//EN" "http://www.w3.org/Graphics/SVG/1.1/DTD/svg11.dtd">
<svg version="1.1" id="Layer_1" xmlns="http://www.w3.org/2000/svg" xmlns:xlink="http://www.w3.org/1999/xlink" x="0px" y="0px"
	 width="512px" height="1024px" viewBox="0 0 512 1024" enable-background="new 0 0 512 1024" xml:space="preserve">
<path d="M448,576c35.347,0,64-28.653,64-64s-28.653-64-64-64s-64,28.653-64,64S412.653,576,448,576z M256,576
	c35.348,0,64-28.653,64-64s-28.652-64-64-64c-35.347,0-64,28.653-64,64S220.653,576,256,576z M64,576c35.347,0,64-28.653,64-64
	s-28.653-64-64-64S0,476.653,0,512S28.653,576,64,576z"/>
</svg>
