<?xml version="1.0" encoding="utf-8"?>
<!-- Generator: Adobe Illustrator 15.0.0, SVG Export Plug-In . SVG Version: 6.00 Build 0)  -->
<!DOCTYPE svg PUBLIC "-//W3C//DTD SVG 1.1//EN" "http://www.w3.org/Graphics/SVG/1.1/DTD/svg11.dtd">
<svg version="1.1" id="Layer_1" xmlns="http://www.w3.org/2000/svg" xmlns:xlink="http://www.w3.org/1999/xlink" x="0px" y="0px"
	 width="1024px" height="1024px" viewBox="0 0 1024 1024" enable-background="new 0 0 1024 1024" xml:space="preserve">
<path d="M73,512c57-89,129-156,217-202c-23,39-34,82-34,129c0,141,115,256,256,256s256-115,256-256c0-45-12-88-35-129
	c88,46,160,113,217,202C846,673,684,768,512,768C339,768,178,673,73,512z M338,439c0-96,78-174,174-174c15,0,27,12,27,28
	c0,15-12,27-27,27c-67,0-119,52-119,119c0,15-12,27-28,27C350,466,338,454,338,439z M11,473c-7,13-11,26-11,39s4,26,11,39
	c108,177,302,290,501,290s392-113,500-290c8-13,12-26,12-39s-4-26-12-39C904,296,711,183,512,183S119,296,11,473z"/>
</svg>
