<?xml version="1.0" encoding="utf-8"?>
<!-- Generator: Adobe Illustrator 15.0.0, SVG Export Plug-In . SVG Version: 6.00 Build 0)  -->
<!DOCTYPE svg PUBLIC "-//W3C//DTD SVG 1.1//EN" "http://www.w3.org/Graphics/SVG/1.1/DTD/svg11.dtd">
<svg version="1.1" id="Layer_1" xmlns="http://www.w3.org/2000/svg" xmlns:xlink="http://www.w3.org/1999/xlink" x="0px" y="0px"
	 width="1024px" height="1024px" viewBox="0 0 1024 1024" enable-background="new 0 0 1024 1024" xml:space="preserve">
<path d="M338,519.5c0-96,79-174,174-174c15,0,27,12,27,27c0,16-11,28-27,28c-67,0-119,54-119,119c0,15-12,27-27,27
	C350,546.5,338,534.5,338,519.5z M0,592.5c0,13,4,26,11,39c108,176,302,290,501,290c200,0,393-113,501-290c7-13,11-26,11-39
	c0-21-12-47-36-77l-58,47c3,3,10,13,21,30c-104,160-267,256-439,256s-335-96-439-256c57-90,130-157,218-202c-23,39-35,82-35,129
	c0,141,115,256,256,256c140,0,248-111,248-254l-65,64l-177-176l110-110l-27-28c-31-5-60-8-89-8c-199,0-393,113-501,289
	C4,565.5,0,579.5,0,592.5z M736,486.5l-96-96l96-96l-96-96l96-96l96,96l96-96l96,96l-96,96l96,96l-96,96l-96-96L736,486.5z"/>
</svg>
