<?xml version="1.0" encoding="utf-8"?>
<!-- Generator: Adobe Illustrator 15.0.0, SVG Export Plug-In . SVG Version: 6.00 Build 0)  -->
<!DOCTYPE svg PUBLIC "-//W3C//DTD SVG 1.1//EN" "http://www.w3.org/Graphics/SVG/1.1/DTD/svg11.dtd">
<svg version="1.1" id="Layer_1" xmlns="http://www.w3.org/2000/svg" xmlns:xlink="http://www.w3.org/1999/xlink" x="0px" y="0px"
	 width="1024px" height="1024px" viewBox="0 0 1024 1024" enable-background="new 0 0 1024 1024" xml:space="preserve">
<path d="M763,390.5l-160,287c99-39,165-134,165-239C768,429.5,766,413.5,763,390.5z M73,511.5c59-91,132-158,218-201
	c-23,39-35,82-35,128c0,83,39,159,106,207l-45,81C218,681.5,136,609.5,73,511.5z M554,765.5l-42,76c167,0,322-74,438-207
	c31-37,52-64,63-83c7-13,11-27,11-40s-4-26-11-39c-45-74-107-138-187-193l-36,64c63,45,117,101,161,168
	C858,659.5,713,752.5,554,765.5z M338,438.5c0-95,79-173,174-173c15,0,27,12,27,27c0,16-11,27-27,27c-65,0-119,54-119,119
	c0,16-12,28-27,28C350,466.5,338,454.5,338,438.5z M0,511.5c0,13,4,27,11,40c69,109,159,188,270,239c-17,29-25,45-25,50
	c0,7,3,12,9,16c47,27,72,40,77,40c7,0,12-3,16-10l28-50l180-325c102-185,162-292,180-323c1-1,1-2,1-5c0-7-5-14-14-19c-3-1-5-2-6-3
	l-8-6l-10-5c-10-7-22-13-37-19c-1-1-3-2-5-2l-3-2h-2c-7,0-12,3-16,10l-31,55c-35-7-70-10-103-10c-199,0-381,106-501,290
	C4,485.5,0,498.5,0,511.5z"/>
</svg>
