<?xml version="1.0" encoding="utf-8"?>
<!-- Generator: Adobe Illustrator 15.0.0, SVG Export Plug-In . SVG Version: 6.00 Build 0)  -->
<!DOCTYPE svg PUBLIC "-//W3C//DTD SVG 1.1//EN" "http://www.w3.org/Graphics/SVG/1.1/DTD/svg11.dtd">
<svg version="1.1" id="Layer_1" xmlns="http://www.w3.org/2000/svg" xmlns:xlink="http://www.w3.org/1999/xlink" x="0px" y="0px"
	 width="1024px" height="1024px" viewBox="0 0 1024 1024" enable-background="new 0 0 1024 1024" xml:space="preserve">
<path d="M0,576c0,10,4,23,11,40c108,176,302,289,501,289s393-113,501-289c7-17,11-30,11-40c0-13-4-26-11-39c-19-30-36-54-52-72
	l-10,1v147h-26C824,754,679,832,512,832c-172,0-335-96-439-256c57-90,130-157,218-202c-23,39-35,82-35,129c0,141,115,256,256,256
	c102,0,179-49,231-146h-85V466H512v-82c-67,0-119,52-119,119c0,15-12,27-27,27c-16,0-28-12-28-27c0-95,79-174,174-174v-82
	c-199,0-393,113-501,290C4,550,0,563,0,576z M768,375H640V247h128V119h128v128h128v128H896v128H768V375z"/>
</svg>
