<?xml version="1.0" encoding="utf-8"?>
<!-- Generator: Adobe Illustrator 15.0.0, SVG Export Plug-In . SVG Version: 6.00 Build 0)  -->
<!DOCTYPE svg PUBLIC "-//W3C//DTD SVG 1.1//EN" "http://www.w3.org/Graphics/SVG/1.1/DTD/svg11.dtd">
<svg version="1.1" id="Layer_1" xmlns="http://www.w3.org/2000/svg" xmlns:xlink="http://www.w3.org/1999/xlink" x="0px" y="0px"
	 width="1024px" height="1024px" viewBox="0 0 1024 1024" enable-background="new 0 0 1024 1024" xml:space="preserve">
<path d="M576,352v320.001l224-160L576,352z M320,352v320.001l224-160L320,352z M96,512c0,116,41,214,122,294c80,81,178,122,294,122
	c231,0,416-185,416-416S743,96,512,96S96,281,96,512z M40,710.001c-27-61-40-127-40-198c0-142,50-263,150-363C245,54,375,0,512,0
	c136,0,267,54,363,149c95,96,149,227,149,363c0,137-54,267-149,362c-100,100-221,150-363,150c-139,0-267-54-362-150
	C102,827.001,65,772.001,40,710.001z"/>
</svg>
