<?xml version="1.0" encoding="utf-8"?>
<!-- Generator: Adobe Illustrator 15.0.0, SVG Export Plug-In . SVG Version: 6.00 Build 0)  -->
<!DOCTYPE svg PUBLIC "-//W3C//DTD SVG 1.1//EN" "http://www.w3.org/Graphics/SVG/1.1/DTD/svg11.dtd">
<svg version="1.1" id="Layer_1" xmlns="http://www.w3.org/2000/svg" xmlns:xlink="http://www.w3.org/1999/xlink" x="0px" y="0px"
	 width="896px" height="1024px" viewBox="0 0 896 1024" enable-background="new 0 0 896 1024" xml:space="preserve">
<path d="M128,768v64h192v-64H128z M128,640v64h192v-64H128z M383,673c0,88,72,160,160,160c79,0,141-52,157-128H511V516
	C435,532,383,594,383,673z M128,512v64h192v-64H128z M575,452v189h189l2-8c0-4,0-7,1-9v-15c0-88-72-160-160-160h-16L575,452z M64,64
	v896h768V320L640,64H64z M896,1024H0V0h672l224,288V1024z"/>
</svg>
