<?xml version="1.0" encoding="utf-8"?>
<!-- Generator: Adobe Illustrator 15.0.0, SVG Export Plug-In . SVG Version: 6.00 Build 0)  -->
<!DOCTYPE svg PUBLIC "-//W3C//DTD SVG 1.1//EN" "http://www.w3.org/Graphics/SVG/1.1/DTD/svg11.dtd">
<svg version="1.1" id="Layer_1" xmlns="http://www.w3.org/2000/svg" xmlns:xlink="http://www.w3.org/1999/xlink" x="0px" y="0px"
	 width="768px" height="1024px" viewBox="0 0 768 1024" enable-background="new 0 0 768 1024" xml:space="preserve">
<path d="M768,256L576,64H0v896h768V256z M704,320v576H64V128h448L704,320z M190,766v66h203v-66h-57V662h85c63,0,107-10,140-63
	c16-27,24-57,24-91c0-67-33-119-85-142c-20-8-47-11-81-11H190v66h57v345H190z M410,592h-74V425h74c43,0,87,15,87,83
	C497,582,449,592,410,592z"/>
</svg>
