<?xml version="1.0" encoding="utf-8"?>
<!-- Generator: Adobe Illustrator 15.0.0, SVG Export Plug-In . SVG Version: 6.00 Build 0)  -->
<!DOCTYPE svg PUBLIC "-//W3C//DTD SVG 1.1//EN" "http://www.w3.org/Graphics/SVG/1.1/DTD/svg11.dtd">
<svg version="1.1" id="Layer_1" xmlns="http://www.w3.org/2000/svg" xmlns:xlink="http://www.w3.org/1999/xlink" x="0px" y="0px"
	 width="768px" height="1024px" viewBox="0 0 768 1024" enable-background="new 0 0 768 1024" xml:space="preserve">
<path d="M704,320v576H64V128h448L704,320z M768,256L576,64H0v896h768V256z M129,604v-58h32c17,0,32-12,32-28v-86
	c0-64,59-114,128-114v57c-19,0-34,6-45,17c-13,9-19,22-19,40v114c0,16-15,29-32,29c17,0,32,13,32,29v114c0,18,6,31,19,40
	c11,11,26,17,45,17v57c-35,0-65-11-90-34c-25-21-38-48-38-80v-86c0-16-15-28-32-28H129z M449,832v-57c19,0,34-6,45-17
	c13-9,19-22,19-40V604c0-16,16-29,32-29c-16,0-32-13-32-29V432c0-19-13-38-22-43c-16-9-30-14-42-14v-57c33,0,64,11,91,33
	c25,23,37,50,37,81v86c0,16,16,28,32,28h32v58h-32c-16,0-32,12-32,28v86C577,782,518,832,449,832z"/>
</svg>
