<?xml version="1.0" encoding="utf-8"?>
<!-- Generator: Adobe Illustrator 15.0.0, SVG Export Plug-In . SVG Version: 6.00 Build 0)  -->
<!DOCTYPE svg PUBLIC "-//W3C//DTD SVG 1.1//EN" "http://www.w3.org/Graphics/SVG/1.1/DTD/svg11.dtd">
<svg version="1.1" id="Layer_1" xmlns="http://www.w3.org/2000/svg" xmlns:xlink="http://www.w3.org/1999/xlink" x="0px" y="0px"
	 width="896px" height="1024px" viewBox="0 0 896 1024" enable-background="new 0 0 896 1024" xml:space="preserve">
<path d="M148,814c11-6,24-17,40-33c18-20,38-47,59-81l-4,4l-9,8c-1,1-2,2-3,2C187,751,159,785,148,814z M704,606h-37l-24,2
	c45,20,77,30,98,30c10,0,18-1,24-4l2-4c0-5-3-9-8-12c-9-6-24-10-43-11C711,606,707,606,704,606z M357,598l-15,26l-7,13
	c51-19,111-36,179-49l-3-3l-3-2l-4-4l-3-2c-39-35-67-70-85-106l-5,12c-1,1-1,3-2,6s-2,5-3,6c-16,36-24,54-25,55l-17,34
	C361,589,359,593,357,598z M409,240v8c0,35,4,65,11,89c21-31,21-96,10-117c-5-13-11-20-16-20c-1,0-2,2-3,7c0,9-1,20-1,26
	C409,236,409,239,409,240z M106,811c0-5,0-7,1-8c9-35,37-64,105-108c5-2,8-4,9-5l24-13l5-2l18-9c3-3,7-9,10-17c1-3,2-5,3-6l13-25
	c14-25,24-44,29-55l3-5c5-9,10-19,15-30c0-1,1-2,2-3c3-5,5-9,6-11l8-17c1-1,2-5,5-11c3-5,6-13,10-23c4-9,8-19,13-29l6-16
	c-20-85-30-143-30-174c0-32,7-52,20-59c7-5,15-7,26-7h11c17,0,29,9,36,27l2,5c0,1,0,2,1,3l1,2v7c4,13,0,56-7,106c-3,25-5,38-5,39
	l-3,20c-1,1-2,3-2,6l-2,8c25,63,53,105,81,131c13,13,33,28,60,44c33-5,69-8,108-8c49,3,79,10,90,21l4,4c1,3,2,4,3,5c3,3,4,10,4,23
	c0,7,0,12-1,13c-1,8-3,16-8,24l-4,4c-3,3-4,4-5,4l-12,6h-4c-4,1-8,2-11,2h-6c-45,0-119-23-178-56c-71,8-153,27-245,58
	c-33,59-63,102-88,129s-49,41-70,41c-3,0-7-1-12-2c-3,0-4,0-5-1s-2-1-3-1s-2,0-3-1l-17-9c-3-1-5-3-6-6C108,823,106,818,106,811z
	 M64,64v896h768V320L640,64H64z M896,1024H0V0h672l224,288V1024z"/>
</svg>
