<?xml version="1.0" encoding="utf-8"?>
<!-- Generator: Adobe Illustrator 16.0.0, SVG Export Plug-In . SVG Version: 6.00 Build 0)  -->
<!DOCTYPE svg PUBLIC "-//W3C//DTD SVG 1.1//EN" "http://www.w3.org/Graphics/SVG/1.1/DTD/svg11.dtd">
<svg version="1.1" id="Layer_1" xmlns="http://www.w3.org/2000/svg" xmlns:xlink="http://www.w3.org/1999/xlink" x="0px" y="0px"
	 width="1536px" height="1792px" viewBox="0 0 1536 1792" enable-background="new 0 0 1536 1792" xml:space="preserve">
<path d="M1234,1028c0-8-3-16-9-22L969,750c-6-6-14-10-23-10c-17,0-32,15-32,32v128H802c-164,0-368,29-437,202c-21,53-27,110-27,166
	c0,70,35,162,64,226c5,11,11,27,18,38c4,5,7,8,14,8c10,0,16-8,16-17c0-8-2-17-2-25c-2-21-3-41-3-62c0-238,142-280,357-280h112v128
	c0,18,15,32,32,32c9,0,17-3,23-9l256-256C1231,1045,1234,1037,1234,1028z M1408,640v1024H128V128h768v416c0,53,43,96,96,96H1408z
	 M1024,512V136c17,6,34,15,41,22l313,313c7,7,16,24,22,41H1024z M1468,380L1156,68c-37-37-111-68-164-68H96C43,0,0,43,0,96v1600
	c0,53,43,96,96,96h1344c53,0,96-43,96-96V544C1536,491,1505,417,1468,380z"/>
</svg>
