<?xml version="1.0" encoding="utf-8"?>
<!-- Generator: Adobe Illustrator 15.0.0, SVG Export Plug-In . SVG Version: 6.00 Build 0)  -->
<!DOCTYPE svg PUBLIC "-//W3C//DTD SVG 1.1//EN" "http://www.w3.org/Graphics/SVG/1.1/DTD/svg11.dtd">
<svg version="1.1" id="Layer_1" xmlns="http://www.w3.org/2000/svg" xmlns:xlink="http://www.w3.org/1999/xlink" x="0px" y="0px"
	 width="896px" height="1024px" viewBox="0 0 896 1024" enable-background="new 0 0 896 1024" xml:space="preserve">
<path d="M896,1024H0V0h672l224,288V1024z M64,64v896h768V320L640,64H64z M613,763.216c-15,18-13,45,5,58c8,7,17,10,26,10
	c14,0,24-5,32-15c56-69,84-147,84-234c0-88-28-166-84-234c-13-18-40-22-58-7s-20,41-5,59c43,53,64,113,64,182
	C677,650.216,656,711.216,613,763.216z M479,666.216c-17,17-15,43,1,59c8,7,18,11,28,11c12,0,22-5,30-13c38-40,57-87,57-141
	c0-55-19-102-57-142c-15-16-42-17-58-2c-16,16-18,42-1,59c22,25,33,53,33,85C512,613.216,501,642.216,479,666.216z M141,643.216
	v-123c0-13,8-21,20-21h85l107-108c13-12,35-3,35,15v351c0,10-4,16-13,19c-3,1-5,2-7,2c-6,0-11-2-15-6l-107-108h-85
	C149,664.216,141,656.216,141,643.216z"/>
</svg>
