<?xml version="1.0" encoding="utf-8"?>
<!-- Generator: Adobe Illustrator 16.0.0, SVG Export Plug-In . SVG Version: 6.00 Build 0)  -->
<!DOCTYPE svg PUBLIC "-//W3C//DTD SVG 1.1//EN" "http://www.w3.org/Graphics/SVG/1.1/DTD/svg11.dtd">
<svg version="1.1" id="Layer_1" xmlns="http://www.w3.org/2000/svg" xmlns:xlink="http://www.w3.org/1999/xlink" x="0px" y="0px"
	 width="1664px" height="1792px" viewBox="0 0 1664 1792" enable-background="new 0 0 1664 1792" xml:space="preserve">
<path d="M256,1280v128h128v-128H256z M256,1024v128h128v-128H256z M256,768v128h128V768H256z M1408,1024H768v128h640V1024z
	 M1408,768H768v128h640V768z M768,512v128h640V512H768z M1536,384v1024H640V128h640L1536,384z M1152,1536h512V256L1408,0H512v1536
	h512v128H128V384h256V256H0v1536h1152V1536z"/>
</svg>
