<?xml version="1.0" encoding="utf-8"?>
<!-- Generator: Adobe Illustrator 15.0.0, SVG Export Plug-In . SVG Version: 6.00 Build 0)  -->
<!DOCTYPE svg PUBLIC "-//W3C//DTD SVG 1.1//EN" "http://www.w3.org/Graphics/SVG/1.1/DTD/svg11.dtd">
<svg version="1.1" id="Layer_1" xmlns="http://www.w3.org/2000/svg" xmlns:xlink="http://www.w3.org/1999/xlink" x="0px" y="0px"
	 width="768px" height="1024px" viewBox="0 0 768 1024" enable-background="new 0 0 768 1024" xml:space="preserve">
<path d="M426,322L247,456h-90v180h90l179,134h45V322H426z M561,419c-5-4-10-6-15-6c-12,0-23,10-23,22c0,6,2,11,7,16
	c25,27,39,59,39,95s-14,68-39,95c-5,5-7,10-7,16c0,11,11,22,23,22c5,0,10-2,15-6c35-37,53-79,53-127S596,456,561,419z M704,320v576
	H64V128h448L704,320z M768,256L576,64H0v896h768V256z"/>
</svg>
