<?xml version="1.0" encoding="utf-8"?>
<!-- Generator: Adobe Illustrator 15.0.0, SVG Export Plug-In . SVG Version: 6.00 Build 0)  -->
<!DOCTYPE svg PUBLIC "-//W3C//DTD SVG 1.1//EN" "http://www.w3.org/Graphics/SVG/1.1/DTD/svg11.dtd">
<svg version="1.1" id="Layer_1" xmlns="http://www.w3.org/2000/svg" xmlns:xlink="http://www.w3.org/1999/xlink" x="0px" y="0px"
	 width="896px" height="1024px" viewBox="0 0 896 1024" enable-background="new 0 0 896 1024" xml:space="preserve">
<path d="M117,355v66h44l102,411h98l80-302c3-8,5-18,6-28c1-7,2-12,2-15h2l2,15c1,1,1,5,2,12s2,13,4,16l79,302h99l102-411h43v-66H596
	v66h56l-62,272c-2,8-3,18-4,29l-1,13h-3l-2-13c0-2-1-6-2-13s-3-12-3-16l-90-338h-71l-89,338c-1,4-2,9-3,15c-1,7-2,12-2,14l-3,13h-2
	l-1-13c-1-11-3-21-5-29l-61-272h56v-66H117z M64,64v896h768V320L640,64H64z M896,1024H0V0h672l224,288V1024z"/>
</svg>
