<?xml version="1.0" encoding="utf-8"?>
<!-- Generator: Adobe Illustrator 15.0.0, SVG Export Plug-In . SVG Version: 6.00 Build 0)  -->
<!DOCTYPE svg PUBLIC "-//W3C//DTD SVG 1.1//EN" "http://www.w3.org/Graphics/SVG/1.1/DTD/svg11.dtd">
<svg version="1.1" id="Layer_1" xmlns="http://www.w3.org/2000/svg" xmlns:xlink="http://www.w3.org/1999/xlink" x="0px" y="0px"
	 width="896px" height="1024px" viewBox="0 0 896 1024" enable-background="new 0 0 896 1024" xml:space="preserve">
<path d="M288,704v64h128v-64H288z M352,576v-64h96v288c0,17-15,32-32,32H288c-16,0-32-16-32-32V576H352z M256,448v64h96v-64H256z
	 M352,384v64h96v-64H352z M256,320v64h96v-64H256z M352,256v64h96v-64H352z M256,192v64h96v-64H256z M352,128v64h96v-64H352z M64,64
	v896h768V320L640,64H64z M896,1024H0V0h672l224,288V1024z"/>
</svg>
