<?xml version="1.0" encoding="utf-8"?>
<!-- Generator: Adobe Illustrator 15.0.0, SVG Export Plug-In . SVG Version: 6.00 Build 0)  -->
<!DOCTYPE svg PUBLIC "-//W3C//DTD SVG 1.1//EN" "http://www.w3.org/Graphics/SVG/1.1/DTD/svg11.dtd">
<svg version="1.1" id="Layer_1" xmlns="http://www.w3.org/2000/svg" xmlns:xlink="http://www.w3.org/1999/xlink" x="0px" y="0px"
	 width="896px" height="1024px" viewBox="0 0 896 1024" enable-background="new 0 0 896 1024" xml:space="preserve">
<path d="M229,766v66h175v-66h-47l64-100c2-3,4-6,6-11c2-3,4-6,5-8c1-1,1-2,2-2h1c1,3,4,8,7,10c0,2,1,4,3,5c2,2,3,4,4,6l67,100h-48
	v66h181v-66h-42L488,596l121-175h42v-66H477v66h46l-64,99c-3,6-9,15-12,19l-1,1h-1c-1-1-2-3-3-6c-3-4-7-9-11-14l-66-99h47v-66H232
	v66h42l118,169L271,766H229z M64,64v896h768V320L640,64H64z M896,1024H0V0h672l224,288V1024z"/>
</svg>
