<?xml version="1.0" encoding="utf-8"?>
<!-- Generator: Adobe Illustrator 15.0.0, SVG Export Plug-In . SVG Version: 6.00 Build 0)  -->
<!DOCTYPE svg PUBLIC "-//W3C//DTD SVG 1.1//EN" "http://www.w3.org/Graphics/SVG/1.1/DTD/svg11.dtd">
<svg version="1.1" id="Layer_1" xmlns="http://www.w3.org/2000/svg" xmlns:xlink="http://www.w3.org/1999/xlink" x="0px" y="0px"
	 width="896px" height="1024px" viewBox="0 0 896 1024" enable-background="new 0 0 896 1024" xml:space="preserve">
<path d="M352,768h-64V640h64V768z M544,768h-64v64h192v-64h-64V576H480v64h64V768z M224,576v256h192V576H224z M608,448h-64V320h64
	V448z M480,256v256h192V256H480z M224,448v64h192v-64h-64V256H224v64h64v128H224z M64,64v896h768V320L640,64H64z M896,1024H0V0h672
	l224,288V1024z"/>
</svg>
