<?xml version="1.0" encoding="utf-8"?>
<!-- Generator: Adobe Illustrator 15.0.0, SVG Export Plug-In . SVG Version: 6.00 Build 0)  -->
<!DOCTYPE svg PUBLIC "-//W3C//DTD SVG 1.1//EN" "http://www.w3.org/Graphics/SVG/1.1/DTD/svg11.dtd">
<svg version="1.1" id="Layer_1" xmlns="http://www.w3.org/2000/svg" xmlns:xlink="http://www.w3.org/1999/xlink" x="0px" y="0px"
	 width="832px" height="1024px" viewBox="0 0 832 1024" enable-background="new 0 0 832 1024" xml:space="preserve">
<path d="M361.521,41c48,132,25,209-32,265c-32,31-68,61-109,91c-41,31-79,69-114,115c-100,140-94,385,217,472
	c-137-80-161-269-18-406c-35,128,28,203,119,176c87-25,140,29,139,102c0,48-21,88-69,112c207-44,294-202,293-342
	c-8-81-30-142-67-183c-37-40-41-94-10-161c-92,8-125,69-116,169c3,68-59,109-114,81c-21-13-31-30-31-51c0-20,9-39,27-58
	C561.521,342,574.521,178,361.521,41z"/>
</svg>
