<?xml version="1.0" encoding="utf-8"?>
<!-- Generator: Adobe Illustrator 15.0.0, SVG Export Plug-In . SVG Version: 6.00 Build 0)  -->
<!DOCTYPE svg PUBLIC "-//W3C//DTD SVG 1.1//EN" "http://www.w3.org/Graphics/SVG/1.1/DTD/svg11.dtd">
<svg version="1.1" id="Layer_1" xmlns="http://www.w3.org/2000/svg" xmlns:xlink="http://www.w3.org/1999/xlink" x="0px" y="0px"
	 width="896px" height="1024px" viewBox="0 0 896 1024" enable-background="new 0 0 896 1024" xml:space="preserve">
<path d="M97,316h702c19,0,33,14,33,33v479H64V349C64,330,78,316,97,316z M384,256H64v-32c0-17,16-32,32-32h256c15,0,32,15,32,32V256
	z M832,256H480c-16,0-32-16-32-32v-32c0-32-32-64-64-64H64c-32,0-64,32-64,64v704h896V320C896,288,864,256,832,256z M256,508h128
	V380h128v128h128v128H512v128H384V636H256V508z"/>
</svg>
