<?xml version="1.0" encoding="utf-8"?>
<!-- Generator: Adobe Illustrator 15.0.0, SVG Export Plug-In . SVG Version: 6.00 Build 0)  -->
<!DOCTYPE svg PUBLIC "-//W3C//DTD SVG 1.1//EN" "http://www.w3.org/Graphics/SVG/1.1/DTD/svg11.dtd">
<svg version="1.1" id="Layer_1" xmlns="http://www.w3.org/2000/svg" xmlns:xlink="http://www.w3.org/1999/xlink" x="0px" y="0px"
	 width="896px" height="1024px" viewBox="0 0 896 1024" enable-background="new 0 0 896 1024" xml:space="preserve">
<path d="M384,256H64c0,0,0-15,0-32s16-32,32-32s241,0,256,0s32,15,32,32S384,256,384,256z M832,256c-32,0-336,0-352,0s-32-16-32-32
	s0,0,0-32s-32-64-64-64s-288,0-320,0S0,160,0,192s0,704,0,704h896c0,0,0-544,0-576S864,256,832,256z M256,508h384v128H256V508z"/>
</svg>
