<?xml version="1.0" encoding="utf-8"?>
<!-- Generator: Adobe Illustrator 15.0.0, SVG Export Plug-In . SVG Version: 6.00 Build 0)  -->
<!DOCTYPE svg PUBLIC "-//W3C//DTD SVG 1.1//EN" "http://www.w3.org/Graphics/SVG/1.1/DTD/svg11.dtd">
<svg version="1.1" id="Layer_1" xmlns="http://www.w3.org/2000/svg" xmlns:xlink="http://www.w3.org/1999/xlink" x="0px" y="0px"
	 width="1024px" height="1024px" viewBox="0 0 1024 1024" enable-background="new 0 0 1024 1024" xml:space="preserve">
<path d="M64,321v510c0,19,14,33,33,33h830c19,0,33-14,33-33V321c0-19-14-33-33-33H97C78,288,64,302,64,321z M320,544v128h384V544
	H320z M64,224h448v-31c0-19-14-33-33-33H97c-19,0-33,14-33,33V224z M0,863V161c0-39,26-65,65-65h446c39,0,65,26,65,65v63h383
	c39,0,65,26,65,65v574c0,39-26,65-65,65H65C26,928,0,902,0,863z"/>
</svg>
