<?xml version="1.0" encoding="utf-8"?>
<!-- Generator: Adobe Illustrator 15.0.0, SVG Export Plug-In . SVG Version: 6.00 Build 0)  -->
<!DOCTYPE svg PUBLIC "-//W3C//DTD SVG 1.1//EN" "http://www.w3.org/Graphics/SVG/1.1/DTD/svg11.dtd">
<svg version="1.1" id="Layer_1" xmlns="http://www.w3.org/2000/svg" xmlns:xlink="http://www.w3.org/1999/xlink" x="0px" y="0px"
	 width="896px" height="1024px" viewBox="0 0 896 1024" enable-background="new 0 0 896 1024" xml:space="preserve">
<path d="M384,288H64c0,0,0-16,0-32s16-32,32-32s240,0,256,0s32,17,32,32S384,288,384,288z M832,288c-32,0-336,0-352,0s-32-17-32-32
	s0,0,0-32s-32-64-64-64s-288,0-320,0S0,192,0,224s0,640,0,640h320c0,0,0-352,0-384s32-64,64-64s224,0,256,0s64,32,64,64h192
	c0,0,0-96,0-128S864,288,832,288z M576,608H448c0,0,0-17,0-32s15-32,32-32s48,0,64,0s32,15,32,32S576,608,576,608z M832,544
	c-32,0-192,0-192,0c0-32-32-64-64-64s-96,0-128,0s-64,32-64,64s0,320,0,320h512c0,0,0-224,0-256S864,544,832,544z"/>
</svg>
