<?xml version="1.0" encoding="utf-8"?>
<!-- Generator: Adobe Illustrator 16.0.0, SVG Export Plug-In . SVG Version: 6.00 Build 0)  -->
<!DOCTYPE svg PUBLIC "-//W3C//DTD SVG 1.1//EN" "http://www.w3.org/Graphics/SVG/1.1/DTD/svg11.dtd">
<svg version="1.1" id="Layer_1" xmlns="http://www.w3.org/2000/svg" xmlns:xlink="http://www.w3.org/1999/xlink" x="0px" y="0px"
	 width="1664px" height="1792px" viewBox="0 0 1664 1792" enable-background="new 0 0 1664 1792" xml:space="preserve">
<path d="M128,512h1408v1024H128V512z M192,256h512c42,0,64,22,64,64v64H128v-64C128,278,150,256,192,256z M1536,384H960
	c-42,0-64-22-64-64v-64c0-83-45-128-128-128H128C45,128,0,173,0,256v1408h1664V512C1664,429,1619,384,1536,384z"/>
</svg>
