<?xml version="1.0" encoding="utf-8"?>
<!-- Generator: Adobe Illustrator 16.0.0, SVG Export Plug-In . SVG Version: 6.00 Build 0)  -->
<!DOCTYPE svg PUBLIC "-//W3C//DTD SVG 1.1//EN" "http://www.w3.org/Graphics/SVG/1.1/DTD/svg11.dtd">
<svg version="1.1" id="Layer_1" xmlns="http://www.w3.org/2000/svg" xmlns:xlink="http://www.w3.org/1999/xlink" x="0px" y="0px"
	 width="1664px" height="1792px" viewBox="0 0 1664 1792" enable-background="new 0 0 1664 1792" xml:space="preserve">
<path d="M1664,1664v-448c0-42-22-64-64-64h-256c-42,0-64-22-64-64V960c0-42-22-64-64-64H704c-42,0-64,22-64,64v704H1664z M1536,1536
	H768v-256h768V1536z M832,1024h256c42,0,64,22,64,64v64H768v-64C768,1046,790,1024,832,1024z M192,256h512c42,0,64,22,64,64v64H128
	v-64C128,278,150,256,192,256z M1536,1024h128V512c0-83-45-128-128-128H960c-42,0-64-22-64-64v-64c0-83-45-128-128-128H128
	C45,128,0,173,0,256v1408h512v-128H128V512h1408V1024z"/>
</svg>
