<?xml version="1.0" encoding="utf-8"?>
<!-- Generator: Adobe Illustrator 15.0.0, SVG Export Plug-In . SVG Version: 6.00 Build 0)  -->
<!DOCTYPE svg PUBLIC "-//W3C//DTD SVG 1.1//EN" "http://www.w3.org/Graphics/SVG/1.1/DTD/svg11.dtd">
<svg version="1.1" id="Layer_1" xmlns="http://www.w3.org/2000/svg" xmlns:xlink="http://www.w3.org/1999/xlink" x="0px" y="0px"
	 width="1024px" height="1024px" viewBox="0 0 1024 1024" enable-background="new 0 0 1024 1024" xml:space="preserve">
<path d="M512,608h192v-31c0-19-14-33-33-33H545c-19,0-33,14-33,33V608z M1024,928H448V545c0-39,26-65,65-65h190c39,0,65,26,65,65v63
	h191c39,0,65,26,65,65V928z M64,224h448v-31c0-19-14-33-33-33H97c-19,0-33,14-33,33V224z M384,928H0V160c0-32,32-64,64-64h448
	c32,0,64,32,64,64v64h384c32,0,64,32,64,64v256H897c-39,0-65-26-65-63c0-39-26-65-65-65H449c-39,0-65,26-65,65V928z"/>
</svg>
