<?xml version="1.0" encoding="utf-8"?>
<!-- Generator: Adobe Illustrator 16.0.0, SVG Export Plug-In . SVG Version: 6.00 Build 0)  -->
<!DOCTYPE svg PUBLIC "-//W3C//DTD SVG 1.1//EN" "http://www.w3.org/Graphics/SVG/1.1/DTD/svg11.dtd">
<svg version="1.1" id="Layer_1" xmlns="http://www.w3.org/2000/svg" xmlns:xlink="http://www.w3.org/1999/xlink" x="0px" y="0px"
	 width="1664px" height="1792px" viewBox="0 0 1664 1792" enable-background="new 0 0 1664 1792" xml:space="preserve">
<path d="M1216,895.999H448V1152h768V895.999z M128,511.999h1408V1536H128V511.999z M192,255.999h512c42,0,64,22,64,64v64H128v-64
	C128,277.999,150,255.999,192,255.999z M1536,383.999H960c-42,0-64-22-64-64v-64c0-83-45-128-128-128H128c-83,0-128,45-128,128V1664
	h1664V511.999C1664,428.999,1619,383.999,1536,383.999z"/>
</svg>
