<?xml version="1.0" encoding="utf-8"?>
<!-- Generator: Adobe Illustrator 16.0.0, SVG Export Plug-In . SVG Version: 6.00 Build 0)  -->
<!DOCTYPE svg PUBLIC "-//W3C//DTD SVG 1.1//EN" "http://www.w3.org/Graphics/SVG/1.1/DTD/svg11.dtd">
<svg version="1.1" id="Layer_1" xmlns="http://www.w3.org/2000/svg" xmlns:xlink="http://www.w3.org/1999/xlink" x="0px" y="0px"
	 width="1664px" height="1792px" viewBox="0 0 1664 1792" enable-background="new 0 0 1664 1792" xml:space="preserve">
<path d="M1275,920c0-8-3-16-9-22l-256-256c-6-6-14-10-23-10c-17,0-32,15-32,32v128H843c-164,0-368,29-437,202c-21,53-27,110-27,166
	c0,70,35,162,64,226c5,11,11,27,18,38c4,5,7,8,14,8c10,0,16-8,16-17c0-8-2-17-2-25c-2-21-3-41-3-62c0-238,142-280,357-280h112v128
	c0,18,15,32,32,32c9,0,17-3,23-9l256-256C1272,937,1275,929,1275,920z M128,512h1408v1024H128V512z M192,256h512c42,0,64,22,64,64
	v64H128v-64C128,278,150,256,192,256z M1536,384H960c-42,0-64-22-64-64v-64c0-83-45-128-128-128H128C45,128,0,173,0,256v1408h1664
	V512C1664,429,1619,384,1536,384z"/>
</svg>
