<?xml version="1.0" encoding="utf-8"?>
<!-- Generator: Adobe Illustrator 15.0.0, SVG Export Plug-In . SVG Version: 6.00 Build 0)  -->
<!DOCTYPE svg PUBLIC "-//W3C//DTD SVG 1.1//EN" "http://www.w3.org/Graphics/SVG/1.1/DTD/svg11.dtd">
<svg version="1.1" id="Layer_1" xmlns="http://www.w3.org/2000/svg" xmlns:xlink="http://www.w3.org/1999/xlink" x="0px" y="0px"
	 width="1024px" height="1024px" viewBox="0 0 1024 1024" enable-background="new 0 0 1024 1024" xml:space="preserve">
<path d="M2.5,982l1-48c9-3,21-6,35-8c26-4,44-7,65-15s36-24,46-49l145-377l171-443h46h33c3,6,5,10,6,13l126,294c13,32,35,84,65,157
	s53,130,70,168c6,14,17,44,35,88c18,46,33,80,44,104c17,37,19,41,76,53c28,6,45,10,51,12c2,16,4,27,4,35c0,2,0,5,0,8c-1,4-1,6-1,8
	c-26,0-64-2-116-5s-91-5-117-5c-31,0-75,2-132,5s-93,4-109,5c0-18,1-34,3-48l80-17c0,0,14-3,17-4s15-4,18-7c4-2,10-6,13-11
	c0-3,1-6,1-9c0-7-6-26-19-59s-28-69-44-109c-17-39-25-60-26-61l-275-1c-22,47-78,199-78,219c0,18,11,31,35,38s33,10,65,14
	c15,1,23,2,25,2c0,8,0,20,0,36c0,3,0,9-1,16c-24,0-59-2-106-6c-48-4-84-6-108-6c-3,0-8,0-15,2c-8,2-13,3-14,3
	C85.5,979,46.5,982,2.5,982z M446.5,306l-104,275c13,0,41,1,84,2c42,0,74,1,98,1c8,0,19-1,34-1C523.5,479,486.5,387,446.5,306z"/>
</svg>
