<?xml version="1.0" encoding="utf-8"?>
<!-- Generator: Adobe Illustrator 15.0.0, SVG Export Plug-In . SVG Version: 6.00 Build 0)  -->
<!DOCTYPE svg PUBLIC "-//W3C//DTD SVG 1.1//EN" "http://www.w3.org/Graphics/SVG/1.1/DTD/svg11.dtd">
<svg version="1.1" id="Layer_1" xmlns="http://www.w3.org/2000/svg" xmlns:xlink="http://www.w3.org/1999/xlink" x="0px" y="0px"
	 width="640px" height="1024px" viewBox="0 0 640 1024" enable-background="new 0 0 640 1024" xml:space="preserve">
<path d="M8,979l10-52c3,0,19-5,50-13s53-15,68-23c12-14,20-34,25-61c1-3,13-62,38-176c25-115,48-225,69-332c22-106,33-166,32-180
	v-16c-20-10-44-14-76-16c-15-1-27-2-35-3l12-63c26,2,113,6,164,8c25,1,50,2,73,2c39,0,77-3,134-6c29-2,49-3,60-4c-2,16-6,34-11,54
	c-13,5-33,10-62,17c-29,8-51,15-66,21c-7,15-12,37-14,50c-3,13-7,43-9,54c-11,60-29,145-53,255c-25,110-41,183-48,217c0,4-3,15-7,35
	c-10,40-17,72-22,106c-3,18-5,29-4,35l1,11c6,2,44,8,112,19c-1,18-4,38-9,60c-5,0-11,0-20,1s-16,1-20,1c-12,0-29-2-53-6s-41-6-53-6
	c-56-1-98-1-125-1c-21,0-50,2-87,5C45,976,20,978,8,979z"/>
</svg>
