<?xml version="1.0" encoding="utf-8"?>
<!-- Generator: Adobe Illustrator 15.0.0, SVG Export Plug-In . SVG Version: 6.00 Build 0)  -->
<!DOCTYPE svg PUBLIC "-//W3C//DTD SVG 1.1//EN" "http://www.w3.org/Graphics/SVG/1.1/DTD/svg11.dtd">
<svg version="1.1" id="Layer_1" xmlns="http://www.w3.org/2000/svg" xmlns:xlink="http://www.w3.org/1999/xlink" x="0px" y="0px"
	 width="1024px" height="1024px" viewBox="0 0 1024 1024" enable-background="new 0 0 1024 1024" xml:space="preserve">
<path d="M387.5,509.5h96c43,0,79,4,111,13c31,9,58,22,78,41c21,17,38,40,48,67c10,28,15,60,15,97c0,36-5,67-15,94
	c-10,28-26,50-47,67c-20,17-47,30-78,39c-32,9-69,13-112,13h-96V509.5z M387.5,82.5h88c39,0,74,3,103,10c28,7,51,17,70,30
	c17,15,32,32,41,53c8,21,13,48,13,77s-5,55-14,77s-23,40-42,55c-19,13-42,24-70,31c-29,8-62,11-101,11h-88V82.5z M-0.5-0.5v83h129
	v858h-129v83h558c80,0,150-6,209-18s107-30,144-54s66-55,85-92s28-81,28-132c0-37-7-72-20-102s-34-56-61-79s-59-41-98-54
	s-83-23-134-28c41-4,78-12,110-24c31-11,58-26,79-43c21-19,36-39,47-63s16-51,16-82c0-43-7-79-22-111c-16-32-39-58-70-79
	s-68-36-114-47s-101-16-162-16H-0.5z"/>
</svg>
