<?xml version="1.0" encoding="utf-8"?>
<!-- Generator: Adobe Illustrator 15.0.0, SVG Export Plug-In . SVG Version: 6.00 Build 0)  -->
<!DOCTYPE svg PUBLIC "-//W3C//DTD SVG 1.1//EN" "http://www.w3.org/Graphics/SVG/1.1/DTD/svg11.dtd">
<svg version="1.1" id="Layer_1" xmlns="http://www.w3.org/2000/svg" xmlns:xlink="http://www.w3.org/1999/xlink" x="0px" y="0px"
	 width="896px" height="1024px" viewBox="0 0 896 1024" enable-background="new 0 0 896 1024" xml:space="preserve">
<path d="M16,983l1-57c6-2,24-5,52-10c29-5,51-11,65-17c6-10,11-22,13-37c2-8,3-14,4-20c2-11,2-35,2-44c0-4,0-11,0-21c0-11,0-17,0-19
	c0-402-4-611-14-629c-1-3-6-6-13-9c-15-5-39-9-58-11c-9-1-19-2-29-3c-11,0-17-1-19-2l-3-50c40-1,110-4,209-8s175-5,229-5
	c9,0,23,0,42,0s32,0,41,0c57,0,112,10,163,34s89,56,112,107c11,26,17,54,17,85c0,42-16,79-34,103c-18,23-59,50-85,63
	c-13,7-30,15-51,24c126,29,220,113,220,235c0,81-31,148-78,190c-48,42-117,71-186,82c-34,6-70,9-108,9c-18,0-45-1-81-2s-63-2-81-2
	c-43,0-106,3-188,7S28,983,16,983z M343,112c0,20,1,51,3,93c1,41,2,72,2,93c0,11,0,27,0,49c-1,21-1,38-1,48c0,19,0,34,1,43
	c17,3,39,4,67,4c67,0,115-10,155-36c40-25,62-73,62-141c0-57-26-102-67-126s-88-35-142-35C403,104,376,106,343,112z M347,744
	c-1,49-1,72,2,110c2,19,5,34,8,42c30,12,59,19,86,19c154,0,230-69,230-205c0-47-8-84-25-111c-22-36-52-61-79-74c-27-14-71-20-101-22
	c-15,0-34-1-58-1c-30,0-50,2-62,6c0,22,0,54,0,98c-1,43-1,75-1,97C347,706,347,720,347,744z"/>
</svg>
