<?xml version="1.0" encoding="utf-8"?>
<!-- Generator: Adobe Illustrator 15.0.0, SVG Export Plug-In . SVG Version: 6.00 Build 0)  -->
<!DOCTYPE svg PUBLIC "-//W3C//DTD SVG 1.1//EN" "http://www.w3.org/Graphics/SVG/1.1/DTD/svg11.dtd">
<svg version="1.1" id="Layer_1" xmlns="http://www.w3.org/2000/svg" xmlns:xlink="http://www.w3.org/1999/xlink" x="0px" y="0px"
	 width="832px" height="1024px" viewBox="0 0 832 1024" enable-background="new 0 0 832 1024" xml:space="preserve">
<path d="M416,464c44.184,0,80-35.816,80-80s-35.816-80-80-80c-44.183,0-80,35.816-80,80S371.817,464,416,464z M576,64h128v64H576V64
	z M352,64h128v64H352V64z M128,64h128v64H128V64z M704,192v832h128V65c0-38-27-65-65-65H65C27,0,0,27,0,65v959h128V192H704z
	 M352,768v256h128V768h96V512l-64-32l-96,128l-96-128l-64,32v256H352z"/>
</svg>
