<?xml version="1.0" encoding="utf-8"?>
<!-- Generator: Adobe Illustrator 15.0.0, SVG Export Plug-In . SVG Version: 6.00 Build 0)  -->
<!DOCTYPE svg PUBLIC "-//W3C//DTD SVG 1.1//EN" "http://www.w3.org/Graphics/SVG/1.1/DTD/svg11.dtd">
<svg version="1.1" id="Layer_1" xmlns="http://www.w3.org/2000/svg" xmlns:xlink="http://www.w3.org/1999/xlink" x="0px" y="0px"
	 width="896px" height="1024px" viewBox="0 0 896 1024" enable-background="new 0 0 896 1024" xml:space="preserve">
<path d="M896,561l-123,44l-30,70l59,116l-72,72l-118-56l-71,29l-40,124H399l-44-123l-70-29l-116,58l-72-72l56-118l-29-70L0,565V463
	l123-44l29-70L94,233l72-72l118,56l71-29l40-124h102l44,123l70,29l116-58l72,72l-56,118l29,70l124,41V561z M448,350
	c-92,3-159,70-162,162c3,92,70,159,162,162c92-3,160-70,161-162C608,420,540,353,448,350z"/>
</svg>
