<?xml version="1.0" encoding="utf-8"?>
<!-- Generator: Adobe Illustrator 15.0.0, SVG Export Plug-In . SVG Version: 6.00 Build 0)  -->
<!DOCTYPE svg PUBLIC "-//W3C//DTD SVG 1.1//EN" "http://www.w3.org/Graphics/SVG/1.1/DTD/svg11.dtd">
<svg version="1.1" id="Layer_1" xmlns="http://www.w3.org/2000/svg" xmlns:xlink="http://www.w3.org/1999/xlink" x="0px" y="0px"
	 width="1024px" height="1024px" viewBox="0 0 1024 1024" enable-background="new 0 0 1024 1024" xml:space="preserve">
<path d="M160,800c0,19,6,34,19,45c11,13,26,19,45,19c36,0,64-28,64-64c0-17-6-33-18-46c-13-12-28-18-46-18C188,736,160,764,160,800z
	 M0,768l70-12l3-9l7-17l3-6c1-1,1-1,1-2l-41-58l45-45l58,41l2-1c1-1,2-1,3-1c1-1,2-2,3-2l2-1c1-1,2-1,3-1l4-2c6-3,12-5,17-6l12-70
	h64l12,70c2,0,3,0,4,1s2,1,5,1c2,1,8,3,17,8l8,4l58-41l45,45l-41,58c0,1,1,3,2,4l2,4c0,1,1,3,2,4c0,1,0,1,1,2l1,2c3,5,5,11,6,18
	l70,12v64l-70,12l-2,8c-1,2-1,4-2,6s-2,4-2,5c-1,3-3,5-4,6v1l-4,8l41,58l-45,45l-58-41c-1,0-3,1-4,2l-4,2c-1,0-3,1-4,2s-3,2-4,2
	c-5,3-11,5-18,6l-12,70h-64l-12-70l-8-3c-2-1-6-2-11-5l-7-2c-1,0-2-1-3-2c-1,0-2,0-3-1l-2-1l-58,41l-45-45l41-58c-3-3-4-5-4-8l-1-2
	c-1-1-1-2-1-3l-2-4c-3-6-5-12-6-17L0,832V768z M533,352c0,39,14,72,41,98c26,27,59,41,98,41c77,0,139-62,139-139s-62-139-139-139
	S533,275,533,352z M320,384v-64l67-12c1-1,1-2,1-3s0-2,1-3l2-12c0-3,0-5,1-6l-57-37l24-59l67,14l2-3l2-2c1-1,2-2,3-5c1,0,1-1,1-2
	s0-1,1-2l1-1c1-1,2-2,3-5l-39-56l46-46l56,39c3-1,4-2,5-3l3-2l2-2l10-6l-14-67l59-24l37,57c1,0,2,0,3-1s2-1,3-1c3,0,5,0,6-1l12-2
	l12-67h64l12,67c1,1,3,1,6,1l12,2c1,0,2,0,3,1s2,1,3,1l37-57l59,24l-14,67c1,1,2,2,5,3c4,2,7,4,10,7c1,1,2,2,5,3l56-39l46,46l-39,56
	c1,3,2,4,3,5l2,3l2,2l6,10l67-14l24,59l-57,37c0,1,0,2,1,3s1,2,1,3c0,3,0,5,1,6l2,12l67,12v64l-67,12c-1,1-1,3-1,6l-2,12
	c0,1,0,2-1,3s-1,2-1,3l57,37l-24,59l-67-14c-1,1-2,2-3,5c-2,4-4,7-7,10c-1,1-2,2-3,5l39,56l-46,46l-56-39c-3,1-4,2-5,3l-10,6l-2,2
	l-3,2l14,67l-59,24l-37-57c-5,1-9,2-12,2l-12,3l-12,67h-64l-12-67c-1-1-2-1-3-1s-2,0-3-1l-12-2c-3,0-5,0-6-1l-37,57l-59-24l14-67
	l-3-2l-2-2l-4-3c-1,0-4-1-5-2l-1-1c-1-1-2-2-5-3l-56,39l-46-46l39-56c-1-3-2-4-3-5s-2-2-3-5c-2-4-4-7-7-10l-67,14l-24-59l57-37
	c-1-5-2-9-2-12l-3-12L320,384z"/>
</svg>
