<?xml version="1.0" encoding="utf-8"?>
<!-- Generator: Adobe Illustrator 15.0.0, SVG Export Plug-In . SVG Version: 6.00 Build 0)  -->
<!DOCTYPE svg PUBLIC "-//W3C//DTD SVG 1.1//EN" "http://www.w3.org/Graphics/SVG/1.1/DTD/svg11.dtd">
<svg version="1.1" id="Layer_1" xmlns="http://www.w3.org/2000/svg" xmlns:xlink="http://www.w3.org/1999/xlink" x="0px" y="0px"
	 width="1024px" height="1024px" viewBox="0 0 1024 1024" enable-background="new 0 0 1024 1024" xml:space="preserve">
<path d="M751,761c0-36,31-68,68-68s68,32,68,68c0,39-31,69-68,69S751,800,751,761z M614,724v75c0,5,27,11,80,16c4,10,9,19,16,28
	c-18,40-27,65-27,74c0,1,1,2,2,3c43,25,65,38,66,38c5,0,40-41,52-61h9c1,1,4,1,7,1s6,0,7-1h9c13,20,48,61,52,61l67-38c1-1,2-2,2-3
	c0-9-9-34-27-74c7-11,13-21,16-28c53-5,79-10,79-16v-75c0-5-26-11-79-17c-4-8-9-17-16-27c18-40,27-65,27-74c0-1-1-3-2-4
	c-43-25-65-37-67-37l-3,1c-19,21-36,41-49,60c-2-1-7-1-16-1s-14,0-16,1c-12-20-47-61-52-61c-1,0-6,3-16,9l-32,18c-4,3-8,5-11,6l-3,2
	c-1,1-2,1-3,1l-1,1c-1,1-2,3-2,4c0,9,9,34,27,74c-6,8-11,17-16,27C641,713,614,719,614,724z M245,584c-27-27-40-59-40-96
	c0-75,61-136,136-136c76,0,137,61,137,136s-64,137-137,137C304,625,272,611,245,584z M771,263c-13-13-20-29-20-48c0-37,31-68,68-68
	s68,31,68,68s-29,68-68,68C800,283,784,276,771,263z M0,438v99c0,10,4,15,13,15l81,13c1,5,7,19,19,44c-1,1-9,12-26,32
	c-13,18-20,28-21,29c-3,3-4,6-4,10c0,9,26,38,77,85c3,3,6,4,11,4c4,0,8-1,11-3l62-48c11,7,25,12,40,17l13,81c0,7,8,14,16,14h99
	c8,0,13-4,16-13c4-17,8-45,12-83c15-4,28-9,41-16l62,48c3,2,6,3,11,3c11,0,62-48,86-79c2-3,3-7,3-10s-1-7-3-11l-48-61
	c9-20,15-34,17-41l82-13c7,0,13-8,13-16v-98c0-10-4-15-13-16l-81-13c-3-9-9-24-18-43c5-8,13-19,24-32c4-6,8-12,13-17
	c9-11,13-18,13-22c0-9-26-38-77-86c-5-3-8-4-11-4c-5,0-8,1-11,4l-63,47c-24-10-37-15-40-16l-12-82c-1-9-6-13-16-13h-99
	c-9,0-14,4-16,13c-5,13-9,40-13,82c-11,4-25,10-41,17l-61-48c-3-3-6-4-11-4c-11,0-65,51-86,79c-3,3-4,6-4,11c0,4,1,7,4,10
	c20,23,36,44,48,62c-7,13-12,27-17,40l-83,13C4,423,0,428,0,438z M614,178v75c0,5,27,11,80,16c4,10,9,19,16,28c-18,40-27,64-27,73
	c0,1,1,3,2,4c43,25,65,38,66,38c5,0,40-41,52-61h9c1,1,4,1,7,1s6,0,7-1h9c13,20,48,61,52,61l67-38c1-1,2-3,2-4c0-9-9-33-27-73
	c7-11,13-21,16-28c53-5,79-10,79-16v-75c0-5-26-11-79-17c-4-8-9-17-16-27c18-40,27-65,27-74c0-1-1-3-2-4c-43-25-65-37-67-37l-3,1
	c-12,12-28,32-49,60c-2-1-7-1-16-1s-14,0-16,1c-12-20-47-61-52-61l-16,8l-32,19c-4,3-8,5-11,6l-3,2c-1,1-2,1-3,1l-1,1c-1,1-2,3-2,4
	c0,9,9,34,27,74c-6,8-11,17-16,27C641,167,614,173,614,178z"/>
</svg>
