<?xml version="1.0" encoding="utf-8"?>
<!-- Generator: Adobe Illustrator 15.0.0, SVG Export Plug-In . SVG Version: 6.00 Build 0)  -->
<!DOCTYPE svg PUBLIC "-//W3C//DTD SVG 1.1//EN" "http://www.w3.org/Graphics/SVG/1.1/DTD/svg11.dtd">
<svg version="1.1" id="Layer_1" xmlns="http://www.w3.org/2000/svg" xmlns:xlink="http://www.w3.org/1999/xlink" x="0px" y="0px"
	 width="832px" height="1024px" viewBox="0 0 832 1024" enable-background="new 0 0 832 1024" xml:space="preserve">
<path d="M0,384.879v192h384v-192H0z M832,384.879H448v192h384V384.879z M295,305.879c-47-7-85-44-90-91s25-77,72-73
	c47,5,85,44,90,91S342,309.879,295,305.879z M555,141.879c47-4,77,26,73,73c-5,47-44,85-91,90s-77-25-72-72S508,146.879,555,141.879
	z M448,384.879v-8c16-1,32-3,48-5l39-5c87-11,157-83,169-168c7-87-50-143-135-135c-67,8-124,54-153,115c-29-61-86-107-153-115
	c-85-8-142,48-135,135c12,85,82,157,169,168l87,10v8H448z M64,640.879v320h320v-320H64z M448,640.879v320h320v-320H448z"/>
</svg>
