<?xml version="1.0" encoding="utf-8"?>
<!-- Generator: Adobe Illustrator 16.0.0, SVG Export Plug-In . SVG Version: 6.00 Build 0)  -->
<!DOCTYPE svg PUBLIC "-//W3C//DTD SVG 1.1//EN" "http://www.w3.org/Graphics/SVG/1.1/DTD/svg11.dtd">
<svg version="1.1" id="Layer_1" xmlns="http://www.w3.org/2000/svg" xmlns:xlink="http://www.w3.org/1999/xlink" x="0px" y="0px"
	 width="1536px" height="1792px" viewBox="0 0 1536 1792" enable-background="new 0 0 1536 1792" xml:space="preserve">
<path d="M716,640H437c-15,63-24,132-27,204h306V640z M1125,844c-3-72-12-141-26-204H819v204H1125z M716,947H410c3,72,12,141,27,205
	h279V947z M1099,1152c14-64,23-133,26-205H819v205H1099z M819,1554c105-27,196-141,251-300H819V1554z M716,1254H466
	c55,159,145,273,250,300V1254z M716,237c-105,28-195,141-250,300h250V237z M1070,537c-55-159-146-272-251-300v300H1070z M1055,1496
	c112-54,207-138,274-242h-154C1145,1348,1104,1430,1055,1496z M0,896v-52h1c26-383,332-689,715-715v-1h52h51v1
	c383,26,690,332,715,715h2v52v51h-2c-25,383-332,690-715,715v2h-51h-52v-2C333,1637,27,1330,1,947H0V896z M207,1254
	c66,104,161,188,273,242c-49-66-90-148-120-242H207z M104,947c5,72,22,141,49,205h180c-14-65-22-134-25-205H104z M153,640
	c-27,63-44,132-49,204h204c3-71,11-140,25-204H153z M480,295c-112,54-207,138-273,242h153C390,443,431,361,480,295z M1329,537
	c-67-104-162-188-274-242c49,66,90,148,120,242H1329z M1431,844c-5-72-22-141-49-204h-180c14,64,23,133,25,204H1431z M1382,1152
	c27-64,44-133,49-205h-204c-2,71-11,140-25,205H1382z"/>
</svg>
