<?xml version="1.0" encoding="utf-8"?>
<!-- Generator: Adobe Illustrator 15.0.0, SVG Export Plug-In . SVG Version: 6.00 Build 0)  -->
<!DOCTYPE svg PUBLIC "-//W3C//DTD SVG 1.1//EN" "http://www.w3.org/Graphics/SVG/1.1/DTD/svg11.dtd">
<svg version="1.1" id="Layer_1" xmlns="http://www.w3.org/2000/svg" xmlns:xlink="http://www.w3.org/1999/xlink" x="0px" y="0px"
	 width="768px" height="1024px" viewBox="0 0 768 1024" enable-background="new 0 0 768 1024" xml:space="preserve">
<path d="M497,211c-11,4-42-19-53-27c-15-13-27-19-36-20c-18-1-33-5-13-22c6-4,15-5,26-2s20,5,29,6c17,3,35,15,37,30c1,8,3,15,8,21
	C499,204,500,208,497,211z M416,214c-6,0-12-1-19-2s-10-3-9-5c15-15-4-21-19-22c-7,0-12-1-14-4c-3-3-2-4,2-5c8,0,32,1,38,5
	c3,2,8,5,16,9c7,4,12,8,13,11C427,209,424,214,416,214z M348,165c-1-1,0-2,1-3l4-5c1-1,1-2,2-4c0-1,0-3,1-4c8-7,31-11,28,2
	C376,167,355,169,348,165z M474,487c-3,2-7,4-13,5c-7,1-17-2-30-9s-24-12-32-13c-9-1-13-1-14-2s-2-2-1-4s4-3,9-4c13,0,25,3,37,10
	s20,11,24,12c3,0,7-1,10-3c3-1,7-1,12,0C487,483,481,486,474,487z M384,127C167,132,5,294,0,511c5,217,167,379,384,384
	c26,0,51-2,76-7c-11-7-12-38-1-61c15-25,40-76,11-99c-15-9-24-17-27-24s-9-15-18-26c-9-10-14-17-14-21v-10c-1-10,2-21,9-32l12-19
	c1-2,1-5,1-9v-9c-1-4-14-12-18-13c-3,0-5,1-6,3s-3,3-6,3c-6,0-27-12-32-17c-3-2-5-5-7-9c-4-7-11-15-15-15c-2,1-6,0-11-1l-70-27
	c-25-11-29-25-29-36c0-5-3-11-8-18l-14-18c-4-6-7-12-8-17s-2-7-3-6c-1,3,1,11,5,23s6,19,5,21c-1,1-3-1-6-6c-3-4-6-9-9-14
	c-3-3-3-7-2-12s-3-18-14-41s-12-41-5-56c7-14,11-27,14-39c1-10,4-12,9-7c5,6,5,6,1,0c-4-9-5-19-4-32c1-12,0-22-3-29
	c-11-9-47,11-50,14c1-6,9-13,22-22l42-28c25-16,43-6,64,2c10,4,16,6,18,5c1-1,0-3-3-7c-4-3-4-6,0-7c8-3,27,0,39,12c5,6,14,9,26,8
	c11-1,15,0,12,3c-4,3-6,6-6,9c2,3,1,5-2,6c-8,4-33,16-20,23c6,3,17,10,32,20c13,9,20,9,20-1c0-9-1-19-3-29c-1-13,20-4,21-3
	c8,5,13,7,16,5c2-1,6-1,12,0c8,3,18,9,29,18l20,16c-21,12-29,20-24,23c4,4,9,7,15,10c5,5-13,16-16,16c-4-4-7-5-9-3c-3,3-5,5-8,7
	c-5,4-1,11,0,12c-29,7-25,36-24,45c0,4-3,9-10,14c-7,6-12,12-15,17c-1,7,0,14,4,22c4,9,4,14,0,15c-4-1-11-6-20-16c-19-19-61-8-81,11
	c-10,10-11,24-3,43c10,15,21,18,33,9s21-14,27-15c5,4,6,10,3,17s-4,12-4,13c3-1,8,1,17,4c8,4,13,13,15,28c4,30,38,31,50,30
	c5,0,13-4,23-11c19-15,17-14,35-18c9-2,22,2,40,11s32,15,43,17c20,4,32,13,32,25c0,7,2,12,7,15c7,2,19,3,35,3c16,1,28,5,35,14
	c7,27-43,109-67,126c-9,6-16,14-23,23c-13,20-31,35-55,52c-13,9-25,17-38,24c-10,7-17,15-22,24s-9,16-13,20c175-41,296-188,300-375
	C763,294,601,132,384,127z"/>
</svg>
