<?xml version="1.0" encoding="utf-8"?>
<!-- Generator: Adobe Illustrator 15.0.0, SVG Export Plug-In . SVG Version: 6.00 Build 0)  -->
<!DOCTYPE svg PUBLIC "-//W3C//DTD SVG 1.1//EN" "http://www.w3.org/Graphics/SVG/1.1/DTD/svg11.dtd">
<svg version="1.1" id="Layer_1" xmlns="http://www.w3.org/2000/svg" xmlns:xlink="http://www.w3.org/1999/xlink" x="0px" y="0px"
	 width="1024px" height="1024px" viewBox="0 0 1024 1024" enable-background="new 0 0 1024 1024" xml:space="preserve">
<path d="M443,174c-12-27-20-53-27-80s-9-54-10-83c33-7,67-11,101-11s65,2,98,9c-13,33-27,65-45,95s-36,58-57,83c-5-3-19-7-30-11
	C461,173,448,171,443,174z M551,244c28-35,52-68,73-104c21-35,39-72,52-112c20,7,43,16,62,25s39,20,55,32c8,48,10,97,11,144
	c1,48-1,94-5,139c-23,4-40,12-56,24s-27,27-35,46c-31-11-61-27-86-47c-25-19-51-40-72-63c4-15,8-29,8-43S556,257,551,244z M350,330
	c-52,33-107,58-166,74c-59,17-118,28-179,33c16-93,54-179,112-249S247,64,334,33c1,29,8,60,14,88c6,29,17,57,26,82
	c-16,17-29,38-32,60C338,285,339,309,350,330z M920,465c-1-17-8-33-15-47c-8-14-21-25-33-34c1-20,3-40,5-59c1-19,2-39,2-59
	c0-39,0-77-5-114c43,43,74,90,99,141c25,52,39,106,47,159c-16,4-30,6-47,8S940,464,920,465z M902,540h-1c23-1,42-3,63-5
	c20-2,39-4,60-8c-1,3-1,5,0,8c0,3,0,5-1,8s-1,5,0,7c0,3,0,5-1,8c-36,47-82,86-132,117c-50,32-107,55-160,70c19-24,38-50,53-78
	c15-27,30-54,38-82c19-3,33-7,47-15C882,563,891,553,902,540z M701,826c53-11,107-28,155-50s95-50,134-83c-52,139-160,240-286,292
	c-63,26-130,39-200,39c-71,0-139-15-204-44c41-7,84-17,123-31s78-30,110-50c36,20,72,20,104,5C668,889,692,862,701,826z M488,840h1
	c-49,25-97,44-148,56s-101,18-153,15c-39-33-74-73-101-114c-28-41-52-86-65-131c64,55,140,98,220,128C321,824,407,840,488,840z
	 M0,538h1c-1-2-1-4-1-6s0-4,0-6c-1-2-1-4,0-6c0-2,0-4-1-7l1-2c68-7,143-18,212-38c68-20,136-50,191-90c17,8,32,11,49,10
	c16,0,31-5,47-12c31,32,64,59,98,82s72,41,112,54c5,11,10,21,18,29c7,8,13,16,24,21c-12,28-25,55-41,79c-17,25-34,49-55,70
	c-28-21-64-25-94-15s-59,34-71,66c-96-1-189-22-274-61S57,610,0,538z"/>
</svg>
