<?xml version="1.0" encoding="utf-8"?>
<!-- Generator: Adobe Illustrator 15.0.0, SVG Export Plug-In . SVG Version: 6.00 Build 0)  -->
<!DOCTYPE svg PUBLIC "-//W3C//DTD SVG 1.1//EN" "http://www.w3.org/Graphics/SVG/1.1/DTD/svg11.dtd">
<svg version="1.1" id="Layer_1" xmlns="http://www.w3.org/2000/svg" xmlns:xlink="http://www.w3.org/1999/xlink" x="0px" y="0px"
	 width="1024px" height="1024px" viewBox="0 0 1024 1024" enable-background="new 0 0 1024 1024" xml:space="preserve">
<path d="M358,912h564c-25-112-108-212-200-231c-25-8-38-24-38-48v-34c0-19,8-33,24-42c59-35,98-110,98-190c0-115-74-207-166-207
	s-166,92-166,207c0,80,39,155,98,190c17,9,25,23,25,42v34c0,24-13,40-38,48C467,700,383,800,358,912z M256,960c0-34,8-74,24-119
	c40-110,106-188,199-234c-67-60-101-140-101-240c0-165,118-303,262-303s262,138,262,303c0,100-34,180-101,240
	c119,56,223,216,223,353c0,25-21,47-48,47H304C277,1007,256,987,256,960z M0,896c0,25,22,47,49,47h131c2-26,8-58,17-95h-95
	c28-112,109-212,201-232c23-5,38-25,38-46v-35c0-19-8-32-24-41c-60-35-99-110-99-190c0-115,74-208,166-208c6,0,12,1,19,2
	c25-30,54-54,89-72C455,9,419,0,384,0C240,0,123,136,123,304c0,96,33,176,100,240C106,597,0,756,0,896z"/>
</svg>
