<?xml version="1.0" encoding="utf-8"?>
<!-- Generator: Adobe Illustrator 15.0.0, SVG Export Plug-In . SVG Version: 6.00 Build 0)  -->
<!DOCTYPE svg PUBLIC "-//W3C//DTD SVG 1.1//EN" "http://www.w3.org/Graphics/SVG/1.1/DTD/svg11.dtd">
<svg version="1.1" id="Layer_1" xmlns="http://www.w3.org/2000/svg" xmlns:xlink="http://www.w3.org/1999/xlink" x="0px" y="0px"
	 width="1280px" height="1024px" viewBox="0 0 1280 1024" enable-background="new 0 0 1280 1024" xml:space="preserve">
<path d="M847,561.066c60,31,124,66,191,105l13,8c33,18,53,43,61,76h161c5,0,7-3,7-8v-63c0-21-11-38-34-50l-17-11
	c-68-41-124-69-168-84v-96c9-3,16-6,21-11c2-2,4-4,6-6c2-1,4-3,5-6s1-5,2-7c1-3,2-12,2-14c0-1,0-3,0-7c0-3,0-5,0-6v-65
	c0-71-41-114-110-114s-110,43-110,114v65c0,19,3,33,8,40c8,8,18,14,30,18v95C906,537.066,883,546.066,847,561.066z M0,679.066v63
	c0,5,2,8,7,8h161c7-32,27-57,61-76l5-4c59-35,126-71,200-108c-25-13-48-22-69-28v-96c25-5,37-24,38-33c0-4,0-12,0-24v-65
	c0-71-41-114-110-114s-110,43-110,114v65c0,43,11,49,36,58v95c-44,15-100,43-168,84l-17,11C11,641.066,0,658.066,0,679.066z
	 M219,792.066v92c0,5,5,12,10,12h822c5,0,10-7,10-12v-92c0-39-8-54-37-71c-119-69-204-114-256-136v-137c25-19,37-46,37-82v-109
	c0-64-22-111-56-134s-69-31-109-31c-80,0-165,40-165,165v109c0,36,12,63,37,82v137c-45,20-130,65-256,136
	C227,738.066,219,753.066,219,792.066z"/>
</svg>
