<?xml version="1.0" encoding="utf-8"?>
<!-- Generator: Adobe Illustrator 15.0.0, SVG Export Plug-In . SVG Version: 6.00 Build 0)  -->
<!DOCTYPE svg PUBLIC "-//W3C//DTD SVG 1.1//EN" "http://www.w3.org/Graphics/SVG/1.1/DTD/svg11.dtd">
<svg version="1.1" id="Layer_1" xmlns="http://www.w3.org/2000/svg" xmlns:xlink="http://www.w3.org/1999/xlink" x="0px" y="0px"
	 width="1024px" height="1024px" viewBox="0 0 1024 1024" enable-background="new 0 0 1024 1024" xml:space="preserve">
<path d="M73,330c0-35,4-62,13-82c25-75,88-113,187-113c39,0,82,17,128,51c35,28,63,54,83,77c7,8,16,12,28,12s21-4,28-12
	c59-69,144-128,211-128c13,0,31,2,56,5c96,17,144,81,144,190c0,64-36,132-108,203L512,852L180,532C109,461,73,393,73,330z M0,330
	c0,83,50,176,115,241c6,7,11,12,15,15l357,344c7,7,15,10,25,10s18-3,25-10l356-343c87-87,131-173,131-257c0-168-102-268-273-268
	c-77,0-156,41-239,124C444,114,356,62,273,62C102,62,0,162,0,330z"/>
</svg>
