<?xml version="1.0" encoding="utf-8"?>
<!-- Generator: Adobe Illustrator 15.0.0, SVG Export Plug-In . SVG Version: 6.00 Build 0)  -->
<!DOCTYPE svg PUBLIC "-//W3C//DTD SVG 1.1//EN" "http://www.w3.org/Graphics/SVG/1.1/DTD/svg11.dtd">
<svg version="1.1" id="Layer_1" xmlns="http://www.w3.org/2000/svg" xmlns:xlink="http://www.w3.org/1999/xlink" x="0px" y="0px"
	 width="896px" height="1024px" viewBox="0 0 896 1024" enable-background="new 0 0 896 1024" xml:space="preserve">
<path d="M384,769l63,63l65-63V577h128l64-64l-64-64H512l-64-64L320,513l64,64V769z M448,65c-91,0-175,27-246,74l-74-74v256h256
	l-88-88c45-25,96-40,152-40c181,4,316,139,320,320c-4,181-139,316-320,320c-181-4-316-139-320-320c1-46,10-89,27-128H64v-99
	C24,353,0,429,0,513c7,253,195,441,448,448c253-7,441-195,448-448C889,260,701,72,448,65z"/>
</svg>
