<?xml version="1.0" encoding="utf-8"?>
<!-- Generator: Adobe Illustrator 15.0.0, SVG Export Plug-In . SVG Version: 6.00 Build 0)  -->
<!DOCTYPE svg PUBLIC "-//W3C//DTD SVG 1.1//EN" "http://www.w3.org/Graphics/SVG/1.1/DTD/svg11.dtd">
<svg version="1.1" id="Layer_1" xmlns="http://www.w3.org/2000/svg" xmlns:xlink="http://www.w3.org/1999/xlink" x="0px" y="0px"
	 width="1024px" height="1024px" viewBox="0 0 1024 1024" enable-background="new 0 0 1024 1024" xml:space="preserve">
<path d="M256,448c70.693,0,128-57.307,128-128c0-70.693-57.307-128-128-128c-70.693,0-128,57.307-128,128
	C128,390.693,185.307,448,256,448z M64,128h896v768H64V128z M0,129v766c0,38,27,65,65,65h894c38,0,65-27,65-65V129c0-38-27-65-65-65
	H65C27,64,0,91,0,129z M128,640v192h768V640L736,320L448,640l-192-96L128,640z"/>
</svg>
