<?xml version="1.0" encoding="utf-8"?>
<!-- Generator: Adobe Illustrator 15.0.0, SVG Export Plug-In . SVG Version: 6.00 Build 0)  -->
<!DOCTYPE svg PUBLIC "-//W3C//DTD SVG 1.1//EN" "http://www.w3.org/Graphics/SVG/1.1/DTD/svg11.dtd">
<svg version="1.1" id="Layer_1" xmlns="http://www.w3.org/2000/svg" xmlns:xlink="http://www.w3.org/1999/xlink" x="0px" y="0px"
	 width="1024px" height="1024px" viewBox="0 0 1024 1024" enable-background="new 0 0 1024 1024" xml:space="preserve">
<path d="M512,896c-212.079,0-384-171.921-384-384s171.921-384,384-384s384,171.921,384,384S724.079,896,512,896z M40,314
	C13,375,0,441,0,512c0,139,54,269,150,362c93,96,223,150,362,150c142,0,263-50,363-150c95-95,149-225,149-362c0-136-54-267-149-363
	C779,54,648,0,512,0S245,54,150,149C103,196,66,251,40,314z M345,512l16,28c26-18,52-30,78-35c3,1,5,4,5,8c0,6,0,10-1,11
	c-3,8-4,14-4,17l-38,153c-10,41-11,70-3,87c5,13,18,21,37,22c51-3,136-48,195-109l-19-23l-23,15c-13,8-26,14-39,18c-5,2-9,3-11,2
	c-4,1-7-3-7-8c-2-8-1-18,3-29l43-164c9-27,11-51,8-71c-5-19-15-27-29-26C513,407,422,449,345,512z M468,270c0,40,25,60,66,59
	c47,1,86-32,86-75c0-39-21-60-62-61C505,194,468,229,468,270z"/>
</svg>
