<?xml version="1.0" encoding="utf-8"?>
<!-- Generator: Adobe Illustrator 15.0.0, SVG Export Plug-In . SVG Version: 6.00 Build 0)  -->
<!DOCTYPE svg PUBLIC "-//W3C//DTD SVG 1.1//EN" "http://www.w3.org/Graphics/SVG/1.1/DTD/svg11.dtd">
<svg version="1.1" id="Layer_1" xmlns="http://www.w3.org/2000/svg" xmlns:xlink="http://www.w3.org/1999/xlink" x="0px" y="0px"
	 width="1024px" height="1024px" viewBox="0 0 1024 1024" enable-background="new 0 0 1024 1024" xml:space="preserve">
<path d="M361,540l-16-28c77-63,168-105,211-104c14-1,24,7,29,26c3,20,1,44-8,71l-43,164c-4,11-5,21-3,29c0,5,3,9,7,8c2,1,6,0,11-2
	c13-4,26-10,39-18l23-15l19,23c-59,61-144,106-195,109c-19-1-32-9-37-22c-8-17-7-46,3-87l38-153c0-3,1-9,4-17c1-1,1-5,1-11
	c0-4-2-7-5-8C413,510,387,522,361,540z M468,270c0-41,37-76,90-77c41,1,62,22,62,61c0,43-39,76-86,75C493,330,468,310,468,270z
	 M40,314C13,375,0,441,0,512c0,139,54,269,150,362c93,96,223,150,362,150c142,0,263-50,363-150c95-95,149-225,149-362
	c0-136-54-267-149-363C779,54,648,0,512,0S245,54,150,149C103,196,66,251,40,314z"/>
</svg>
