<?xml version="1.0" encoding="utf-8"?>
<!-- Generator: Adobe Illustrator 16.0.0, SVG Export Plug-In . SVG Version: 6.00 Build 0)  -->
<!DOCTYPE svg PUBLIC "-//W3C//DTD SVG 1.1//EN" "http://www.w3.org/Graphics/SVG/1.1/DTD/svg11.dtd">
<svg version="1.1" id="Layer_1" xmlns="http://www.w3.org/2000/svg" xmlns:xlink="http://www.w3.org/1999/xlink" x="0px" y="0px"
	 width="1536px" height="1792px" viewBox="0 0 1536 1792" enable-background="new 0 0 1536 1792" xml:space="preserve">
<path fill="#010101" d="M1096.643,1333.571c-91.5,68.786-204.214,111-327.643,111C465.946,1444.571,220.429,1199,220.429,896
	c0-78.107,16.768-152.196,46.286-219.429h-156V506.054C42.678,620.751,1,753.018,1,896c0,424.179,343.821,768,768,768
	c184.071,0,350.571-67.393,483-175.285l65.571,65.57v-329.143H988.429L1096.643,1333.571z M659.286,1334.857h219.428v-219.429
	H659.286V1334.857z M878.714,457.143H659.286v548.571h219.428V457.143z M1537,896c0-424.179-343.821-768-768-768
	c-184.125,0-350.625,67.392-482.839,175.446l-65.732-65.732v329.143h329.143L441.304,458.589
	C532.911,389.751,645.571,347.429,769,347.429c303,0,548.571,245.518,548.571,548.571c0,78.107-16.714,152.143-46.285,219.429h156
	V1286C1495.321,1171.25,1537,1039.143,1537,896z"/>
</svg>
