<?xml version="1.0" encoding="utf-8"?>
<!-- Generator: Adobe Illustrator 16.0.0, SVG Export Plug-In . SVG Version: 6.00 Build 0)  -->
<!DOCTYPE svg PUBLIC "-//W3C//DTD SVG 1.1//EN" "http://www.w3.org/Graphics/SVG/1.1/DTD/svg11.dtd">
<svg version="1.1" id="Layer_1" xmlns="http://www.w3.org/2000/svg" xmlns:xlink="http://www.w3.org/1999/xlink" x="0px" y="0px"
	 width="1792px" height="1792px" viewBox="0 0 1792 1792" enable-background="new 0 0 1792 1792" xml:space="preserve">
<path fill="#010101" d="M1243.429,560.054l-164.571,164.571l274.285,281.089L1792,566.857l-164.571-164.571l-272.144,272.196
	L1243.429,560.054z M914.285,1444.571C611.232,1444.571,365.714,1199,365.714,896c0-303.054,245.518-548.571,548.571-548.571
	c151.5,0,288.644,61.446,387.857,160.714L1457.393,353c-138.964-139.071-330.964-225-543.107-225c-424.179,0-768,343.821-768,768
	c0,424.179,343.82,768,768,768c424.179,0,768-343.821,768-768L1339,1239.286C1354.321,1220.429,1210.429,1444.571,914.285,1444.571z
	 M1024,457.143H804.571v548.571H1024V457.143z M804.571,1334.857H1024v-219.429H804.571V1334.857z"/>
</svg>
