<?xml version="1.0" encoding="utf-8"?>
<!-- Generator: Adobe Illustrator 16.0.0, SVG Export Plug-In . SVG Version: 6.00 Build 0)  -->
<!DOCTYPE svg PUBLIC "-//W3C//DTD SVG 1.1//EN" "http://www.w3.org/Graphics/SVG/1.1/DTD/svg11.dtd">
<svg version="1.1" id="Layer_1" xmlns="http://www.w3.org/2000/svg" xmlns:xlink="http://www.w3.org/1999/xlink" x="0px" y="0px"
	 width="1536px" height="1792px" viewBox="0 0 1536 1792" enable-background="new 0 0 1536 1792" xml:space="preserve">
<path fill="#010101" d="M769,128C344.821,128,1,471.821,1,896c0,424.179,343.821,768,768,768c424.179,0,768-343.821,768-768
	C1537,471.821,1193.179,128,769,128z M769,1444.571C465.946,1444.571,220.429,1199,220.429,896
	c0-303.054,245.518-548.571,548.571-548.571c303,0,548.571,245.518,548.571,548.571C1317.571,1199,1072,1444.571,769,1444.571z
	 M659.286,1334.857h219.428v-219.429H659.286V1334.857z M659.286,1005.714h219.428V457.143H659.286V1005.714z"/>
</svg>
