<?xml version="1.0" encoding="utf-8"?>
<!-- Generator: Adobe Illustrator 15.0.0, SVG Export Plug-In . SVG Version: 6.00 Build 0)  -->
<!DOCTYPE svg PUBLIC "-//W3C//DTD SVG 1.1//EN" "http://www.w3.org/Graphics/SVG/1.1/DTD/svg11.dtd">
<svg version="1.1" id="Layer_1" xmlns="http://www.w3.org/2000/svg" xmlns:xlink="http://www.w3.org/1999/xlink" x="0px" y="0px"
	 width="1024px" height="1024px" viewBox="0 0 1024 1024" enable-background="new 0 0 1024 1024" xml:space="preserve">
<path d="M417,499.382l-312,311l46,46l311-312L417,499.382z M546,176.382c0,11,3,18,9,22l272,272c4,6,11,9,22,9c9,0,17-3,23-9l45-45
	c6-6,9-14,9-23c0-11-3-18-9-22l-272-272c-4-6-11-9-22-9c-9,0-17,3-23,9l-45,45C549,159.382,546,167.382,546,176.382z M192,1025.382
	H0l32-224l357-357l-2-3c-1,0-1-1-1-2s0-2-1-2l-2-3l-1-1c0-1,0-2-1-2l-70-141c-16-31-7-70,24-93l277-184c34-21,67-17,98,10l292,292
	c27,31,31,64,10,98l-184,277c-23,31-62,40-93,24l-141-70l-4-3c-1,0-1,0-2-1l-2-1c-3-1-4-2-5-3c-2,0-4-1-5-2v71H448v128H320v128H192
	V1025.382z"/>
</svg>
