<?xml version="1.0" encoding="utf-8"?>
<!-- Generator: Adobe Illustrator 15.0.0, SVG Export Plug-In . SVG Version: 6.00 Build 0)  -->
<!DOCTYPE svg PUBLIC "-//W3C//DTD SVG 1.1//EN" "http://www.w3.org/Graphics/SVG/1.1/DTD/svg11.dtd">
<svg version="1.1" id="Layer_1" xmlns="http://www.w3.org/2000/svg" xmlns:xlink="http://www.w3.org/1999/xlink" x="0px" y="0px"
	 width="896px" height="1024px" viewBox="0 0 896 1024" enable-background="new 0 0 896 1024" xml:space="preserve">
<path d="M704,321c-36-1-63-28-63-64s27-63,63-63s63,27,63,63S740,320,704,321z M384,449v64L64,833v-64L384,449z M641,65
	c-145,4-252,111-256,256c0,19,2,38,6,57L0,769v64l64,64h128l64-64v-64h64v-64h64v-64h128l71-71c19,5,38,7,58,7
	c145-4,252-111,256-256C893,176,786,69,641,65z"/>
</svg>
