<?xml version="1.0" encoding="utf-8"?>
<!-- Generator: Adobe Illustrator 15.0.0, SVG Export Plug-In . SVG Version: 6.00 Build 0)  -->
<!DOCTYPE svg PUBLIC "-//W3C//DTD SVG 1.1//EN" "http://www.w3.org/Graphics/SVG/1.1/DTD/svg11.dtd">
<svg version="1.1" id="Layer_1" xmlns="http://www.w3.org/2000/svg" xmlns:xlink="http://www.w3.org/1999/xlink" x="0px" y="0px"
	 width="1152px" height="1024px" viewBox="0 0 1152 1024" enable-background="new 0 0 1152 1024" xml:space="preserve">
<path d="M1023,769l-192-1V641l192-1V769z M767,768l-512,1V640l512,1V768z M191,769l-64-1V641l64-1V769z M1023,576l-128,1V448l128,1
	V576z M831,577l-128-1V449l128-1V577z M639,577l-128-1V449l128-1V577z M447,577l-128-1V449l128-1V577z M255,576l-128,1V448l128,1
	V576z M1023,385l-192-1V257l192-1V385z M767,385l-128-1V257l128-1V385z M575,385l-128-1V257l128-1V385z M383,385l-128-1V257l128-1
	V385z M191,385l-64-1V257l64-1V385z M64,188v640h1024V188H64z M0,832V192c0-36,28-64,64-64h1023c39,3,64,31,64,64v640
	c0,36-28,64-63,64H63c-19,0-33-6-44-19C6,866,0,851,0,832z"/>
</svg>
