<?xml version="1.0" encoding="utf-8"?>
<!-- Generator: Adobe Illustrator 15.0.0, SVG Export Plug-In . SVG Version: 6.00 Build 0)  -->
<!DOCTYPE svg PUBLIC "-//W3C//DTD SVG 1.1//EN" "http://www.w3.org/Graphics/SVG/1.1/DTD/svg11.dtd">
<svg version="1.1" id="Layer_1" xmlns="http://www.w3.org/2000/svg" xmlns:xlink="http://www.w3.org/1999/xlink" x="0px" y="0px"
	 width="1152px" height="1024px" viewBox="0 0 1152 1024" enable-background="new 0 0 1152 1024" xml:space="preserve">
<path d="M831,641v127l192,1V640L831,641z M255,640v129l512-1V641L255,640z M127,641v127l64,1V640L127,641z M895,448v129l128-1V449
	L895,448z M703,449v127l128,1V448L703,449z M511,449v127l128,1V448L511,449z M319,449v127l128,1V448L319,449z M127,448v129l128-1
	V449L127,448z M831,257v127l192,1V256L831,257z M639,257v127l128,1V256L639,257z M447,257v127l128,1V256L447,257z M255,257v127
	l128,1V256L255,257z M127,257v127l64,1V256L127,257z M0,832V192c0-36,28-64,64-64h1023c39,3,64,31,64,64v640c0,36-28,64-63,64H63
	c-19,0-33-6-44-19C6,866,0,851,0,832z"/>
</svg>
