<?xml version="1.0" encoding="utf-8"?>
<!-- Generator: Adobe Illustrator 15.0.0, SVG Export Plug-In . SVG Version: 6.00 Build 0)  -->
<!DOCTYPE svg PUBLIC "-//W3C//DTD SVG 1.1//EN" "http://www.w3.org/Graphics/SVG/1.1/DTD/svg11.dtd">
<svg version="1.1" id="Layer_1" xmlns="http://www.w3.org/2000/svg" xmlns:xlink="http://www.w3.org/1999/xlink" x="0px" y="0px"
	 width="960px" height="1024px" viewBox="0 0 960 1024" enable-background="new 0 0 960 1024" xml:space="preserve">
<path d="M864,608H672l96-180L864,608z M192,428l96,180H96L192,428z M946,608h-18L801,362c37-5,69-19,73-44c2-13-1-24-10-34l-1-1
	c-11-11-27-15-42-8c-16,7-35,13-54,13c-23-3-52-13-87-32s-101-29-200-32c-99,3-165,13-200,32s-64,29-87,32c-20,0-38-7-53-13
	s-31-3-43,8l-1,1c-17,20-13,49,11,62c17,8,34,13,52,16L32,608H14c-8,0-14,7-13,15c13,65,90,112,191,112s178-47,191-112
	c1-8-5-15-13-15h-18L225,363c40-5,74-15,103-28c28-13,57-20,88-21v486c-36,1-63,28-64,64h-71c-29,1-56,28-57,64h512
	c0-36-28-63-71-64h-57c-1-36-28-63-64-64V314c31,1,60,8,89,21c28,13,62,23,102,28L608,608h-18c-8,0-14,7-13,15c13,65,90,112,191,112
	s178-47,191-112C960,615,954,608,946,608z M482,224c35-1,61-27,62-62c0-39-27-66-66-66c-35,1-61,27-62,62C416,195,445,224,482,224z"
	/>
</svg>
