<?xml version="1.0" encoding="utf-8"?>
<!-- Generator: Adobe Illustrator 15.0.0, SVG Export Plug-In . SVG Version: 6.00 Build 0)  -->
<!DOCTYPE svg PUBLIC "-//W3C//DTD SVG 1.1//EN" "http://www.w3.org/Graphics/SVG/1.1/DTD/svg11.dtd">
<svg version="1.1" id="Layer_1" xmlns="http://www.w3.org/2000/svg" xmlns:xlink="http://www.w3.org/1999/xlink" x="0px" y="0px"
	 width="640px" height="1024px" viewBox="0 0 640 1024" enable-background="new 0 0 640 1024" xml:space="preserve">
<path d="M448,448L320,576L192,448v-64l64,64l64-64l64,64l64-64V448z M512,553c-35,29-63,47-64,124v27h-64V576l128-128v-64l-64-64
	l-64,64l-64-64l-64,64l-64-64l-64,64v64l128,128v128h-64v-27c-1-77-29-95-64-124c-40-45-64-104-64-169c4-145,111-252,256-256
	c145,4,252,111,256,256C576,449,552,508,512,553z M448,768v32c0,19-13,32-32,32H224c-19,0-32-13-32-32v-32H448z M320,64
	C139,68,4,203,0,384c1,105,49,197,128,256v192c1,36,28,63,64,64c1,36,28,63,64,64h128c36-1,63-28,64-64c36-1,63-28,64-64V640
	c79-59,127-151,128-256C636,203,501,68,320,64z"/>
</svg>
