<?xml version="1.0" encoding="utf-8"?>
<!-- Generator: Adobe Illustrator 15.0.0, SVG Export Plug-In . SVG Version: 6.00 Build 0)  -->
<!DOCTYPE svg PUBLIC "-//W3C//DTD SVG 1.1//EN" "http://www.w3.org/Graphics/SVG/1.1/DTD/svg11.dtd">
<svg version="1.1" id="Layer_1" xmlns="http://www.w3.org/2000/svg" xmlns:xlink="http://www.w3.org/1999/xlink" x="0px" y="0px"
	 width="960px" height="1024px" viewBox="0 0 960 1024" enable-background="new 0 0 960 1024" xml:space="preserve">
<path d="M-2.5,618c0-36,19-68,43-86c11-10,23-18,35-26c24-15,43-31,43-47c0-18-11-28-29-28c-17,0-31,10-44,31l-45-32
	c17-36,54-58,95-58c52,0,93,32,93,83c0,36-29,67-59,84c-29,16-59,37-59,55h68v-32h56v85H0.5C-1.5,634-2.5,625-2.5,618z M-0.5,955
	l30-47c18,16,37,24,57,24c21,0,39-10,39-30c0-23-19-33-56-30l-14-30c2-4,8-12,17-24c18-24,29-37,43-50c-6,0-15,0-26,0
	c-12,1-20,1-26,1v28h-57v-81h179v47l-51,62c36,8,59,37,59,73c0,58-44,93-102,93C53.5,991,22.5,979-0.5,955z M45.5,142l-38-41l73-68
	h57v217h58v53h-180v-53h57c0-14,0-36,1-65c0-29,0-51,0-65v-7h-1C69.5,119,60.5,129,45.5,142z M322.5,827V699h640v128H322.5z
	 M322.5,571V443h640v128H322.5z M322.5,315V187h640v128H322.5z"/>
</svg>
