<?xml version="1.0" encoding="utf-8"?>
<!-- Generator: Adobe Illustrator 15.0.0, SVG Export Plug-In . SVG Version: 6.00 Build 0)  -->
<!DOCTYPE svg PUBLIC "-//W3C//DTD SVG 1.1//EN" "http://www.w3.org/Graphics/SVG/1.1/DTD/svg11.dtd">
<svg version="1.1" id="Layer_1" xmlns="http://www.w3.org/2000/svg" xmlns:xlink="http://www.w3.org/1999/xlink" x="0px" y="0px"
	 width="960px" height="1024px" viewBox="0 0 960 1024" enable-background="new 0 0 960 1024" xml:space="preserve">
<path d="M480,512L480,512L480,512L480,512L480,512z M480,512L480,512L480,512L480,512L480,512L480,512L480,512L480,512L480,512
	L480,512z M480,512L480,512L480,512L480,512L480,512L480,512L480,512L480,512L480,512z M480,512L480,512L480,512L480,512L480,512
	L480,512L480,512L480,512L480,512L480,512L480,512L480,512L480,512L480,512L480,512L480,512L480,512z M480,512L480,512L480,512
	L480,512L480,512L480,512L480,512L480,512L480,512L480,512L480,512L480,512L480,512z"/>
<path d="M81,795.5l-73-13c6-23,18-40,35-53c17-12,41-18,73-18c36,0,62,7,78,20s24,30,24,51c0,12-3,22-10,32c-6,10-16,18-29,26
	c10,2,19,5,24,9c9,5,17,13,22,22s7,20,7,33c0,16-4,32-12,46c-9,15-21,27-37,35c-15,8-36,11-62,11c-25,0-45-2-59-8c-15-6-27-15-36-26
	c-10-12-17-26-22-43l77-10c3,15,8,26,14,32s14,9,24,9s19-4,26-12c7-7,10-17,10-30c0-12-3-22-10-29c-6-7-15-11-27-11c-6,0-14,2-25,5
	l4-55c5,0,8,1,10,1c10,0,19-4,26-10c6-6,10-14,10-23c0-8-3-15-8-20s-12-7-21-7s-16,2-22,8C87,772.5,83,782.5,81,795.5z M233,651.5H3
	c3-23,11-44,24-64c14-20,39-44,75-71c23-17,37-30,44-38c6-9,9-17,9-25s-3-15-9-21c-7-6-14-9-24-9s-18,3-24,9s-10,17-12,32l-77-6
	c3-21,8-38,16-50s20-22,34-28c15-7,35-10,61-10c27,0,48,3,63,9s27,16,36,29c8,12,12,27,12,43s-4,32-14,48c-10,15-28,32-54,50
	c-16,11-26,18-31,23c-5,4-11,10-18,16h119V651.5z M172,27.5v281H94v-184c-12,9-24,17-36,23s-27,11-44,17v-63c26-8,46-19,60-30
	c15-12,26-27,34-44H172z M317,962.5v-128h640v128H317z M317,706.5v-128h640v128H317z M317,450.5v-128h640v128H317z M317,194.5v-128
	h640v128H317z"/>
</svg>
