<?xml version="1.0" encoding="utf-8"?>
<!-- Generator: Adobe Illustrator 15.0.0, SVG Export Plug-In . SVG Version: 6.00 Build 0)  -->
<!DOCTYPE svg PUBLIC "-//W3C//DTD SVG 1.1//EN" "http://www.w3.org/Graphics/SVG/1.1/DTD/svg11.dtd">
<svg version="1.1" id="Layer_1" xmlns="http://www.w3.org/2000/svg" xmlns:xlink="http://www.w3.org/1999/xlink" x="0px" y="0px"
	 width="960px" height="1024px" viewBox="0 0 960 1024" enable-background="new 0 0 960 1024" xml:space="preserve">
<path d="M480,512L480,512L480,512L480,512L480,512z M480,512L480,512L480,512L480,512L480,512L480,512L480,512L480,512L480,512
	L480,512z M480,512L480,512L480,512L480,512L480,512L480,512L480,512L480,512L480,512z M480,512L480,512L480,512L480,512L480,512
	L480,512L480,512L480,512L480,512L480,512L480,512L480,512L480,512L480,512L480,512L480,512L480,512z M480,512L480,512L480,512
	L480,512L480,512L480,512L480,512L480,512L480,512L480,512L480,512L480,512L480,512z"/>
<path d="M0,832v128h128V832H0z M0,576v128h128V576H0z M0,320v128h128V320H0z M0,64v128h128V64H0z M256,960V832h704v128H256z
	 M256,704V576h704v128H256z M256,448V320h704v128H256z M256,192V64h704v128H256z"/>
</svg>
