<?xml version="1.0" encoding="utf-8"?>
<!-- Generator: Adobe Illustrator 16.0.0, SVG Export Plug-In . SVG Version: 6.00 Build 0)  -->
<!DOCTYPE svg PUBLIC "-//W3C//DTD SVG 1.1//EN" "http://www.w3.org/Graphics/SVG/1.1/DTD/svg11.dtd">
<svg version="1.1" id="Layer_1" xmlns="http://www.w3.org/2000/svg" xmlns:xlink="http://www.w3.org/1999/xlink" x="0px" y="0px"
	 width="1792px" height="1792px" viewBox="0 0 1792 1792" enable-background="new 0 0 1792 1792" xml:space="preserve">
<path d="M1258,768c-53-149-195-256-362-256c-212.08,0-384,171.921-384,384s171.92,384,384,384c167,0,309-107,362-256h278v384
	c0,83-45,128-128,128H384c-83,0-128-45-128-128V384c0-83,45-128,128-128h1408c0-166-90-256-256-256H256C90,0,0,90,0,256v1280
	c0,166,90,256,256,256h1280c166,0,256-90,256-256V896c0-83-45-128-128-128H1258z"/>
</svg>
