<?xml version="1.0" encoding="utf-8"?>
<!-- Generator: Adobe Illustrator 15.0.0, SVG Export Plug-In . SVG Version: 6.00 Build 0)  -->
<!DOCTYPE svg PUBLIC "-//W3C//DTD SVG 1.1//EN" "http://www.w3.org/Graphics/SVG/1.1/DTD/svg11.dtd">
<svg version="1.1" id="Layer_1" xmlns="http://www.w3.org/2000/svg" xmlns:xlink="http://www.w3.org/1999/xlink" x="0px" y="0px"
	 width="960px" height="1024px" viewBox="0 0 960 1024" enable-background="new 0 0 960 1024" xml:space="preserve">
<path d="M512,704c106.04,0,192-85.96,192-192s-85.96-192-192-192s-192,85.96-192,192S405.96,704,512,704z M832,641v255H259
	c-76,0-131-55-131-131V259c0-76,55-131,131-131h701C960,54,905,0,829,0H131C55,0,0,55,0,131v762c0,76,55,131,131,131h698
	c76,0,131-55,131-131V579c0-76-55-131-131-131H576v128h191C805,576,832,603,832,641z"/>
</svg>
