<?xml version="1.0" encoding="utf-8"?>
<!-- Generator: Adobe Illustrator 15.0.0, SVG Export Plug-In . SVG Version: 6.00 Build 0)  -->
<!DOCTYPE svg PUBLIC "-//W3C//DTD SVG 1.1//EN" "http://www.w3.org/Graphics/SVG/1.1/DTD/svg11.dtd">
<svg version="1.1" id="Layer_1" xmlns="http://www.w3.org/2000/svg" xmlns:xlink="http://www.w3.org/1999/xlink" x="0px" y="0px"
	 width="896px" height="1024px" viewBox="0 0 896 1024" enable-background="new 0 0 896 1024" xml:space="preserve">
<path d="M832,446.319v384l-252-192L832,446.319z M768,894.319H128l254-206l66,50l66-50L768,894.319z M64,830.319v-384l252,192
	L64,830.319z M192,435.319v-245h512v245l-256,211L192,435.319z M896,318.319l-128-91v-101H627l-179-128l-179,128H128v101l-128,91
	v640h896V318.319z M384,318.319v-64H256v64H384z M576,446.319v-64H256v64H576z"/>
</svg>
