<?xml version="1.0" encoding="utf-8"?>
<!-- Generator: Adobe Illustrator 15.0.0, SVG Export Plug-In . SVG Version: 6.00 Build 0)  -->
<!DOCTYPE svg PUBLIC "-//W3C//DTD SVG 1.1//EN" "http://www.w3.org/Graphics/SVG/1.1/DTD/svg11.dtd">
<svg version="1.1" id="Layer_1" xmlns="http://www.w3.org/2000/svg" xmlns:xlink="http://www.w3.org/1999/xlink" x="0px" y="0px"
	 width="1024px" height="1024px" viewBox="0 0 1024 1024" enable-background="new 0 0 1024 1024" xml:space="preserve">
<path d="M928,512L767,736L608,512h96V320h128v192H928z M576,320v384H448V512l-96,123l-96-123v192H128V320h128l96,128l96-128H576z
	 M950,192H74c-41,1-73,33-74,74v492c1,41,33,73,74,74h876c41-1,73-33,74-74V266C1023,225,991,193,950,192z"/>
</svg>
