<?xml version="1.0" encoding="utf-8"?>
<!-- Generator: Adobe Illustrator 16.0.0, SVG Export Plug-In . SVG Version: 6.00 Build 0)  -->
<!DOCTYPE svg PUBLIC "-//W3C//DTD SVG 1.1//EN" "http://www.w3.org/Graphics/SVG/1.1/DTD/svg11.dtd">
<svg version="1.1" id="Layer_1" xmlns="http://www.w3.org/2000/svg" xmlns:xlink="http://www.w3.org/1999/xlink" x="0px" y="0px"
	 width="1792px" height="1792px" viewBox="0 0 1792 1792" enable-background="new 0 0 1792 1792" xml:space="preserve">
<path d="M1664,320H128C45,320,0,365,0,448v896c0,83,45,128,128,128h1536c83,0,128-45,128-128V448C1792,365,1747,320,1664,320z
	 M896,576v640H704V896l-160,224L384,896v320H192V576h192l160,224l160-224H896z M1600,896l-288,320l-288-320h192V576h192v320H1600z"
	/>
</svg>
