<?xml version="1.0" encoding="utf-8"?>
<!-- Generator: Adobe Illustrator 15.0.0, SVG Export Plug-In . SVG Version: 6.00 Build 0)  -->
<!DOCTYPE svg PUBLIC "-//W3C//DTD SVG 1.1//EN" "http://www.w3.org/Graphics/SVG/1.1/DTD/svg11.dtd">
<svg version="1.1" id="Layer_1" xmlns="http://www.w3.org/2000/svg" xmlns:xlink="http://www.w3.org/1999/xlink" x="0px" y="0px"
	 width="1024px" height="1024px" viewBox="0 0 1024 1024" enable-background="new 0 0 1024 1024" xml:space="preserve">
<path d="M832,704c-12-1-24-5-35-12c-28-91-70-395,118-494c28,53,45,130,45,218C959,579,904,700,832,704z M261,486c-3-22-5-45-5-70
	c0-80,18-149,47-196c153-9,252-29,319-50c-29,67-46,151-46,246c1,40,4,78,10,114C514,511,412,495,261,486z M197,483
	c-39-1-82-2-128-3c-3-19-5-41-5-64c1-93,28-187,64-192c39,0,75,0,109-1c-28,47-45,114-45,193C192,439,194,462,197,483z M832,32
	c-50,5-111,27-183,64c-73,38-246,59-521,64C56,164,1,271,0,416c1,145,56,252,128,256l64,1l64,287l192,32l64-96l-45-203
	c115,20,194,42,237,67c42,25,85,38,128,40c109-5,189-167,192-384C1021,199,941,37,832,32z"/>
</svg>
