<?xml version="1.0" encoding="utf-8"?>
<!-- Generator: Adobe Illustrator 15.0.0, SVG Export Plug-In . SVG Version: 6.00 Build 0)  -->
<!DOCTYPE svg PUBLIC "-//W3C//DTD SVG 1.1//EN" "http://www.w3.org/Graphics/SVG/1.1/DTD/svg11.dtd">
<svg version="1.1" id="Layer_1" xmlns="http://www.w3.org/2000/svg" xmlns:xlink="http://www.w3.org/1999/xlink" x="0px" y="0px"
	 width="896px" height="1024px" viewBox="0 0 896 1024" enable-background="new 0 0 896 1024" xml:space="preserve">
<path d="M704,576H192V448h512V576z M97,128h702c19,0,33,14,33,33v702c0,19-14,33-33,33H97c-19,0-33-14-33-33V161
	C64,142,78,128,97,128z M0,129v766c0,38,27,65,65,65h766c38,0,65-27,65-65V129c0-38-27-65-65-65H65C27,64,0,91,0,129z"/>
</svg>
