<?xml version="1.0" encoding="utf-8"?>
<!-- Generator: Adobe Illustrator 15.0.0, SVG Export Plug-In . SVG Version: 6.00 Build 0)  -->
<!DOCTYPE svg PUBLIC "-//W3C//DTD SVG 1.1//EN" "http://www.w3.org/Graphics/SVG/1.1/DTD/svg11.dtd">
<svg version="1.1" id="Layer_1" xmlns="http://www.w3.org/2000/svg" xmlns:xlink="http://www.w3.org/1999/xlink" x="0px" y="0px"
	 width="1024px" height="1024px" viewBox="0 0 1024 1024" enable-background="new 0 0 1024 1024" xml:space="preserve">
<path d="M513,390.875c-36,0-63-13-63-32s27-32,63-32s63,13,63,32S549,390.875,513,390.875z M1007,338.875l-488-153c-4-1-8-1-13,0
	l-489,152c-11,5-16,12-16,21c0,10,5,17,16,22l111,35v113c-19,11-32,31-32,55c0,12,3,23,9,32c-5,9-8,20-9,32v165c5,17,27,26,64,26
	s59-9,64-26v-165c0-12-3-23-9-32c11-19,12-45,0-65c-6-9-14-17-23-22v-93l313,98c5,1,9,1,13,0l489-152c11-5,16-12,16-22
	C1023,350.875,1018,343.875,1007,338.875z M500,594.875h1l-245-76v160c2,32,27,56,75,72s108,24,181,24s133-8,181-24s73-40,75-72
	v-160l-245,76C516,596.875,508,596.875,500,594.875z"/>
</svg>
