<?xml version="1.0" encoding="utf-8"?>
<!-- Generator: Adobe Illustrator 15.0.0, SVG Export Plug-In . SVG Version: 6.00 Build 0)  -->
<!DOCTYPE svg PUBLIC "-//W3C//DTD SVG 1.1//EN" "http://www.w3.org/Graphics/SVG/1.1/DTD/svg11.dtd">
<svg version="1.1" id="Layer_1" xmlns="http://www.w3.org/2000/svg" xmlns:xlink="http://www.w3.org/1999/xlink" x="0px" y="0px"
	 width="1024px" height="1024px" viewBox="0 0 1024 1024" enable-background="new 0 0 1024 1024" xml:space="preserve">
<path d="M224,640c-19,0-36-4-52-12l168-168c8,16,12,33,12,52C351,584,296,639,224,640z M96,512c1-72,56-127,128-128c19,0,36,4,52,12
	L108,564C100,548,96,531,96,512z M224,288C97,291,3,385,0,512c3,127,97,221,224,224c127-3,221-97,224-224C445,385,351,291,224,288z
	 M1024,320H896v128H768V320L576,512l192,192V576h192c3,1,13-1,32-8s29-25,32-56V320z"/>
</svg>
