<?xml version="1.0" encoding="utf-8"?>
<!-- Generator: Adobe Illustrator 15.0.0, SVG Export Plug-In . SVG Version: 6.00 Build 0)  -->
<!DOCTYPE svg PUBLIC "-//W3C//DTD SVG 1.1//EN" "http://www.w3.org/Graphics/SVG/1.1/DTD/svg11.dtd">
<svg version="1.1" id="Layer_1" xmlns="http://www.w3.org/2000/svg" xmlns:xlink="http://www.w3.org/1999/xlink" x="0px" y="0px"
	 width="896px" height="1024px" viewBox="0 0 896 1024" enable-background="new 0 0 896 1024" xml:space="preserve">
<path d="M19.5,555c0,132,63,295,151,394c43,50,85,75,125,75c21,0,48-7,81-21c36-13,65-20,87-20c27,0,58,6,93,19c41,13,70,20,86,20
	c30,0,62-16,97-47c61-55,106-131,137-227c-77-24-140-119-140-215c0-80,31-132,111-200c-57-71-114-102-195-102c-29,0-65,7-107,21
	c-40,14-69,21-88,21c-14,0-42-6-85-18c-40-13-76-19-109-19C122.5,236,19.5,368,19.5,555z M439.5,249c65-5,91-15,131-55
	c47-47,75-112,75-168v-6l-2-13c0-2,0-3-1-4l-1-3C510.5,31,442.5,114,439.5,249z"/>
</svg>
