<?xml version="1.0" encoding="utf-8"?>
<!-- Generator: Adobe Illustrator 15.0.0, SVG Export Plug-In . SVG Version: 6.00 Build 0)  -->
<!DOCTYPE svg PUBLIC "-//W3C//DTD SVG 1.1//EN" "http://www.w3.org/Graphics/SVG/1.1/DTD/svg11.dtd">
<svg version="1.1" id="Layer_1" xmlns="http://www.w3.org/2000/svg" xmlns:xlink="http://www.w3.org/1999/xlink" x="0px" y="0px"
	 width="896px" height="1024px" viewBox="0 0 896 1024" enable-background="new 0 0 896 1024" xml:space="preserve">
<path d="M731,342.864H165v410c0,37,31,68,68,68h46v140c0,35,28,63,63,63s64-28,64-63v-140h84v140c0,35,29,63,64,63s63-28,63-63v-140
	h46c37,0,68-31,68-68V342.864z M755,393.864v265c0,35,28,63,63,63s63-28,63-63v-265c0-35-28-63-63-63S755,358.864,755,393.864z
	 M15,393.864v265c0,35,28,63,63,63s63-28,63-63v-265c0-35-30-63-63-63C43,330.864,15,358.864,15,393.864z M561,210.864
	c-5-5-7-10-7-17c0-13,11-24,24-24s23,11,23,24s-10,24-23,24C571,217.864,566,215.864,561,210.864z M301,210.864c-4-5-6-10-6-17
	c0-13,10-24,23-24s24,11,24,24s-11,24-24,24C311,217.864,306,215.864,301,210.864z M163,320.864h569c0-96-56-182-144-227l43-81
	c5-9-8-18-15-9l-44,82c-42-17-83-26-124-26s-82,9-124,26l-44-82c-7-9-20,0-15,9l43,81C219,138.864,163,225.864,163,320.864z"/>
</svg>
