<?xml version="1.0" encoding="utf-8"?>
<!-- Generator: Adobe Illustrator 15.0.0, SVG Export Plug-In . SVG Version: 6.00 Build 0)  -->
<!DOCTYPE svg PUBLIC "-//W3C//DTD SVG 1.1//EN" "http://www.w3.org/Graphics/SVG/1.1/DTD/svg11.dtd">
<svg version="1.1" id="Layer_1" xmlns="http://www.w3.org/2000/svg" xmlns:xlink="http://www.w3.org/1999/xlink" x="0px" y="0px"
	 width="896px" height="1024px" viewBox="0 0 896 1024" enable-background="new 0 0 896 1024" xml:space="preserve">
<path d="M220.226,517.42l2-5c5-6,8-11,9-15c2-6,4-9,6-9l2,2v2c0,3,0,4-1,5s-2,4-2,8c-1,3-3,5-4,6
	C224.226,521.42,220.226,523.42,220.226,517.42z M569.227,306.419h1l2-1c0,1,1,2,2,3l3,4l4,4c6,5,11,7,14,8c11,3,14,13,9,20
	c-3,4-5,6-8,5C579.227,346.419,558.227,317.419,569.227,306.419z M371.226,245.419c0,2,1,3,3,3c1,0,3-2,5-6c1-3,4-5,9-6h-6
	C375.226,237.419,371.226,240.419,371.226,245.419z M421.226,238.419c4-1,7-1,10,2c6,6,9,7,9,2c0-1,0-2-1-3
	C436.226,234.419,430.226,234.419,421.226,238.419z M356.226,203.419l-3-4c0-3,2-4,5-4c9,5,11,13,8,26c0,1,0,2-1,2c-5,0-6-4-5-12
	C361.226,206.419,360.226,203.419,356.226,203.419z M488.227,197.419l-2-1c-3-3-2-4,2-4c3,0,6,0,7,1c6,3,9,10,9,19l-1,1
	c-3,2-5,3-5,2C497.227,205.419,494.227,199.419,488.227,197.419z M192.226,596.42l3-3c2,0,2,4,0,11c-2,13-3,24-2,32c2,24,9,42,20,53
	c9,9,14,8,17-1c2-3,3-14,3-34c0-25,0-38,1-40c7-44,46-127,63-132c-13-20-11-43,6-69c17-29,25-50,25-64v-5c1-5,6-1,14,12
	c16,24,28,38,36,42s17,4,27,0c11-5,24-13,40-25c15-12,27-20,38-25c1-1,3-2,6-3c1,0,2-1,3-2l2-1l6-2l8-6c1-1,2-3,2-5c-1-7-6-9-14-5
	c-5,2-16,7-31,16c-9,6-16,9-20,10c-30,17-56,17-79,0c-5-5-7-8-8-10l-2-1c0-2,2-2,5-1c43,4,50,3,85-12c31-14,50-22,59-24
	c25-8,4-21-4-12c-5,5-9,8-12,10c-12,5-24,10-37,13c-5,3-10,4-13,4c-18,6-37,9-58,9c-16-1-26-5-31-12c-7-9-15-16-23-21c-5-2-6-6-4-11
	c1-7,7-15,20-22c9-5,14-9,15-14c6-6,12-11,18-16c1-1,1-5,1-13c0-17-9-34-21-34c-17,0-25,10-24,29c0,12,9,28,14,28h3c3,0,4,1,1,4
	c-6,11-12,11-18,0c-15-23-14-49,1-77c11-20,36-20,49,6c6,13,9,30,8,50c2,3,5,4,10,3c16-3,28-1,35,6c1,0,1-3,1-9c-7-49,10-74,50-76
	c7,1,12,3,16,4c22,9,33,34,33,76c0,20-17,27-23,20c-3-3-3-8,0-15c8-24-8-52-32-51c-16,1-28,24-25,45c1,9,3,14,6,15c2,0,9,3,21,9
	c11,5,20,9,25,10c24,4,32,18,23,42c-9,25-2,49,19,73c12,17,23,47,34,91c1,0,1,0,2,1l3,3l7,8c9,15,16,28,20,40c11,32,17,66,18,101
	c0,26,1,42,4,47c3,9,11,13,22,11c15,0,25-8,29-24c12-45,2-98-31-159c-13-25-24-40-33-47c27,15,61,65,68,102l4,15l2,14c0,2,1,6,3,12
	c1,2,1,6,1,12s0,10,1,11c1,7,1,11,0,13c-1,5-2,9-2,12c0,6-1,11-3,15l-4,16c21,9,31,17,31,24c-19-13-53-18-77-5c-12,7-18,16-18,29
	c-15,0-24,3-29,10c-14,17-17,48-9,95c4,32,3,63-4,94l-8,44c-15-1-19-11-11-30c9-23,13-41,13-53c1-33-8-40-25-12s-50,44-101,49
	c-46,7-78,1-95-20c-7-5-13-3-19,4c0,1,1,2,2,3c1,3,3,5,5,7c1,1,3,3,4,6l2,3c15,26,13,44-4,53c0-29-7-53-20-72c-9-14-15-22-16-25
	c20-1,49-28,24-59l-6-4c-1-1-4-3-8-7c-4-3-8-6-11-9c-11-9-21-17-29-24c-35-29-54-47-59-52l-2-2l-12-9c-8-6-13-11-14-16
	C181.226,654.42,179.226,622.42,192.226,596.42z M497.227,95.419c-2-5-2-8,1-11c5-5,6-9,4-13c-2-7,0-11,7-11c2,0,7,3,14,8l6,4l2,2
	l3,2v1c1,1,1,1,1,2c-2,3-7,5-14,5h-5c-3,1-6,3-8,5l-2,2l-2,1l-3,3C500.227,96.419,498.227,96.419,497.227,95.419z M15.226,945.42
	c5,8,12,13,21,16c8,3,28,8,59,13l16,3c7,1,11,2,13,3c23,5,51,13,84,25c63,24,84,25,119-6c17-17,42-25,75-25c32-2,54-3,66-3h26
	c29,0,51,1,66,2c11,2,18,7,22,16c12,25,38,37,77,35c18-1,31-4,39-10c32-32,63-55,92-69c1-1,6-4,15-7c23-11,51-24,67-41
	c8-9,11-17,10-25c0-9-8-18-24-27l-9-6l-13-8c-24-17-36-45-36-82c-9,9-11,41,0,70c7,13,17,22,28,26c45,16,56,32,33,49
	c-9,8-23,15-44,21c-57,20-66,26-111,63c-31,24-70,28-90,0c-11-14-14-33-10-56c7-50,7-87-1-112c-5-21-7-40-4-55c5-32,21-39,40-11
	c0,2,2,6,5,11c19,41,76,43,103,4c16-20,26-30,29-31c4,0,8-4,11-12c17-41,7-105-30-191c-17-39-36-70-57-92c-67-73-98-155-93-246
	c5-67-33-152-122-179c-45-13-82-12-113,3c-61,27-82,70-79,149c2,75,5,134,9,177c-5,19-28,56-71,111c-6,5-13,16-22,31
	c-11,20-23,46-34,79c-13,35-23,57-28,66c-7,12-11,21-13,26c-7,15-8,32-5,52c2,9,5,12,9,8c18-13,39-6,64,23c16,17,48,63,97,138l11,21
	c12,21,17,42,16,63c-3,45-46,54-129,28c-25-7-58-15-99-24c-32-6-48-9-49-10c-24-7-26-18-13-43c7-13,10-23,10-28c0-7,0-11-1-12l-7-20
	c-2-2-4-6-5-11c-12-31-6-41,22-38c51,4,81-21,66-69c0,13-2,22-7,29c-11,16-31,25-59,27c-33,1-44,12-36,44l6,25c3,16,1,34-8,53
	C13.226,923.42,12.226,936.42,15.226,945.42z"/>
</svg>
