<?xml version="1.0" encoding="utf-8"?>
<!-- Generator: Adobe Illustrator 15.0.0, SVG Export Plug-In . SVG Version: 6.00 Build 0)  -->
<!DOCTYPE svg PUBLIC "-//W3C//DTD SVG 1.1//EN" "http://www.w3.org/Graphics/SVG/1.1/DTD/svg11.dtd">
<svg version="1.1" id="Layer_1" xmlns="http://www.w3.org/2000/svg" xmlns:xlink="http://www.w3.org/1999/xlink" x="0px" y="0px"
	 width="768px" height="1024px" viewBox="0 0 768 1024" enable-background="new 0 0 768 1024" xml:space="preserve">
<path d="M384,288c-91,1-166,13-226,37c-60,25-91,55-94,91c4-181,139-316,320-320c181,4,316,139,320,320c-2-36-33-66-93-91
	C550,301,475,289,384,288z M384,480c-109,0-198-25-237-64c39-39,128-64,237-64s198,25,237,64C582,455,493,480,384,480z M576,672v32
	c0,19-13,32-32,32s-32-13-32-32v-32c0-19-13-32-32-32s-32,13-32,32v160c0,19-13,32-32,32s-32-13-32-32V704c0-19-13-32-32-32
	s-32,13-32,32v32c-1,36-28,63-64,63s-63-27-64-63v-64c-36-1-63-28-64-64V493c59,31,151,51,256,51s197-20,256-51v115
	C639,644,612,671,576,672z M384,32C167,37,5,199,0,416v64c1,36,28,63,64,64v320c2,36,33,66,94,90c60,25,135,37,226,38
	c91-1,166-13,227-38c60-24,91-54,93-90V544c36-1,63-28,64-64v-64C763,199,601,37,384,32z"/>
</svg>
