<?xml version="1.0" encoding="utf-8"?>
<!-- Generator: Adobe Illustrator 15.0.0, SVG Export Plug-In . SVG Version: 6.00 Build 0)  -->
<!DOCTYPE svg PUBLIC "-//W3C//DTD SVG 1.1//EN" "http://www.w3.org/Graphics/SVG/1.1/DTD/svg11.dtd">
<svg version="1.1" id="Layer_1" xmlns="http://www.w3.org/2000/svg" xmlns:xlink="http://www.w3.org/1999/xlink" x="0px" y="0px"
	 width="1024px" height="1024px" viewBox="0 0 1024 1024" enable-background="new 0 0 1024 1024" xml:space="preserve">
<path d="M192,702L0,893l128,129l192-193L192,702z M209,475c23-83,70-165,141-247l444,443c-61,51-119,90-175,117
	c-111,59-252,50-344-41v-1C200,673,178,583,209,475z M873,660L361,149l87-88l115,116L741-3l91,91L653,266l102,102l178-179l91,90
	L845,458l115,116L873,660z"/>
</svg>
