<?xml version="1.0" encoding="utf-8"?>
<!-- Generator: Adobe Illustrator 15.0.0, SVG Export Plug-In . SVG Version: 6.00 Build 0)  -->
<!DOCTYPE svg PUBLIC "-//W3C//DTD SVG 1.1//EN" "http://www.w3.org/Graphics/SVG/1.1/DTD/svg11.dtd">
<svg version="1.1" id="Layer_1" xmlns="http://www.w3.org/2000/svg" xmlns:xlink="http://www.w3.org/1999/xlink" x="0px" y="0px"
	 width="768px" height="1024px" viewBox="0 0 768 1024" enable-background="new 0 0 768 1024" xml:space="preserve">
<path d="M352,544H192v-64h160V320h64v160h160v64H416v160h-64V544z M64,257v510c0,39,26,65,65,65h510c39,0,65-26,65-65V257
	c0-39-26-65-65-65H129C90,192,64,218,64,257z M0,765V259c0-76,55-131,131-131h506c76,0,131,55,131,131v506c0,76-55,131-131,131H131
	C55,896,0,841,0,765z"/>
</svg>
