<?xml version="1.0" encoding="utf-8"?>
<!-- Generator: Adobe Illustrator 15.0.0, SVG Export Plug-In . SVG Version: 6.00 Build 0)  -->
<!DOCTYPE svg PUBLIC "-//W3C//DTD SVG 1.1//EN" "http://www.w3.org/Graphics/SVG/1.1/DTD/svg11.dtd">
<svg version="1.1" id="Layer_1" xmlns="http://www.w3.org/2000/svg" xmlns:xlink="http://www.w3.org/1999/xlink" x="0px" y="0px"
	 width="1024px" height="1024px" viewBox="0 0 1024 1024" enable-background="new 0 0 1024 1024" xml:space="preserve">
<path d="M384,448V320L192,512l192,192V576h256v128l192-192L640,320v128H384z M832,863v-62c0-19,14-33,33-33h62c19,0,33,14,33,33v62
	c0,19-14,33-33,33h-62C846,896,832,882,832,863z M832,223v-62c0-19,14-33,33-33h62c19,0,33,14,33,33v62c0,19-14,33-33,33h-62
	C846,256,832,242,832,223z M768,769v126c0,39,26,65,65,65h126c39,0,65-26,65-65V769c0-37-27-65-64-65V320c37,0,64-28,64-65V129
	c0-39-26-65-65-65H833c-39,0-65,26-65,65v126c0,37,27,65,64,65v384C795,704,768,732,768,769z M64,863v-62c0-19,14-33,33-33h62
	c19,0,33,14,33,33v62c0,19-14,33-33,33H97C78,896,64,882,64,863z M64,223v-62c0-19,14-33,33-33h62c19,0,33,14,33,33v62
	c0,19-14,33-33,33H97C78,256,64,242,64,223z M0,769v126c0,39,26,65,65,65h126c39,0,65-26,65-65V769c0-37-27-65-64-65V320
	c37,0,64-28,64-65V129c0-39-26-65-65-65H65C26,64,0,90,0,129v126c0,37,27,65,64,65v384C27,704,0,732,0,769z"/>
</svg>
