<?xml version="1.0" encoding="utf-8"?>
<!-- Generator: Adobe Illustrator 15.0.0, SVG Export Plug-In . SVG Version: 6.00 Build 0)  -->
<!DOCTYPE svg PUBLIC "-//W3C//DTD SVG 1.1//EN" "http://www.w3.org/Graphics/SVG/1.1/DTD/svg11.dtd">
<svg version="1.1" id="Layer_1" xmlns="http://www.w3.org/2000/svg" xmlns:xlink="http://www.w3.org/1999/xlink" x="0px" y="0px"
	 width="1024px" height="1024px" viewBox="0 0 1024 1024" enable-background="new 0 0 1024 1024" xml:space="preserve">
<path d="M864,896H736V768h128V896z M736,704h-64v256h256V704h-64V512l-64-64l-64,64V704z M64,223v-62c0-19,14-33,33-33h62
	c19,0,33,14,33,33v62c0,19-14,33-33,33H97C78,256,64,242,64,223z M0,129v126c0,37,27,65,64,65v511c0,39,26,65,65,65h223v128l256-192
	L352,640v128H192V320c37,0,64-28,64-65V129c0-39-26-65-65-65H65C26,64,0,90,0,129z M672,448l-96-96l128-128L576,96l96-96l128,128
	L928,0l96,96L896,224l128,128l-96,96L800,320L672,448z"/>
</svg>
