<?xml version="1.0" encoding="utf-8"?>
<!-- Generator: Adobe Illustrator 15.0.0, SVG Export Plug-In . SVG Version: 6.00 Build 0)  -->
<!DOCTYPE svg PUBLIC "-//W3C//DTD SVG 1.1//EN" "http://www.w3.org/Graphics/SVG/1.1/DTD/svg11.dtd">
<svg version="1.1" id="Layer_1" xmlns="http://www.w3.org/2000/svg" xmlns:xlink="http://www.w3.org/1999/xlink" x="0px" y="0px"
	 width="1024px" height="1024px" viewBox="0 0 1024 1024" enable-background="new 0 0 1024 1024" xml:space="preserve">
<path d="M831,880c19,0,33-14,33-33v-62c0-19-14-33-33-33h-62c-19,0-33,14-33,33v62c0,19,14,33,33,33H831z M864,560v128
	c37,0,64,27,64,65v126c0,38-27,65-65,65H737c-38,0-65-27-65-65V753c0-38,27-65,64-65V560H864z M64,207v-62c0-19,14-33,33-33h62
	c19,0,33,14,33,33v62c0,19-14,33-33,33H97C78,240,64,226,64,207z M0,113v126c0,37,27,65,64,65v511c0,39,26,65,65,65h223v128l256-192
	L352,624v128H192V304c37,0,64-28,64-65V113c0-39-26-65-65-65H65C26,48,0,74,0,113z M736,304H576V176h160V16h128v160h160v128H864v160
	H736V304z"/>
</svg>
