<?xml version="1.0" encoding="utf-8"?>
<!-- Generator: Adobe Illustrator 16.0.0, SVG Export Plug-In . SVG Version: 6.00 Build 0)  -->
<!DOCTYPE svg PUBLIC "-//W3C//DTD SVG 1.1//EN" "http://www.w3.org/Graphics/SVG/1.1/DTD/svg11.dtd">
<svg version="1.1" id="Layer_1" xmlns="http://www.w3.org/2000/svg" xmlns:xlink="http://www.w3.org/1999/xlink" x="0px" y="0px"
	 width="1664px" height="1792px" viewBox="0 0 1664 1792" enable-background="new 0 0 1664 1792" xml:space="preserve">
<path d="M1280,704v512c-83,0-128,45-128,128v256c0,83,45,128,128,128h256c83,0,128-45,128-128v-256c0-83-45-128-128-128V448
	c0-83-45-128-128-128h-384V64L512,448l512,384V576h128C1235,576,1280,621,1280,704z M1344,1344h128c42,0,64,22,64,64v128
	c0,42-22,64-64,64h-128c-42,0-64-22-64-64v-128C1280,1366,1302,1344,1344,1344z M128,704L128,704v512 M384,1216L384,1216V704
	 M384,1216V704c83,0,128-45,128-128V320c0-83-45-128-128-128H128C45,192,0,237,0,320v256c0,83,45,128,128,128v512
	c-83,0-128,45-128,128v256c0,83,45,128,128,128h256c83,0,128-45,128-128v-256C512,1261,467,1216,384,1216z M192,1344h128
	c42,0,64,22,64,64v128c0,42-22,64-64,64H192c-42,0-64-22-64-64v-128C128,1366,150,1344,192,1344z M192,320h128c42,0,64,22,64,64v128
	c0,42-22,64-64,64H192c-42,0-64-22-64-64V384C128,342,150,320,192,320z"/>
</svg>
