<?xml version="1.0" encoding="utf-8"?>
<!-- Generator: Adobe Illustrator 15.0.0, SVG Export Plug-In . SVG Version: 6.00 Build 0)  -->
<!DOCTYPE svg PUBLIC "-//W3C//DTD SVG 1.1//EN" "http://www.w3.org/Graphics/SVG/1.1/DTD/svg11.dtd">
<svg version="1.1" id="Layer_1" xmlns="http://www.w3.org/2000/svg" xmlns:xlink="http://www.w3.org/1999/xlink" x="0px" y="0px"
	 width="896px" height="1024px" viewBox="0 0 896 1024" enable-background="new 0 0 896 1024" xml:space="preserve">
<path d="M588,558.01c-42,83-63,181-63,293l-416-416c107,0,201-19,281-57l13-6c71-36,130-103,176-200l205,211
	C689,428.009,623,487.009,588,558.01z M861,308.009l-208-208c-40-40-108-42-148-2c-9,9-16,20-21,34c-33,69-73,116-118,141l-11,7
	c-68,33-150,50-246,50c-46,0-78,22-96,65c-16,44-6,89,22,113l169,168l-199,279l279-199l167,169c39,40,111,39,150,0
	c19-19,29-44,29-74c0-195,55-304,195-371c13-5,25-13,36-24c20-21,30-46,30-75S881,328.009,861,308.009z"/>
</svg>
