<?xml version="1.0" encoding="utf-8"?>
<!-- Generator: Adobe Illustrator 15.0.0, SVG Export Plug-In . SVG Version: 6.00 Build 0)  -->
<!DOCTYPE svg PUBLIC "-//W3C//DTD SVG 1.1//EN" "http://www.w3.org/Graphics/SVG/1.1/DTD/svg11.dtd">
<svg version="1.1" id="Layer_1" xmlns="http://www.w3.org/2000/svg" xmlns:xlink="http://www.w3.org/1999/xlink" x="0px" y="0px"
	 width="832px" height="1024px" viewBox="0 0 832 1024" enable-background="new 0 0 832 1024" xml:space="preserve">
<path d="M572.063,824.777c0-215,63-337,228-420c33-12,45-54,18-86l-208-209c-32-27-74-14-86,19c-79,164-206,228-421,228
	c-23,0-39,11-48,32c-8,22-4,41,12,56l168,169l-236,315l315-236l169,169c11,11,23,16,38,16
	C549.063,877.777,572.063,855.777,572.063,824.777z"/>
</svg>
