<?xml version="1.0" encoding="utf-8"?>
<!-- Generator: Adobe Illustrator 15.0.0, SVG Export Plug-In . SVG Version: 6.00 Build 0)  -->
<!DOCTYPE svg PUBLIC "-//W3C//DTD SVG 1.1//EN" "http://www.w3.org/Graphics/SVG/1.1/DTD/svg11.dtd">
<svg version="1.1" id="Layer_1" xmlns="http://www.w3.org/2000/svg" xmlns:xlink="http://www.w3.org/1999/xlink" x="0px" y="0px"
	 width="1024px" height="1024px" viewBox="0 0 1024 1024" enable-background="new 0 0 1024 1024" xml:space="preserve">
<path d="M0,329v631c1,1,2,1,3,1l8,1c9,1,15,2,17,2l17,3c61,10,112,15,151,15c59,0,100-33,100-77c0-15-10-36-30-64
	c-20-25-30-55-30-90c0-64,53-107,125-107c69,0,116,41,116,104c0,31-11,59-34,84c-23,23-34,49-34,78c0,44,33,68,89,68
	c35,0,79-4,132-12c25-3,45-5,59-6c1-1,8-1,21-1v-3c0-21-3-45-10-71c-7-31-10-55-10-71c0-51,23-76,68-76c28,0,54,11,79,34
	c23,23,51,34,84,34c63,0,103-47,103-116c0-73-42-124-106-124c-33,0-64,10-91,29c-25,20-46,30-64,30c-43,0-76-41-76-100
	c0-39,5-89,15-151l2-13c0-1,1-6,2-15c1-1,1-3,1-6l2-11v-1c-29,1-63,5-100,11c-48,6-85,9-111,9c-56,0-89-24-89-68c0-28,11-54,34-79
	c23-23,34-50,34-83c0-63-47-104-116-104c-72,0-125,43-125,107c0,35,10,65,30,90c20,28,30,49,30,64c0,44-41,77-100,77
	c-40,0-90-5-151-15l-2-1c-1,0-4-1-11-2l-21-3C5,331,1,330,0,329z"/>
</svg>
