<?xml version="1.0" encoding="utf-8"?>
<!-- Generator: Adobe Illustrator 15.0.0, SVG Export Plug-In . SVG Version: 6.00 Build 0)  -->
<!DOCTYPE svg PUBLIC "-//W3C//DTD SVG 1.1//EN" "http://www.w3.org/Graphics/SVG/1.1/DTD/svg11.dtd">
<svg version="1.1" id="Layer_1" xmlns="http://www.w3.org/2000/svg" xmlns:xlink="http://www.w3.org/1999/xlink" x="0px" y="0px"
	 width="1024px" height="1024px" viewBox="0 0 1024 1024" enable-background="new 0 0 1024 1024" xml:space="preserve">
<path d="M435,726c0-37,32-67,68-66l3-1c43,3,68,31,68,72c-3,39-33,66-70,65l-2,1C456,790,434,767,435,726z M440,405l-113-1v-4
	c1-67,25-117,74-150c35-19,71-28,106-27c51-1,97,12,138,39c40,36,55,67,55,119c0,30-9,57-27,80v1c-5,5-8,9-9,10c-4,5-8,9-13,12
	l-16,13l-18,15l-29,21c-16,9-26,21-29,34l-2,6c-1,7-2,11-2,12v12l-1,4l-109,1v-10c0-8,1-17,2-26c0-14,2-27,7-39c2-5,5-10,9-14
	c7-8,24-22,50-43c6-5,13-11,22-16l10-7l2-1l4-4c1,0,1,0,1-1l2-1l2-2c1-1,3-3,4-4l1-2l4-4l7-12c4-6,7-13,8-20c1-1,1-4,1-10
	c0-11-1-19-4-24c0-1,0-2-1-3l-3-9c-6-9-11-16-16-20c-12-6-21-9-27-10c-10,0-16,0-18-1c-29,3-48,12-55,26c-11,17-17,35-17,54V405z
	 M40,314C13,375,0,441,0,512c0,139,54,269,150,362c93,96,223,150,362,150c142,0,263-50,363-150c95-95,149-225,149-362
	c0-136-54-267-149-363C779,54,648,0,512,0S245,54,150,149C103,196,66,251,40,314z"/>
</svg>
