<?xml version="1.0" encoding="utf-8"?>
<!-- Generator: Adobe Illustrator 15.0.0, SVG Export Plug-In . SVG Version: 6.00 Build 0)  -->
<!DOCTYPE svg PUBLIC "-//W3C//DTD SVG 1.1//EN" "http://www.w3.org/Graphics/SVG/1.1/DTD/svg11.dtd">
<svg version="1.1" id="Layer_1" xmlns="http://www.w3.org/2000/svg" xmlns:xlink="http://www.w3.org/1999/xlink" x="0px" y="0px"
	 width="1024px" height="1024px" viewBox="0 0 1024 1024" enable-background="new 0 0 1024 1024" xml:space="preserve">
<path d="M512,896c-212.079,0-384-171.921-384-384s171.921-384,384-384s384,171.921,384,384S724.079,896,512,896z M40,314
	C13,375,0,441,0,512c0,139,54,269,150,362c93,96,223,150,362,150c142,0,263-50,363-150c95-95,149-225,149-362c0-136-54-267-149-363
	C779,54,648,0,512,0S245,54,150,149C103,196,66,251,40,314z M435,726c-1,41,21,64,67,71l2-1c37,1,67-26,70-65c0-41-25-69-68-72l-3,1
	C467,659,435,689,435,726z M327,404l113,1v-6c0-19,6-37,17-54c7-14,26-23,55-26c2,1,8,1,18,1c6,1,15,4,27,10c5,4,10,11,16,20l3,9
	c1,1,1,2,1,3c3,5,4,13,4,24c0,6,0,9-1,10c-1,7-4,14-8,20l-7,12l-4,4l-1,2c-1,1-3,3-4,4l-2,2c-1,0-4,2-7,6l-2,1l-10,7
	c-9,5-16,11-22,16c-26,21-43,35-50,43c-4,4-7,9-9,14c-5,12-7,25-7,39c-1,9-2,18-2,26v10l109-1l1-4v-12c0-1,1-5,2-12l2-6
	c3-13,13-25,29-34l29-21l18-15l16-13c5-3,9-7,13-12c1-1,4-5,9-10v-1c18-23,27-50,27-80c0-52-15-83-55-119c-41-27-87-40-138-39
	c-35-1-71,8-106,27c-49,33-73,83-74,150V404z"/>
</svg>
