<?xml version="1.0" encoding="utf-8"?>
<!-- Generator: Adobe Illustrator 15.0.0, SVG Export Plug-In . SVG Version: 6.00 Build 0)  -->
<!DOCTYPE svg PUBLIC "-//W3C//DTD SVG 1.1//EN" "http://www.w3.org/Graphics/SVG/1.1/DTD/svg11.dtd">
<svg version="1.1" id="Layer_1" xmlns="http://www.w3.org/2000/svg" xmlns:xlink="http://www.w3.org/1999/xlink" x="0px" y="0px"
	 width="1024px" height="1024px" viewBox="0 0 1024 1024" enable-background="new 0 0 1024 1024" xml:space="preserve">
<path d="M576.5,602.065v-192h96v-128h-320v128h96v192h-64v384h256v-384H576.5z M170.5,100.065c-58,64-89,147-90,227s28,164,85,228
	c6,8,6,19-2,27l-30,30c-8,7-21,7-28-1c-69-79-106-180-105-285s41-206,112-282v-1c8-7,20-7,27,1l30,30
	C176.5,81.065,176.5,93.065,170.5,100.065z M275.5,207.065c-59,70-60,173-3,244c7,8,6,19-1,25l-29,29c-8,8-21,7-28-2
	c-41-49-63-111-62-175s24-126,66-174l1-1c8-8,19-8,27,0l28,29C281.5,189.065,282.5,200.065,275.5,207.065z M749.5,182.065l28-29
	c8-8,19-8,27,0l1,1c42,48,65,110,66,174s-21,126-62,175c-7,9-20,10-28,2l-29-29c-7-6-8-17-1-25c57-71,56-174-3-244
	C741.5,200.065,742.5,189.065,749.5,182.065z M854.5,74.065l30-30c7-8,19-8,27-1v1c71,76,111,177,112,282s-36,206-105,285
	c-7,8-20,8-28,1l-30-30c-8-8-8-19-2-27c57-64,86-148,85-228s-32-163-90-227C847.5,93.065,847.5,81.065,854.5,74.065z"/>
</svg>
