<?xml version="1.0" encoding="utf-8"?>
<!-- Generator: Adobe Illustrator 15.0.0, SVG Export Plug-In . SVG Version: 6.00 Build 0)  -->
<!DOCTYPE svg PUBLIC "-//W3C//DTD SVG 1.1//EN" "http://www.w3.org/Graphics/SVG/1.1/DTD/svg11.dtd">
<svg version="1.1" id="Layer_1" xmlns="http://www.w3.org/2000/svg" xmlns:xlink="http://www.w3.org/1999/xlink" x="0px" y="0px"
	 width="896px" height="1024px" viewBox="0 0 896 1024" enable-background="new 0 0 896 1024" xml:space="preserve">
<path d="M640,864H192v-64h448V864z M256,672h-64v-64h64V672z M256,544h-64v-64h64V544z M256,416h-64v-64h64V416z M256,288h-64v-64
	h64V288z M608,416l-96-96l96-96l-96-96l96-96l96,96l96-96l96,96l-96,96l96,96l-96,96l-96-96L608,416z M0,927V97c0-39,26-65,65-65
	h319v64H193c-39,0-65,26-65,65v702c0,39,26,65,65,65h510c39,0,65-26,65-65V544h64v383c0,39-26,65-65,65H65C26,992,0,966,0,927z"/>
</svg>
