<?xml version="1.0" encoding="utf-8"?>
<!-- Generator: Adobe Illustrator 15.0.0, SVG Export Plug-In . SVG Version: 6.00 Build 0)  -->
<!DOCTYPE svg PUBLIC "-//W3C//DTD SVG 1.1//EN" "http://www.w3.org/Graphics/SVG/1.1/DTD/svg11.dtd">
<svg version="1.1" id="Layer_1" xmlns="http://www.w3.org/2000/svg" xmlns:xlink="http://www.w3.org/1999/xlink" x="0px" y="0px"
	 width="832px" height="1024px" viewBox="0 0 832 1024" enable-background="new 0 0 832 1024" xml:space="preserve">
<path d="M640,864H192v-64h448V864z M256,672h-64v-64h64V672z M256,544h-64v-64h64V544z M256,416h-64v-64h64V416z M704,672H352V416
	c0-103,80-192,176-192c37,0,75,11,112,32l-35,65c-21-22-46-33-77-33c-63,0-112,59-112,128h288V672z M256,288h-64v-64h64V288z
	 M128,161v702c0,39,26,65,65,65h510c39,0,65-26,65-65V161c0-39-26-65-65-65H193C154,96,128,122,128,161z M0,927V97c0-39,26-65,65-65
	h702c39,0,65,26,65,65v830c0,39-26,65-65,65H65C26,992,0,966,0,927z"/>
</svg>
