<?xml version="1.0" encoding="utf-8"?>
<!-- Generator: Adobe Illustrator 16.0.0, SVG Export Plug-In . SVG Version: 6.00 Build 0)  -->
<!DOCTYPE svg PUBLIC "-//W3C//DTD SVG 1.1//EN" "http://www.w3.org/Graphics/SVG/1.1/DTD/svg11.dtd">
<svg version="1.1" id="Layer_1" xmlns="http://www.w3.org/2000/svg" xmlns:xlink="http://www.w3.org/1999/xlink" x="0px" y="0px"
	 width="1536px" height="1792px" viewBox="0 0 1536 1792" enable-background="new 0 0 1536 1792" xml:space="preserve">
<path d="M1280,640H768V512c0-71,57-128,128-128c40,0,76,18,99,47l103-76c-47-60-120-99-202-99c-141,0-256,115-256,256v128H512v512
	h768V640z M1408,128H384v1152h1024V128z M1536,128v1536c0,83-45,128-128,128H128c-83,0-128-45-128-128V128C0,45,45,0,128,0h1280
	C1491,0,1536,45,1536,128z M128,1408v192c0,42,22,64,64,64h1152c42,0,64-22,64-64v-192H128z"/>
</svg>
