<?xml version="1.0" encoding="utf-8"?>
<!-- Generator: Adobe Illustrator 16.0.0, SVG Export Plug-In . SVG Version: 6.00 Build 0)  -->
<!DOCTYPE svg PUBLIC "-//W3C//DTD SVG 1.1//EN" "http://www.w3.org/Graphics/SVG/1.1/DTD/svg11.dtd">
<svg version="1.1" id="Layer_1" xmlns="http://www.w3.org/2000/svg" xmlns:xlink="http://www.w3.org/1999/xlink" x="0px" y="0px"
	 width="1664px" height="1792px" viewBox="0 0 1664 1792" enable-background="new 0 0 1664 1792" xml:space="preserve">
<path d="M1302,543l-181,181L940,543l181-181L940,181L1121,0l181,181L1483,0l181,181l-181,181l181,181l-181,181L1302,543z M1536,1024
	v640c0,83-45,128-128,128H128c-83,0-128-45-128-128V128C0,45,45,0,128,0h640v128H384v1152h1024v-256H1536z M128,1408v192
	c0,42,22,64,64,64h1152c42,0,64-22,64-64v-192H128z M512,256v128h128V256H512z M512,1024v128h128v-128H512z M512,768v128h128V768
	H512z M512,512v128h128V512H512z"/>
</svg>
