<?xml version="1.0" encoding="utf-8"?>
<!-- Generator: Adobe Illustrator 15.0.0, SVG Export Plug-In . SVG Version: 6.00 Build 0)  -->
<!DOCTYPE svg PUBLIC "-//W3C//DTD SVG 1.1//EN" "http://www.w3.org/Graphics/SVG/1.1/DTD/svg11.dtd">
<svg version="1.1" id="Layer_1" xmlns="http://www.w3.org/2000/svg" xmlns:xlink="http://www.w3.org/1999/xlink" x="0px" y="0px"
	 width="1024px" height="1024px" viewBox="0 0 1024 1024" enable-background="new 0 0 1024 1024" xml:space="preserve">
<path d="M785.008,87c11,91,60,140,151,151c33-69,56-125,69-170c26-88,38-76-50-50C910.008,31,854.008,54,785.008,87z M716.008,124
	c-73,41-148,96-219,167c-45,45-81,88-110,129l-178,33l-210,210l187,6l131-132c-22,49-36,87-42,116s-9,43-8,44l59,59c1,1,16-2,45-9
	s68-21,117-44l-134,134l6,187l210-210l33-179c83-57,168-143,224-218c27-37,51-74,72-110c-47-9-88-29-121-62S725.008,171,716.008,124
	z"/>
</svg>
