<?xml version="1.0" encoding="utf-8"?>
<!-- Generator: Adobe Illustrator 15.0.0, SVG Export Plug-In . SVG Version: 6.00 Build 0)  -->
<!DOCTYPE svg PUBLIC "-//W3C//DTD SVG 1.1//EN" "http://www.w3.org/Graphics/SVG/1.1/DTD/svg11.dtd">
<svg version="1.1" id="Layer_1" xmlns="http://www.w3.org/2000/svg" xmlns:xlink="http://www.w3.org/1999/xlink" x="0px" y="0px"
	 width="896px" height="1024px" viewBox="0 0 896 1024" enable-background="new 0 0 896 1024" xml:space="preserve">
<path d="M607.818,226.296c-15,15-22,34-22,57c0,45,34,80,78,80s78-35,78-80s-35-80-78-80
	C643.818,203.296,624.818,211.296,607.818,226.296z M6.818,653.296l35-86l24-61c29-79,61-111,120-119c30-3,72-1,126,6l45-58
	c27-35,66-76,119-123c133-115,260-165,383-148h4c3,1,5,2,7,4l5,5c0,1,0,2,1,2l2,8c16,120-31,249-140,386c-42,52-84,95-125,128
	l-56,46c13,104,7,162-28,201c-18,19-45,36-82,51c-60,24-108,44-144,61c-43,16-64-11-48-48c3-7,11-30,25-69l11-31l4-12l-132-136
	c-1,0-2,0-3,1s-2,1-4,1c-1,0-4,1-5,2c-9,3-19,7-30,12l-36,14c-6,3-14,6-24,9c-4,3-16,6-19,6c-16,3-23,1-32-6
	C-2.182,690.296-3.182,674.296,6.818,653.296z"/>
</svg>
