<?xml version="1.0" encoding="utf-8"?>
<!-- Generator: Adobe Illustrator 15.0.0, SVG Export Plug-In . SVG Version: 6.00 Build 0)  -->
<!DOCTYPE svg PUBLIC "-//W3C//DTD SVG 1.1//EN" "http://www.w3.org/Graphics/SVG/1.1/DTD/svg11.dtd">
<svg version="1.1" id="Layer_1" xmlns="http://www.w3.org/2000/svg" xmlns:xlink="http://www.w3.org/1999/xlink" x="0px" y="0px"
	 width="768px" height="1024px" viewBox="0 0 768 1024" enable-background="new 0 0 768 1024" xml:space="preserve">
<path d="M128,191c-3-1-13,1-32,8s-29,25-32,56c3,31,13,49,32,56s29,9,32,8c291,7,505,221,512,512c-1,3,1,13,8,32s25,29,56,32
	c31-3,49-13,56-32s9-29,8-32C759,468,491,200,128,191z M128,447c-3-1-13,1-32,8s-29,26-32,56c3,30,13,48,32,55s29,10,32,9
	c145,4,252,111,256,256c-1,3,1,13,8,32s25,29,56,32c31-3,49-13,56-32s9-29,8-32C507,614,345,452,128,447z M128,703
	C56,704,1,759,0,831c1,72,56,127,128,128c72-1,127-56,128-128C255,759,200,704,128,703z"/>
</svg>
