<?xml version="1.0" encoding="utf-8"?>
<!-- Generator: Adobe Illustrator 15.0.0, SVG Export Plug-In . SVG Version: 6.00 Build 0)  -->
<!DOCTYPE svg PUBLIC "-//W3C//DTD SVG 1.1//EN" "http://www.w3.org/Graphics/SVG/1.1/DTD/svg11.dtd">
<svg version="1.1" id="Layer_1" xmlns="http://www.w3.org/2000/svg" xmlns:xlink="http://www.w3.org/1999/xlink" x="0px" y="0px"
	 width="1024px" height="1024px" viewBox="0 0 1024 1024" enable-background="new 0 0 1024 1024" xml:space="preserve">
<path d="M512,768v128h64V768H512z M384,768v128h64V768H384z M256,768v128h64V768H256z M128,768v128h64V768H128z M512,448v128h64V448
	H512z M384,448v128h64V448H384z M256,448v128h64V448H256z M128,448v128h64V448H128z M512,128v128h64V128H512z M384,128v128h64V128
	H384z M832,768v64h64v-64H832z M192,640v64h704v-64H192z M832,448v64h64v-64H832z M192,320v64h704v-64H192z M832,128v64h64v-64H832z
	 M256,128v128h64V128H256z M128,128v128h64V128H128z M1024,960H0V704h128v-64H0V384h128v-64H0V64h1024v256h-64v64h64v256h-64v64h64
	V960z"/>
</svg>
