<?xml version="1.0" encoding="utf-8"?>
<!-- Generator: Adobe Illustrator 15.0.0, SVG Export Plug-In . SVG Version: 6.00 Build 0)  -->
<!DOCTYPE svg PUBLIC "-//W3C//DTD SVG 1.1//EN" "http://www.w3.org/Graphics/SVG/1.1/DTD/svg11.dtd">
<svg version="1.1" id="Layer_1" xmlns="http://www.w3.org/2000/svg" xmlns:xlink="http://www.w3.org/1999/xlink" x="0px" y="0px"
	 width="896px" height="1024px" viewBox="0 0 896 1024" enable-background="new 0 0 896 1024" xml:space="preserve">
<path d="M576,449v128h128V449H576z M0,577V449h512v-31c0-19,14-33,33-33h190c19,0,33,14,33,33v31h128v128H768v31c0,19-14,33-33,33
	H545c-19,0-33-14-33-33v-31H0z M192,769v128h128V769H192z M0,897V769h128v-31c0-19,14-33,33-33h190c19,0,33,14,33,33v31h512v128H384
	v31c0,19-14,33-33,33H161c-19,0-33-14-33-33v-31H0z M192,129v128h128V129H192z M0,257V129h128V98c0-19,14-33,33-33h190
	c19,0,33,14,33,33v31h512v128H384v31c0,19-14,33-33,33H161c-19,0-33-14-33-33v-31H0z"/>
</svg>
