<?xml version="1.0" encoding="utf-8"?>
<!-- Generator: Adobe Illustrator 15.0.0, SVG Export Plug-In . SVG Version: 6.00 Build 0)  -->
<!DOCTYPE svg PUBLIC "-//W3C//DTD SVG 1.1//EN" "http://www.w3.org/Graphics/SVG/1.1/DTD/svg11.dtd">
<svg version="1.1" id="Layer_1" xmlns="http://www.w3.org/2000/svg" xmlns:xlink="http://www.w3.org/1999/xlink" x="0px" y="0px"
	 width="768px" height="1024px" viewBox="0 0 768 1024" enable-background="new 0 0 768 1024" xml:space="preserve">
<path d="M476,369c24,29,60,49,100,49c71,0,128-57,128-128s-57-128-128-128s-129,53-129,124L223,392c-24-26-57-42-95-42
	C57,350,0,407,0,478s57,128,128,128c31,0,56-8,78-29l182,129c-3,10-4,17-4,28c0,71,57,128,128,128s128-57,128-128s-57-128-128-128
	c-29,0-59,13-74,25L249,500c3-4.667,6-14.667,6-25L476,369z"/>
</svg>
