<?xml version="1.0" encoding="utf-8"?>
<!-- Generator: Adobe Illustrator 15.0.0, SVG Export Plug-In . SVG Version: 6.00 Build 0)  -->
<!DOCTYPE svg PUBLIC "-//W3C//DTD SVG 1.1//EN" "http://www.w3.org/Graphics/SVG/1.1/DTD/svg11.dtd">
<svg version="1.1" id="Layer_1" xmlns="http://www.w3.org/2000/svg" xmlns:xlink="http://www.w3.org/1999/xlink" x="0px" y="0px"
	 width="960px" height="1024px" viewBox="0 0 960 1024" enable-background="new 0 0 960 1024" xml:space="preserve">
<path fill="#020303" d="M800,704c-44.199,0-84.199,18-113.199,46.801L316.6,545.199C318.801,534.4,320,523.4,320,512
	s-1.199-22.4-3.4-33.2L687,273.2C715.801,302,755.801,320,800,320c88.4,0,160-71.6,160-160S888.4,0,800,0S640,71.6,640,160
	c0,9.6,0.801,18.8,2.4,28l-373,207.2C240.6,368.4,202.199,352,160,352C71.6,352,0,423.6,0,512s71.6,160,160,160
	c42.199,0,80.6-16.4,109.4-43.199L642.4,836c-1.6,9-2.4,18.4-2.4,28c0,88.4,71.6,160,160,160s160-71.6,160-160S888.4,704,800,704z"
	/>
</svg>
