<?xml version="1.0" encoding="utf-8"?>
<!-- Generator: Adobe Illustrator 15.0.0, SVG Export Plug-In . SVG Version: 6.00 Build 0)  -->
<!DOCTYPE svg PUBLIC "-//W3C//DTD SVG 1.1//EN" "http://www.w3.org/Graphics/SVG/1.1/DTD/svg11.dtd">
<svg version="1.1" id="Layer_1" xmlns="http://www.w3.org/2000/svg" xmlns:xlink="http://www.w3.org/1999/xlink" x="0px" y="0px"
	 width="1024px" height="1024px" viewBox="0 0 1024 1024" enable-background="new 0 0 1024 1024" xml:space="preserve">
<path d="M150,150c-47,47-83,102-109,163S0,441,0,512c0,141,57,270,150,362c92,93,221,150,362,150s270-57,363-150
	c92-92,149-221,149-362c0-71-14-138-40-199s-63-116-110-163L771,253c33,33,61,73,79,116c18,44,28,92,28,143c0,101-40,192-107,259
	S613,878,512,878s-192-40-259-107S146,613,146,512c0-51,11-99,29-143c18-43,45-83,78-116L150,150z M439,0v592h146V0H439z"/>
</svg>
