<?xml version="1.0" encoding="utf-8"?>
<!-- Generator: Adobe Illustrator 15.0.0, SVG Export Plug-In . SVG Version: 6.00 Build 0)  -->
<!DOCTYPE svg PUBLIC "-//W3C//DTD SVG 1.1//EN" "http://www.w3.org/Graphics/SVG/1.1/DTD/svg11.dtd">
<svg version="1.1" id="Layer_1" xmlns="http://www.w3.org/2000/svg" xmlns:xlink="http://www.w3.org/1999/xlink" x="0px" y="0px"
	 width="640px" height="1024px" viewBox="0 0 640 1024" enable-background="new 0 0 640 1024" xml:space="preserve">
<path d="M503,320c-76,1-118,84-118,209c2,33,11,61,26,84c15,24,23,54,24,89c-1,21-6,43-13,64c-8,21-12,40-13,56c0,89,37,138,94,138
	c56-3,89-70,102-161l23-144c7-40,10-77,11-111C638,417,580,323,503,320z M136,64C59,67,1,161,0,288c1,34,4,71,11,111l23,144
	c13,91,46,158,102,161c57,0,93-49,94-138c-1-16-5-35-12-56c-8-21-13-43-14-64c1-35,10-65,25-89c15-23,23-51,25-84
	C254,148,212,65,136,64z"/>
</svg>
