<?xml version="1.0" encoding="utf-8"?>
<!-- Generator: Adobe Illustrator 15.0.0, SVG Export Plug-In . SVG Version: 6.00 Build 0)  -->
<!DOCTYPE svg PUBLIC "-//W3C//DTD SVG 1.1//EN" "http://www.w3.org/Graphics/SVG/1.1/DTD/svg11.dtd">
<svg version="1.1" id="Layer_1" xmlns="http://www.w3.org/2000/svg" xmlns:xlink="http://www.w3.org/1999/xlink" x="0px" y="0px"
	 width="768px" height="1024px" viewBox="0 0 768 1024" enable-background="new 0 0 768 1024" xml:space="preserve">
<path d="M189,320c99-93,236-104,347-35l-75,73l275,39l-38-269l-84,81C457,97,255,108,112,243C32,323-4,425,0,528l113,23
	C101,467,126,384,189,320z M768,496l-113-23c12,84-13,167-76,231c-99,93-236,104-347,35l75-73L32,627l38,269l84-81
	c157,112,359,101,502-34C736,701,772,600,768,496z"/>
</svg>
