<?xml version="1.0" encoding="utf-8"?>
<!-- Generator: Adobe Illustrator 15.0.0, SVG Export Plug-In . SVG Version: 6.00 Build 0)  -->
<!DOCTYPE svg PUBLIC "-//W3C//DTD SVG 1.1//EN" "http://www.w3.org/Graphics/SVG/1.1/DTD/svg11.dtd">
<svg version="1.1" id="Layer_1" xmlns="http://www.w3.org/2000/svg" xmlns:xlink="http://www.w3.org/1999/xlink" x="0px" y="0px"
	 width="1024px" height="1024px" viewBox="0 0 1024 1024" enable-background="new 0 0 1024 1024" xml:space="preserve">
<path d="M704,704v192h256V704H704z M384,704v192h256V704H384z M64,704v192h256V704H64z M704,448v192h256V448H704z M384,448v192h256
	V448H384z M64,448v192h256V448H64z M704,192v192h256V192H704z M384,192v192h256V192H384z M64,192v192h256V192H64z M1024,960H0V64
	h1024V960z"/>
</svg>
