<?xml version="1.0" encoding="utf-8"?>
<!-- Generator: Adobe Illustrator 15.0.0, SVG Export Plug-In . SVG Version: 6.00 Build 0)  -->
<!DOCTYPE svg PUBLIC "-//W3C//DTD SVG 1.1//EN" "http://www.w3.org/Graphics/SVG/1.1/DTD/svg11.dtd">
<svg version="1.1" id="Layer_1" xmlns="http://www.w3.org/2000/svg" xmlns:xlink="http://www.w3.org/1999/xlink" x="0px" y="0px"
	 width="1024px" height="1024px" viewBox="0 0 1024 1024" enable-background="new 0 0 1024 1024" xml:space="preserve">
<path d="M640.25,705.051v128h128v128h128v-128h128v-128h-128v-128h-128v128H640.25z M598.25,332.051c0,48,48,95,95,95s95-47,95-95
	c0-47-48-94-95-94S598.25,285.051,598.25,332.051z M423.25,1009.051l-407-407c-22-22-22-44,0-66l510-511c17-16,37-24,59-24h392
	c31,0,47,16,47,47v401h-96v-352h-320l-480,480l320,320l32-32l9,144C480.25,1026.051,444.25,1029.051,423.25,1009.051z"/>
</svg>
