<?xml version="1.0" encoding="utf-8"?>
<!-- Generator: Adobe Illustrator 15.0.0, SVG Export Plug-In . SVG Version: 6.00 Build 0)  -->
<!DOCTYPE svg PUBLIC "-//W3C//DTD SVG 1.1//EN" "http://www.w3.org/Graphics/SVG/1.1/DTD/svg11.dtd">
<svg version="1.1" id="Layer_1" xmlns="http://www.w3.org/2000/svg" xmlns:xlink="http://www.w3.org/1999/xlink" x="0px" y="0px"
	 width="1024px" height="1024px" viewBox="0 0 1024 1024" enable-background="new 0 0 1024 1024" xml:space="preserve">
<path d="M598.25,330.75c0-47,48-94,95-94s95,47,95,94c0,48-48,95-95,95S598.25,378.75,598.25,330.75z M456.25,898.75l-331-331
	l473-473h331v331L456.25,898.75z M16.25,600.75l407,407c22,22,44,22,66,0l511-510c16-17,24-37,24-59v-392c0-31-16-47-47-47h-392
	c-22,0-42,8-59,24l-510,511C-5.75,556.75-5.75,578.75,16.25,600.75z"/>
</svg>
