<?xml version="1.0" encoding="utf-8"?>
<!-- Generator: Adobe Illustrator 15.0.0, SVG Export Plug-In . SVG Version: 6.00 Build 0)  -->
<!DOCTYPE svg PUBLIC "-//W3C//DTD SVG 1.1//EN" "http://www.w3.org/Graphics/SVG/1.1/DTD/svg11.dtd">
<svg version="1.1" id="Layer_1" xmlns="http://www.w3.org/2000/svg" xmlns:xlink="http://www.w3.org/1999/xlink" x="0px" y="0px"
	 width="1024px" height="1024px" viewBox="0 0 1024 1024" enable-background="new 0 0 1024 1024" xml:space="preserve">
<path d="M585.125,343.875c0-47,48-94,95-94s95,47,95,94c0,48-48,95-95,95S585.125,391.875,585.125,343.875z M33.125,634.875l356,356
	c27,27,65,27,92,0l514-514c11-11,16-24,16-38v-361c0-38-27-65-65-65h-361c-14,0-27,5-38,16l-514,514
	C6.125,569.875,6.125,607.875,33.125,634.875z"/>
</svg>
