<?xml version="1.0" encoding="utf-8"?>
<!-- Generator: Adobe Illustrator 15.0.0, SVG Export Plug-In . SVG Version: 6.00 Build 0)  -->
<!DOCTYPE svg PUBLIC "-//W3C//DTD SVG 1.1//EN" "http://www.w3.org/Graphics/SVG/1.1/DTD/svg11.dtd">
<svg version="1.1" id="Layer_1" xmlns="http://www.w3.org/2000/svg" xmlns:xlink="http://www.w3.org/1999/xlink" x="0px" y="0px"
	 width="1024px" height="1024px" viewBox="0 0 1024 1024" enable-background="new 0 0 1024 1024" xml:space="preserve">
<path d="M693.5,420c-19-19-28-41-28-68c0-53,43-96,96-96s96,43,96,96s-43,96-96,96C734.5,448,712.5,439,693.5,420z M665.5,160
	l-384,384l288,288l384-384V160H665.5z M473.5,160h-96l-361,361c-7,7-10,14-10,23s3,16,10,23l361,361v-96l-288-288L473.5,160z
	 M546.5,905l-338-338c-7-7-10-14-10-23s3-16,10-23l417-417c5-5,12-8,19-8h340c19,0,33,14,33,33v340c0,7-3,14-8,19l-417,417
	c-7,7-14,10-23,10S553.5,912,546.5,905z"/>
</svg>
