<?xml version="1.0" encoding="utf-8"?>
<!-- Generator: Adobe Illustrator 15.0.0, SVG Export Plug-In . SVG Version: 6.00 Build 0)  -->
<!DOCTYPE svg PUBLIC "-//W3C//DTD SVG 1.1//EN" "http://www.w3.org/Graphics/SVG/1.1/DTD/svg11.dtd">
<svg version="1.1" id="Layer_1" xmlns="http://www.w3.org/2000/svg" xmlns:xlink="http://www.w3.org/1999/xlink" x="0px" y="0px"
	 width="960px" height="1024px" viewBox="0 0 960 1024" enable-background="new 0 0 960 1024" xml:space="preserve">
<path d="M868.611,235.219c-17,4-40-16-50-51s-5-65,13-70c18-4,41,16,50,51S885.611,230.219,868.611,235.219z M938.611,145.219
	c-20-69-69-109-122-96c-33,9-61,16-86,23c-49,14-133,26-156,81c-24,56-2,137,45,176c23,20,48,27,75,21c41-11,75-21,100-28
	c50-14,120-20,141-79C946.611,214.219,947.611,181.219,938.611,145.219z M509.611,657.219v-64h-128v64l-320,320h128l192-128v128h128
	v-128l192,128h128L509.611,657.219z M89.612,440.219h1c23-6,66-17,127-33l102-26l-2,19c1,73,48,127,128,128c80-3,127-57,128-128
	c-1-11-7-22-19-32l49,3c0,0,2-1,7-2l24-6c-53,12-106-30-125-100s6-132,59-148l-24,6c-5,1-7,2-7,2l-168,110c-35,11-54,45-46,80
	c3,9,7,17,12,23c-7,12-12,25-15,40c-28-1-51-19-59-46c-8-35,10-67,45-78l-245,65c-35,11-53,42-44,77
	C25.612,429.219,56.612,448.219,89.612,440.219z"/>
</svg>
