<?xml version="1.0" encoding="utf-8"?>
<!-- Generator: Adobe Illustrator 15.0.0, SVG Export Plug-In . SVG Version: 6.00 Build 0)  -->
<!DOCTYPE svg PUBLIC "-//W3C//DTD SVG 1.1//EN" "http://www.w3.org/Graphics/SVG/1.1/DTD/svg11.dtd">
<svg version="1.1" id="Layer_1" xmlns="http://www.w3.org/2000/svg" xmlns:xlink="http://www.w3.org/1999/xlink" x="0px" y="0px"
	 width="896px" height="1024px" viewBox="0 0 896 1024" enable-background="new 0 0 896 1024" xml:space="preserve">
<path d="M75,101h168c9,0,35-7,80-23c96-33,163-52,237-52h54h21c110,0,183,68,183,176c23,29,35,64,35,103c0,9-1,17-2,26
	c14,26,22,54,22,84c0,14-2,27-5,40c19,28,28,61,28,95c0,80-68,149-149,149H644c19,38,28,76,28,112c0,45-7,81-20,108
	c-28,54-82,79-148,79c-20,0-37-8-52-22c-34-33-45-90-54-137c-5-24-12-40-21-50c-19-20-40-45-62-75c-40-50-66-81-80-90H75
	c-42,0-75-33-75-75V176C0,134,33,101,75,101z M112,251c20,0,37-17,37-38c0-20-17-37-37-37s-37,17-37,37c0,10,3,19,11,26
	C93,247,102,251,112,251z M243,549c12,0,28,7,44,21s29,26,46,47c17,20,24,29,38,48c8,10,12,16,14,18c21,26,36,44,44,53
	c33,33,44,91,53,137c5,23,12,40,22,50c75,0,94-36,94-112c0-23-10-54-28-94c-19-39-28-70-28-93h205c39,0,75-35,75-75
	c0-27-19-74-44-74c12-14,20-41,20-60c0-27-10-51-31-70c7-12,11-26,11-40c0-29-15-61-38-74c2-11,3-22,3-32c0-65-38-98-112-98h-71
	c-51,0-117,14-199,43c-4,2-29,10-38,13s-31,11-42,14c-12,2-28,5-38,5h-19v373H243z"/>
</svg>
