<?xml version="1.0" encoding="utf-8"?>
<!-- Generator: Adobe Illustrator 15.0.0, SVG Export Plug-In . SVG Version: 6.00 Build 0)  -->
<!DOCTYPE svg PUBLIC "-//W3C//DTD SVG 1.1//EN" "http://www.w3.org/Graphics/SVG/1.1/DTD/svg11.dtd">
<svg version="1.1" id="Layer_1" xmlns="http://www.w3.org/2000/svg" xmlns:xlink="http://www.w3.org/1999/xlink" x="0px" y="0px"
	 width="896px" height="1024px" viewBox="0 0 896 1024" enable-background="new 0 0 896 1024" xml:space="preserve">
<path d="M0,848V475c0-42,33-75,75-75h160c14-9,40-40,80-90c22-30,43-55,62-75c9-10,16-26,21-50c9-47,20-104,54-137
	c15-14,32-22,52-22c66,0,120,25,148,79c13,27,20,63,20,108c0,36-9,74-28,112h103c81,0,149,69,149,149c0,34-9,67-28,95
	c3,13,5,26,5,40c0,30-8,58-22,84c1,9,2,17,2,26c0,39-12,74-35,103c0,108-73,176-183,176h-21h-54c-74,0-141-19-237-52
	c-45-16-71-23-80-23H75C33,923,0,890,0,848z M86,785c-8,7-11,16-11,26c0,20,17,37,37,37s37-17,37-37c0-21-17-38-37-38
	C102,773,93,777,86,785z M224,475v373h19c10,0,26,3,38,5c11,3,33,11,42,14s34,11,38,13c82,29,148,43,199,43h71c74,0,112-33,112-98
	c0-10-1-21-3-32c23-13,38-45,38-74c0-14-4-28-11-40c21-19,31-43,31-70c0-19-8-46-20-60c25,0,44-47,44-74c0-40-36-75-75-75H542
	c0-23,9-54,28-93c18-40,28-71,28-94c0-76-19-112-94-112c-10,10-17,27-22,50c-9,46-20,104-53,137c-8,9-23,27-44,53c-2,2-6,8-14,18
	c-14,19-21,28-38,48c-17,21-30,33-46,47s-32,21-44,21H224z"/>
</svg>
