<?xml version="1.0" encoding="utf-8"?>
<!-- Generator: Adobe Illustrator 15.0.0, SVG Export Plug-In . SVG Version: 6.00 Build 0)  -->
<!DOCTYPE svg PUBLIC "-//W3C//DTD SVG 1.1//EN" "http://www.w3.org/Graphics/SVG/1.1/DTD/svg11.dtd">
<svg version="1.1" id="Layer_1" xmlns="http://www.w3.org/2000/svg" xmlns:xlink="http://www.w3.org/1999/xlink" x="0px" y="0px"
	 width="960px" height="1024px" viewBox="0 0 960 1024" enable-background="new 0 0 960 1024" xml:space="preserve">
<path d="M44.5,133.5h170c21,0,38,17,38,38v379c0,20-17,37-38,37h-170c-21,0-38-17-38-37v-379C6.5,150.5,23.5,133.5,44.5,133.5z
	 M120.5,284.5c20,0,38-17,38-38s-18-37-38-37c-22,0-38,16-38,37S98.5,284.5,120.5,284.5z M328.5,133.5c14-1,45-9,93-26
	c31-10,55-18,72-23c34-11,105-27,157-27h10h45h21c105,2,153,65,146,153c31,29,45,81,32,125c18,25,26,51,25,81c0,13-3,28-9,45
	c22,25,33,55,33,89c0,61-52,113-114,113h-164c3,11,6,18,12,27c3,5,4,9,6,11c7,14,12,24,16,33c7,17,17,51,17,81c0,9,0,17,0,23
	c-1,12-4,40-10,56s-20,38-38,51c-19,12-49,21-85,21c-21,0-35-17-47-41c-11-23-13-36-19-67c-3-16-5-28-7-35c-4-15-15-43-29-57
	c-13-13-33-37-60-71c-39-51-86-105-105-107s-36-18-36-38v-379C290.5,150.5,307.5,133.5,328.5,133.5z"/>
</svg>
