<?xml version="1.0" encoding="utf-8"?>
<!-- Generator: Adobe Illustrator 15.0.0, SVG Export Plug-In . SVG Version: 6.00 Build 0)  -->
<!DOCTYPE svg PUBLIC "-//W3C//DTD SVG 1.1//EN" "http://www.w3.org/Graphics/SVG/1.1/DTD/svg11.dtd">
<svg version="1.1" id="Layer_1" xmlns="http://www.w3.org/2000/svg" xmlns:xlink="http://www.w3.org/1999/xlink" x="0px" y="0px"
	 width="960px" height="1024px" viewBox="0 0 960 1024" enable-background="new 0 0 960 1024" xml:space="preserve">
<path d="M6.5,852.5v-379c0-20,17-37,38-37h170c21,0,38,17,38,37v379c0,21-17,38-38,38h-170C23.5,890.5,6.5,873.5,6.5,852.5z
	 M82.5,777.5c0,21,16,37,38,37c20,0,38-16,38-37s-18-38-38-38C98.5,739.5,82.5,756.5,82.5,777.5z M290.5,852.5v-379
	c0-20,17-36,36-38s66-56,105-107c27-34,47-58,60-71c14-14,25-42,29-57c2-7,4-19,7-35c6-31,8-44,19-67c12-24,26-41,47-41
	c36,0,66,9,85,21c18,13,32,35,38,51s9,44,10,56c0,6,0,14,0,23c0,30-10,64-17,81c-4,9-9,19-16,33c-2,2-3,6-6,11c-6,9-9,16-12,27h164
	c62,0,114,52,114,113c0,34-11,64-33,89c6,17,9,32,9,45c1,30-7,56-25,81c13,44-1,96-32,125c7,88-41,151-146,153h-21h-45h-10
	c-52,0-123-16-157-27c-17-5-41-13-72-23c-48-17-79-25-93-26C307.5,890.5,290.5,873.5,290.5,852.5z"/>
</svg>
