<?xml version="1.0" encoding="utf-8"?>
<!-- Generator: Adobe Illustrator 15.0.0, SVG Export Plug-In . SVG Version: 6.00 Build 0)  -->
<!DOCTYPE svg PUBLIC "-//W3C//DTD SVG 1.1//EN" "http://www.w3.org/Graphics/SVG/1.1/DTD/svg11.dtd">
<svg version="1.1" id="Layer_1" xmlns="http://www.w3.org/2000/svg" xmlns:xlink="http://www.w3.org/1999/xlink" x="0px" y="0px"
	 width="1024px" height="1024px" viewBox="0 0 1024 1024" enable-background="new 0 0 1024 1024" xml:space="preserve">
<path d="M355,748l-88-88l156-157L267,347l88-89l157,157l157-157l88,88L601,503l156,157l-88,88L512,592L355,748z M40,314
	C13,375,0,441,0,512c0,139,54,269,150,362c93,96,223,150,362,150c142,0,263-50,363-150c95-95,149-225,149-362c0-136-54-267-149-363
	C779,54,648,0,512,0S245,54,150,149C103,196,66,251,40,314z"/>
</svg>
