<?xml version="1.0" encoding="utf-8"?>
<!-- Generator: Adobe Illustrator 15.0.0, SVG Export Plug-In . SVG Version: 6.00 Build 0)  -->
<!DOCTYPE svg PUBLIC "-//W3C//DTD SVG 1.1//EN" "http://www.w3.org/Graphics/SVG/1.1/DTD/svg11.dtd">
<svg version="1.1" id="Layer_1" xmlns="http://www.w3.org/2000/svg" xmlns:xlink="http://www.w3.org/1999/xlink" x="0px" y="0px"
	 width="1024px" height="1024px" viewBox="0 0 1024 1024" enable-background="new 0 0 1024 1024" xml:space="preserve">
<path d="M561.709,639l462-477l-157-162l-462,477l57,59l-277,285l-63,34l-89,145l23,24l141-92l32-66l277-285L561.709,639z
	 M940.709,841l-242-252l-149,148l246,254c20,21,47,32,73,32s52-11,72-32s30-46,30-75C970.709,888,960.709,863,940.709,841z
	 M286.709,465c11,11,26,27,47,49l34,36l36-37l-56-58l108-115l-22-21c-12-12-14-15-5-8c20-77,2-159-56-219s-137-79-212-59l124,128
	l-32,125l-122,33l-123-127c-20,76-1,158,56,218C124.709,473,209.709,490,286.709,465z"/>
</svg>
