<?xml version="1.0" encoding="utf-8"?>
<!-- Generator: Adobe Illustrator 15.0.0, SVG Export Plug-In . SVG Version: 6.00 Build 0)  -->
<!DOCTYPE svg PUBLIC "-//W3C//DTD SVG 1.1//EN" "http://www.w3.org/Graphics/SVG/1.1/DTD/svg11.dtd">
<svg version="1.1" id="Layer_1" xmlns="http://www.w3.org/2000/svg" xmlns:xlink="http://www.w3.org/1999/xlink" x="0px" y="0px"
	 width="704px" height="1024px" viewBox="0 0 704 1024" enable-background="new 0 0 704 1024" xml:space="preserve">
<path d="M640,192v64H64v-64H640z M576,320v576H192c-64,0-64,0-64,0V320h64v448c0,64,0,64,64,64c0,0,0,0,0-64V320h64v448
	c0,64,0,64,64,64c0,0,0,0,0-64V320h64v448c0,64,0,64,64,64c0,0,0,0,0-64V320H576z M640,128H384V64c-64,0-64,0-64,0v64H64
	c-64,0-64,0-64,64v64c0,64,0,64,64,64v576c0,64,0,64,64,64h448c64,0,64,0,64-64V320c64,0,64,0,64-64v-64C704,128,704,128,640,128z"
	/>
</svg>
