<?xml version="1.0" encoding="utf-8"?>
<!-- Generator: Adobe Illustrator 15.0.0, SVG Export Plug-In . SVG Version: 6.00 Build 0)  -->
<!DOCTYPE svg PUBLIC "-//W3C//DTD SVG 1.1//EN" "http://www.w3.org/Graphics/SVG/1.1/DTD/svg11.dtd">
<svg version="1.1" id="Layer_1" xmlns="http://www.w3.org/2000/svg" xmlns:xlink="http://www.w3.org/1999/xlink" x="0px" y="0px"
	 width="896px" height="1024px" viewBox="0 0 896 1024" enable-background="new 0 0 896 1024" xml:space="preserve">
<path d="M512,800V608H384v192H256l192,192l192-192H512z M896,288H576v64h224L672,480H224L96,352h224v-64H0v64l160,160L0,672v64h320
	v-64H96l128-128h448l128,128H576v64h320v-64L736,512l160-160V288z M384,224v192h128V224h128L448,32L256,224H384z"/>
</svg>
