<?xml version="1.0" encoding="utf-8"?>
<!-- Generator: Adobe Illustrator 15.0.0, SVG Export Plug-In . SVG Version: 6.00 Build 0)  -->
<!DOCTYPE svg PUBLIC "-//W3C//DTD SVG 1.1//EN" "http://www.w3.org/Graphics/SVG/1.1/DTD/svg11.dtd">
<svg version="1.1" id="Layer_1" xmlns="http://www.w3.org/2000/svg" xmlns:xlink="http://www.w3.org/1999/xlink" x="0px" y="0px"
	 width="960px" height="1024px" viewBox="0 0 960 1024" enable-background="new 0 0 960 1024" xml:space="preserve">
<path d="M6,673c-4-3-6-8-6-13c0-11,8-19,19-19h184c11,0,19,8,19,19s-8,18-19,18H19C14,678,9,677,6,673z M10,291c0-46,16-86,49-117
	l84-85c32-31,71-47,117-47c47,0,86,16,118,49l193,193c8,8,16,19,24,32l-138,10L300,168c-11-10-24-16-40-16c-15,0-28,6-39,16l-85,84
	c-10,11-16,24-16,39s6,28,16,39l158,158l-10,138c-13-8-24-16-32-24L58,408C26,376,10,336,10,291z M79,913c-3-4-5-8-5-13s2-9,5-14
	l148-147c4-4,8-5,13-5c10,0,19,8,19,18c0,5-2,9-5,13L106,913c-4,3-8,5-13,5S83,916,79,913z M314,974V789c0-11,8-18,19-18s18,7,18,18
	v185c0,11-7,18-18,18S314,985,314,974z M365,708l138-10l158,158c20,21,57,21,78,0l85-84c11-11,16-23,16-38c0-16-5-29-16-40L666,536
	l10-138c14,8,24,16,33,24l193,194c33,33,49,72,49,118s-16,85-49,117l-85,84c-32,32-71,48-117,48c-47,0-86-16-118-49L390,741
	C382,732,373,722,365,708z M609,235V51c0-11,8-19,19-19s18,8,18,19v184c0,11-7,19-18,19S609,246,609,235z M707,286c-4-4-5-9-5-14
	s1-9,5-13l147-148c5-3,9-5,14-5c10,0,18,9,18,19c0,5-2,9-5,13L733,286c-4,3-8,5-13,5S711,289,707,286z M744,378c-4-4-5-8-5-13
	c0-11,7-19,18-19h185c11,0,18,8,18,19s-7,18-18,18H757C752,383,747,381,744,378z"/>
</svg>
