<?xml version="1.0" encoding="utf-8"?>
<!-- Generator: Adobe Illustrator 15.0.0, SVG Export Plug-In . SVG Version: 6.00 Build 0)  -->
<!DOCTYPE svg PUBLIC "-//W3C//DTD SVG 1.1//EN" "http://www.w3.org/Graphics/SVG/1.1/DTD/svg11.dtd">
<svg version="1.1" id="Layer_1" xmlns="http://www.w3.org/2000/svg" xmlns:xlink="http://www.w3.org/1999/xlink" x="0px" y="0px"
	 width="960px" height="1024px" viewBox="0 0 960 1024" enable-background="new 0 0 960 1024" xml:space="preserve">
<path d="M512,512H64v448h448v-64H128v-64h384v-64H128v-64h384v-64H128v-64h384V512z M832,355v-99c-3-67-61-125-128-128
	c-67,3-125,61-128,128v192h128c33,1,63,31,64,64v448c-1,33-31,63-64,64H64c-33-1-63-31-64-64V512c1-33,31-64,64-64h384V256
	C453,123,571,5,704,0c133,5,251,123,256,256v99c0,38-27,65-64,65S832,393,832,355z"/>
</svg>
