<?xml version="1.0" encoding="utf-8"?>
<!-- Generator: Adobe Illustrator 15.0.0, SVG Export Plug-In . SVG Version: 6.00 Build 0)  -->
<!DOCTYPE svg PUBLIC "-//W3C//DTD SVG 1.1//EN" "http://www.w3.org/Graphics/SVG/1.1/DTD/svg11.dtd">
<svg version="1.1" id="Layer_1" xmlns="http://www.w3.org/2000/svg" xmlns:xlink="http://www.w3.org/1999/xlink" x="0px" y="0px"
	 width="768px" height="1024px" viewBox="0 0 768 1024" enable-background="new 0 0 768 1024" xml:space="preserve">
<path d="M102,863.68h563c-25-111-109-212-200-231c-23-5-38-24-38-48v-34c0-19,8-33,25-41c59-35,97-109,97-190c0-115-74-208-165-208
	c-92,0-166,93-166,208c0,81,38,155,97,190c17,8,25,22,25,41v34c0,24-15,43-38,48C211,651.68,127,752.68,102,863.68z M0,911.68
	c0-153,109-299,222-352c-67-62-100-142-100-240c0-169,115-304,262-304s261,135,261,304c0,98-34,178-101,240c57,26,105,69,145,129
	c53,75,79,149,79,223c0,27-21,48-48,48H47C20,959.68,0,938.68,0,911.68z"/>
</svg>
