<?xml version="1.0" encoding="utf-8"?>
<!-- Generator: Adobe Illustrator 15.0.0, SVG Export Plug-In . SVG Version: 6.00 Build 0)  -->
<!DOCTYPE svg PUBLIC "-//W3C//DTD SVG 1.1//EN" "http://www.w3.org/Graphics/SVG/1.1/DTD/svg11.dtd">
<svg version="1.1" id="Layer_1" xmlns="http://www.w3.org/2000/svg" xmlns:xlink="http://www.w3.org/1999/xlink" x="0px" y="0px"
	 width="896px" height="1024px" viewBox="0 0 896 1024" enable-background="new 0 0 896 1024" xml:space="preserve">
<path d="M0,849v91c0,11,8,20,19,20h858c11,0,19-9,19-20v-91c0-43-8-59-39-76c-136-79-227-127-272-145V481c25-19,38-48,38-87V278
	c0-67-24-117-60-142c-36-24-74-34-115-34c-100,0-175,59-175,176v116c0,40,13,69,39,87v147c-56,25-147,73-273,145C8,790,0,806,0,849z
	"/>
</svg>
