<?xml version="1.0" encoding="utf-8"?>
<!-- Generator: Adobe Illustrator 15.0.0, SVG Export Plug-In . SVG Version: 6.00 Build 0)  -->
<!DOCTYPE svg PUBLIC "-//W3C//DTD SVG 1.1//EN" "http://www.w3.org/Graphics/SVG/1.1/DTD/svg11.dtd">
<svg version="1.1" id="Layer_1" xmlns="http://www.w3.org/2000/svg" xmlns:xlink="http://www.w3.org/1999/xlink" x="0px" y="0px"
	 width="832px" height="1024px" viewBox="0 0 832 1024" enable-background="new 0 0 832 1024" xml:space="preserve">
<path d="M706,819c64-87,103-194,103-310s-39-223-103-310l-43,32c57,78,91,174,91,278s-34,199-91,277L706,819z M565,721
	c43-59,70-133,70-212c0-80-27-153-70-212l-44,32c37,51,60,113,60,180s-23,129-60,179L565,721z M448,832V192h-64L192,384H0v256h192
	l192,192H448z"/>
</svg>
