<?xml version="1.0" encoding="utf-8"?>
<!-- Generator: Adobe Illustrator 15.0.0, SVG Export Plug-In . SVG Version: 6.00 Build 0)  -->
<!DOCTYPE svg PUBLIC "-//W3C//DTD SVG 1.1//EN" "http://www.w3.org/Graphics/SVG/1.1/DTD/svg11.dtd">
<svg version="1.1" id="Layer_1" xmlns="http://www.w3.org/2000/svg" xmlns:xlink="http://www.w3.org/1999/xlink" x="0px" y="0px"
	 width="768px" height="1024px" viewBox="0 0 768 1024" enable-background="new 0 0 768 1024" xml:space="preserve">
<path d="M629,331c-7-6-14-9-22-9c-17,0-33,15-33,31c0,9,3,16,10,23c37,39,56,85,56,136s-19,97-56,136c-7,7-10,14-10,22
	c0,17,16,32,33,32c8,0,15-3,22-9c50-53,75-113,75-181S679,384,629,331z M539,421c-7-6-14-9-23-9c-17,0-32,15-32,32c0,9,3,16,9,23
	c13,13,19,28,19,45s-6,32-19,45c-6,7-9,14-9,23c0,17,15,32,32,32c9,0,16-3,23-9c25-27,37-57,37-91S564,448,539,421z M384,192
	L128,384H0v256h128l256,192h64V192H384z"/>
</svg>
