<?xml version="1.0" encoding="utf-8"?>
<!-- Generator: Adobe Illustrator 15.0.0, SVG Export Plug-In . SVG Version: 6.00 Build 0)  -->
<!DOCTYPE svg PUBLIC "-//W3C//DTD SVG 1.1//EN" "http://www.w3.org/Graphics/SVG/1.1/DTD/svg11.dtd">
<svg version="1.1" id="Layer_1" xmlns="http://www.w3.org/2000/svg" xmlns:xlink="http://www.w3.org/1999/xlink" x="0px" y="0px"
	 width="960px" height="1024px" viewBox="0 0 960 1024" enable-background="new 0 0 960 1024" xml:space="preserve">
<path d="M448,834.5v-640h-64l-192,192H0v256h192l192,192H448z M775,135.5c78,105,123,236,123,376c0,141-45,271-123,376l44,33
	c84-114,133-255,133-409c0-153-49-294-133-408L775,135.5z M684,821.5c63-86,102-193,102-310c0-116-39-223-102-310l-44,33
	c57,77,92,173,92,277s-35,200-92,278L684,821.5z M542,724.5c43-60,70-133,70-213c0-79-27-153-70-212l-44,33c37,50,59,112,59,179
	c0,68-22,130-59,180L542,724.5z"/>
</svg>
