<?xml version="1.0" encoding="utf-8"?>
<!-- Generator: Adobe Illustrator 15.0.0, SVG Export Plug-In . SVG Version: 6.00 Build 0)  -->
<!DOCTYPE svg PUBLIC "-//W3C//DTD SVG 1.1//EN" "http://www.w3.org/Graphics/SVG/1.1/DTD/svg11.dtd">
<svg version="1.1" id="Layer_1" xmlns="http://www.w3.org/2000/svg" xmlns:xlink="http://www.w3.org/1999/xlink" x="0px" y="0px"
	 width="1024px" height="1024px" viewBox="0 0 1024 1024" enable-background="new 0 0 1024 1024" xml:space="preserve">
<path d="M448,640v128h128V640H448z M448,256v320h128V256H448z M96,512c0-118,41-216,122-294c76-77,186-122,294-122
	c112,0,219,43,294,122c79,75,122,182,122,294c0,109-45,218-122,294c-78,81-176,122-294,122c-117,0-215-41-294-122
	C137,727,96,629,96,512z M40,314C13,375,0,441,0,512c0,139,54,269,150,362c93,96,223,150,362,150c142,0,263-50,363-150
	c95-95,149-225,149-362c0-136-54-267-149-363C779,54,648,0,512,0S245,54,150,149C103,196,66,251,40,314z"/>
</svg>
