<?xml version="1.0" encoding="utf-8"?>
<!-- Generator: Adobe Illustrator 15.0.0, SVG Export Plug-In . SVG Version: 6.00 Build 0)  -->
<!DOCTYPE svg PUBLIC "-//W3C//DTD SVG 1.1//EN" "http://www.w3.org/Graphics/SVG/1.1/DTD/svg11.dtd">
<svg version="1.1" id="Layer_1" xmlns="http://www.w3.org/2000/svg" xmlns:xlink="http://www.w3.org/1999/xlink" x="0px" y="0px"
	 width="1024px" height="1024px" viewBox="0 0 1024 1024" enable-background="new 0 0 1024 1024" xml:space="preserve">
<path d="M14,869.367c0,12,4,22,13,31l91,92c9,8,19,12,31,12c13,0,23-4,31-12l494-495c29,8,59,12,91,12c59,1,117-23,173-70
	c48-41,76-110,72-183l-209,104l-120-192l214-116c-25-19-53-31-84-37c-115-23-237,47-281,159c-23,55-25,111-6,167l-497,498
	C18,848.367,14,858.367,14,869.367z"/>
</svg>
